STARTFONT 2.1
COMMENT $Xorg: $
COMMENT ISO10646-1 extension by Markus Kuhn <mkuhn@acm.org>, 2001-03-20
COMMENT  (c) Copyright Bigelow & Holmes 1986, 1985. Lucida is a registered
COMMENT  trademark of Bigelow & Holmes. See LEGAL NOTICE file for terms 
COMMENT  of the license. 
FONT -B&H-Lucida-Bold-I-Normal-Sans-20-140-100-100-P-127-ISO10646-1
SIZE 14 100 100
FONTBOUNDINGBOX 40 28 -13 -8
STARTPROPERTIES 22
COMMENT Begin LogicalFontDescription
FONTNAME_REGISTRY ""
FOUNDRY "B&H"
FAMILY_NAME "Lucida"
WEIGHT_NAME "Bold"
SLANT "I"
SETWIDTH_NAME "Normal"
ADD_STYLE_NAME "Sans"
PIXEL_SIZE 20
POINT_SIZE 140
RESOLUTION_X 100
RESOLUTION_Y 100
SPACING "P"
AVERAGE_WIDTH 127
CHARSET_REGISTRY "ISO10646"
CHARSET_ENCODING "1"
COMMENT END LogicalFontDescription
FONT_ASCENT 18
FONT_DESCENT 5
DEFAULT_CHAR 0
COPYRIGHT "Copyright Bigelow & Holmes 1986, 1985."
FACE_NAME "Lucida Sans Bold Italic"
X_HEIGHT 11
CAP_HEIGHT 14
ENDPROPERTIES
CHARS 723
STARTCHAR char0
ENCODING 0
SWIDTH 813 0
DWIDTH 16 0
BBX 15 13 2 0
BITMAP
AAAA
0000
8002
0000
8002
0000
8002
0000
8002
0000
8002
0000
AAAA
ENDCHAR
STARTCHAR space
ENCODING 32
SWIDTH 343 0
DWIDTH 7 0
BBX 1 1 0 0
BITMAP
00
ENDCHAR
STARTCHAR exclam
ENCODING 33
SWIDTH 343 0
DWIDTH 7 0
BBX 7 14 1 0
BITMAP
1E
1E
3C
3C
3C
3C
38
38
38
30
00
00
F8
F0
ENDCHAR
STARTCHAR quotedbl
ENCODING 34
SWIDTH 530 0
DWIDTH 11 0
BBX 9 6 3 8
BITMAP
E380
E380
E380
C180
4100
4100
ENDCHAR
STARTCHAR numbersign
ENCODING 35
SWIDTH 687 0
DWIDTH 14 0
BBX 13 14 2 0
BITMAP
0398
0330
0770
7FF8
7FF8
0CC0
1DC0
1980
FFF0
FFF0
3300
6600
6600
CC00
ENDCHAR
STARTCHAR dollar
ENCODING 36
SWIDTH 687 0
DWIDTH 14 0
BBX 12 20 2 -2
BITMAP
0080
0180
0380
0F80
1FF0
1FF0
3D30
1900
1F00
1F00
0F80
07C0
07E0
04E0
04E0
E9C0
FF80
FF00
0C00
1800
ENDCHAR
STARTCHAR percent
ENCODING 37
SWIDTH 908 0
DWIDTH 18 0
BBX 17 14 2 0
BITMAP
3C0300
7E0600
E60C00
C61800
C63000
CC6000
FCC000
798000
030F00
061F80
0C3180
183180
303F00
601E00
ENDCHAR
STARTCHAR ampersand
ENCODING 38
SWIDTH 816 0
DWIDTH 16 0
BBX 15 14 2 0
BITMAP
03E0
07F0
0E18
0E30
0EF0
07C0
1F06
738E
618C
E1DC
E0F8
F0F0
7FF0
3F78
ENDCHAR
STARTCHAR quotesingle
ENCODING 39
SWIDTH 265 0
DWIDTH 5 0
BBX 4 6 3 8
BITMAP
F0
F0
E0
60
60
40
ENDCHAR
STARTCHAR parenleft
ENCODING 40
SWIDTH 386 0
DWIDTH 8 0
BBX 7 18 2 -4
BITMAP
02
06
0C
18
38
70
70
60
E0
E0
E0
E0
E0
E0
60
70
30
20
ENDCHAR
STARTCHAR parenright
ENCODING 41
SWIDTH 386 0
DWIDTH 8 0
BBX 7 18 1 -4
BITMAP
08
18
1C
0C
0E
0E
0E
0E
0E
0E
0C
1C
18
38
30
60
C0
80
ENDCHAR
STARTCHAR asterisk
ENCODING 42
SWIDTH 464 0
DWIDTH 9 0
BBX 8 7 3 7
BITMAP
1C
49
67
E7
3C
EE
28
ENDCHAR
STARTCHAR plus
ENCODING 43
SWIDTH 687 0
DWIDTH 14 0
BBX 12 11 2 0
BITMAP
0100
0100
0300
0200
FFF0
FFF0
0400
0C00
0800
0800
0800
ENDCHAR
STARTCHAR comma
ENCODING 44
SWIDTH 343 0
DWIDTH 7 0
BBX 5 7 1 -3
BITMAP
78
78
78
70
30
70
E0
ENDCHAR
STARTCHAR hyphen
ENCODING 45
SWIDTH 289 0
DWIDTH 6 0
BBX 5 2 2 6
BITMAP
F8
F8
ENDCHAR
STARTCHAR period
ENCODING 46
SWIDTH 343 0
DWIDTH 7 0
BBX 5 3 1 0
BITMAP
78
F8
F0
ENDCHAR
STARTCHAR slash
ENCODING 47
SWIDTH 596 0
DWIDTH 12 0
BBX 15 17 0 -3
BITMAP
000E
001C
0038
0030
0070
00E0
00C0
0180
0380
0300
0600
0E00
1C00
1800
3800
7000
E000
ENDCHAR
STARTCHAR zero
ENCODING 48
SWIDTH 687 0
DWIDTH 14 0
BBX 11 14 3 0
BITMAP
0780
1FC0
38C0
70E0
70E0
70E0
E0E0
E1C0
E1C0
E1C0
E380
E380
7F00
3C00
ENDCHAR
STARTCHAR one
ENCODING 49
SWIDTH 687 0
DWIDTH 14 0
BBX 7 14 5 0
BITMAP
7E
FE
3C
3C
3C
3C
3C
78
78
78
78
78
F0
F0
ENDCHAR
STARTCHAR two
ENCODING 50
SWIDTH 687 0
DWIDTH 14 0
BBX 13 14 2 0
BITMAP
0FE0
1FF0
1078
0038
0038
0070
00E0
03C0
0F00
1E00
3800
7800
FFE0
FFE0
ENDCHAR
STARTCHAR three
ENCODING 51
SWIDTH 687 0
DWIDTH 14 0
BBX 12 14 3 0
BITMAP
1FC0
1FF0
30F0
0070
0060
01C0
1F00
3FC0
01E0
00E0
00E0
C1E0
FFC0
FF00
ENDCHAR
STARTCHAR four
ENCODING 52
SWIDTH 687 0
DWIDTH 14 0
BBX 12 14 1 0
BITMAP
0070
00F0
01E0
02E0
04E0
08E0
19E0
31C0
7FF0
FFF0
03C0
0380
0380
0380
ENDCHAR
STARTCHAR five
ENCODING 53
SWIDTH 687 0
DWIDTH 14 0
BBX 13 14 2 0
BITMAP
1FF8
1FF8
1800
3800
3000
3F00
3FC0
03E0
00E0
00E0
00E0
C1E0
FFC0
FF00
ENDCHAR
STARTCHAR six
ENCODING 54
SWIDTH 687 0
DWIDTH 14 0
BBX 13 14 2 0
BITMAP
03F8
0FF8
1E18
3C00
7800
7FC0
FFE0
F0F0
E070
E070
E070
70E0
7FC0
1F00
ENDCHAR
STARTCHAR seven
ENCODING 55
SWIDTH 687 0
DWIDTH 14 0
BBX 11 14 4 0
BITMAP
7FE0
FFE0
01C0
0380
0380
0700
0E00
1C00
1800
3800
7000
7000
E000
E000
ENDCHAR
STARTCHAR eight
ENCODING 56
SWIDTH 687 0
DWIDTH 14 0
BBX 12 14 2 0
BITMAP
07C0
1FF0
1870
3030
3870
1FE0
0F80
3FE0
71E0
E060
E060
E0E0
7FC0
3F00
ENDCHAR
STARTCHAR nine
ENCODING 57
SWIDTH 687 0
DWIDTH 14 0
BBX 13 14 2 0
BITMAP
07C0
1FF0
3870
7038
7038
7038
7878
3FF8
1FF0
00F0
01E0
C3C0
FF80
FE00
ENDCHAR
STARTCHAR colon
ENCODING 58
SWIDTH 343 0
DWIDTH 7 0
BBX 6 11 2 0
BITMAP
3C
3C
78
00
00
00
00
00
78
F0
F0
ENDCHAR
STARTCHAR semicolon
ENCODING 59
SWIDTH 343 0
DWIDTH 7 0
BBX 7 14 1 -3
BITMAP
1E
1E
3C
00
00
00
00
7C
78
78
78
38
30
E0
ENDCHAR
STARTCHAR less
ENCODING 60
SWIDTH 687 0
DWIDTH 14 0
BBX 12 10 1 0
BITMAP
0030
01C0
0700
1C00
E000
3000
0C00
0300
00C0
0040
ENDCHAR
STARTCHAR equal
ENCODING 61
SWIDTH 687 0
DWIDTH 14 0
BBX 13 8 2 2
BITMAP
7FF8
7FF8
0000
0000
0000
0000
FFF0
FFF0
ENDCHAR
STARTCHAR greater
ENCODING 62
SWIDTH 687 0
DWIDTH 14 0
BBX 12 10 1 1
BITMAP
2000
3000
0C00
0300
00C0
0070
0380
0E00
3800
C000
ENDCHAR
STARTCHAR question
ENCODING 63
SWIDTH 539 0
DWIDTH 11 0
BBX 10 14 3 0
BITMAP
7F00
FFC0
83C0
01C0
0180
0700
0E00
1C00
3800
7800
0000
0000
F800
F000
ENDCHAR
STARTCHAR at
ENCODING 64
SWIDTH 833 0
DWIDTH 17 0
BBX 13 14 3 0
BITMAP
07C0
1820
3010
27C8
49C8
91C8
91C8
93C8
B298
9FA0
99E0
4000
2100
1F80
ENDCHAR
STARTCHAR A
ENCODING 65
SWIDTH 771 0
DWIDTH 15 0
BBX 14 14 1 0
BITMAP
00E0
01F0
01F0
03F0
0270
0670
0C78
0C78
1FF8
1FF8
3038
203C
603C
E03C
ENDCHAR
STARTCHAR B
ENCODING 66
SWIDTH 660 0
DWIDTH 13 0
BBX 12 14 2 0
BITMAP
1FE0
3FF0
3C70
3870
3860
38C0
7F80
7FC0
79E0
70E0
70E0
F0E0
FFC0
FF80
ENDCHAR
STARTCHAR C
ENCODING 67
SWIDTH 737 0
DWIDTH 15 0
BBX 15 14 2 0
BITMAP
01FE
07FE
1E06
3C00
7800
7000
E000
E000
E000
E000
F000
7818
7FF8
1FE0
ENDCHAR
STARTCHAR D
ENCODING 68
SWIDTH 822 0
DWIDTH 16 0
BBX 16 14 2 0
BITMAP
1FFC
1FFE
3E1F
3E07
3E07
3C07
3C07
7C0F
780E
781E
783C
7878
FFF0
FFC0
ENDCHAR
STARTCHAR E
ENCODING 69
SWIDTH 642 0
DWIDTH 13 0
BBX 13 14 2 0
BITMAP
1FF8
1FF8
3C00
3C00
3C00
3C00
3FE0
7FC0
7800
7800
7800
7800
FFE0
FFE0
ENDCHAR
STARTCHAR F
ENCODING 70
SWIDTH 614 0
DWIDTH 12 0
BBX 13 14 2 0
BITMAP
1FF8
1FF8
3C00
3C00
3C00
3C00
3FC0
7FC0
7800
7800
7800
7000
F000
F000
ENDCHAR
STARTCHAR G
ENCODING 71
SWIDTH 755 0
DWIDTH 15 0
BBX 15 14 2 0
BITMAP
01FE
07FE
1E06
3800
7000
7000
E000
E03C
E078
E078
F0F8
78F8
7FF0
1FF0
ENDCHAR
STARTCHAR H
ENCODING 72
SWIDTH 813 0
DWIDTH 16 0
BBX 16 14 2 0
BITMAP
1E0F
1E0F
3C0E
3C1E
3C1E
3C1E
3FFE
7FFC
783C
783C
783C
703C
F078
F078
ENDCHAR
STARTCHAR I
ENCODING 73
SWIDTH 361 0
DWIDTH 7 0
BBX 7 14 2 0
BITMAP
1E
1E
3C
3C
3C
3C
3C
78
78
78
78
78
F0
F0
ENDCHAR
STARTCHAR J
ENCODING 74
SWIDTH 502 0
DWIDTH 10 0
BBX 11 17 0 -3
BITMAP
01E0
01E0
01E0
01C0
03C0
03C0
03C0
03C0
0380
0780
0780
0780
0780
0700
8F00
FE00
FC00
ENDCHAR
STARTCHAR K
ENCODING 75
SWIDTH 753 0
DWIDTH 15 0
BBX 14 14 2 0
BITMAP
1E1C
1E38
3C70
3CE0
3DC0
3D80
3B00
7F80
79C0
79C0
78E0
70E0
F070
F078
ENDCHAR
STARTCHAR L
ENCODING 76
SWIDTH 623 0
DWIDTH 12 0
BBX 11 14 2 0
BITMAP
1E00
1E00
3C00
3C00
3C00
3C00
3800
7800
7800
7800
7800
7000
FFE0
FFE0
ENDCHAR
STARTCHAR M
ENCODING 77
SWIDTH 940 0
DWIDTH 19 0
BBX 18 14 2 0
BITMAP
1F03C0
1F07C0
3F0780
3F0F80
3F0B80
3F1780
371780
77A700
77E700
73C700
73CF00
638F00
E30E00
E00E00
ENDCHAR
STARTCHAR N
ENCODING 78
SWIDTH 789 0
DWIDTH 16 0
BBX 15 14 2 0
BITMAP
1C0E
1C0E
3E0C
3E1C
3F1C
3F1C
339C
7398
71F8
71F8
70F8
60F8
E070
E070
ENDCHAR
STARTCHAR O
ENCODING 79
SWIDTH 855 0
DWIDTH 17 0
BBX 14 14 3 0
BITMAP
03E0
0FF8
1C38
381C
701C
701C
E01C
E01C
E038
E038
F070
70E0
7FC0
1F00
ENDCHAR
STARTCHAR P
ENCODING 80
SWIDTH 645 0
DWIDTH 13 0
BBX 13 14 2 0
BITMAP
1FF0
1FF8
3C38
3C38
3C38
3870
3FE0
7F80
7800
7800
7000
7000
F000
F000
ENDCHAR
STARTCHAR Q
ENCODING 81
SWIDTH 855 0
DWIDTH 17 0
BBX 14 18 3 -4
BITMAP
03E0
0FF8
1C38
381C
701C
701C
E01C
E01C
E038
E038
F070
70F0
7FE0
1FC0
01F0
00FC
007C
0018
ENDCHAR
STARTCHAR R
ENCODING 82
SWIDTH 708 0
DWIDTH 14 0
BBX 13 14 2 0
BITMAP
1FF0
1FF8
3C38
3C38
3C38
3870
3FE0
7F80
7980
79C0
71C0
70C0
F0E0
F0F0
ENDCHAR
STARTCHAR S
ENCODING 83
SWIDTH 639 0
DWIDTH 13 0
BBX 12 14 2 0
BITMAP
07F0
1FF0
3830
3800
3C00
3E00
1F80
0FC0
03E0
00E0
00E0
41C0
FF80
FE00
ENDCHAR
STARTCHAR T
ENCODING 84
SWIDTH 747 0
DWIDTH 15 0
BBX 15 14 3 0
BITMAP
FFFE
FFFE
0780
0780
0780
0700
0F00
0F00
0F00
0F00
0F00
1E00
1E00
1E00
ENDCHAR
STARTCHAR U
ENCODING 85
SWIDTH 759 0
DWIDTH 15 0
BBX 14 14 3 0
BITMAP
3C1C
383C
7838
7838
7038
7038
7078
E070
E070
E070
E0F0
F0E0
7FC0
1F80
ENDCHAR
STARTCHAR V
ENCODING 86
SWIDTH 765 0
DWIDTH 15 0
BBX 14 14 3 0
BITMAP
F01C
F018
F030
7030
7860
78E0
78C0
79C0
7980
3B00
3F00
3E00
3E00
3C00
ENDCHAR
STARTCHAR W
ENCODING 87
SWIDTH 991 0
DWIDTH 20 0
BBX 17 14 4 0
BITMAP
E18180
E18100
E38300
E38200
E38600
E58400
E58C00
ED8800
E99800
E9B000
F1B000
71E000
71E000
61C000
ENDCHAR
STARTCHAR X
ENCODING 88
SWIDTH 696 0
DWIDTH 14 0
BBX 15 14 -1 0
BITMAP
1C0E
1E18
0E38
0E70
07E0
07C0
0780
0780
0F80
09C0
19C0
30E0
60E0
C0F0
ENDCHAR
STARTCHAR Y
ENCODING 89
SWIDTH 681 0
DWIDTH 14 0
BBX 12 14 2 0
BITMAP
E070
E0E0
61C0
7380
7300
3600
3E00
3C00
3C00
3800
7800
7800
7800
7800
ENDCHAR
STARTCHAR Z
ENCODING 90
SWIDTH 687 0
DWIDTH 14 0
BBX 14 14 1 0
BITMAP
1FFC
1FFC
0078
00F0
01E0
01C0
0380
0700
0E00
1E00
3C00
7800
7FF0
FFF0
ENDCHAR
STARTCHAR bracketleft
ENCODING 91
SWIDTH 386 0
DWIDTH 8 0
BBX 9 17 1 -3
BITMAP
0F80
1F80
1E00
1C00
1C00
1C00
3C00
3800
3800
3800
7800
7800
7000
7000
7000
FC00
F800
ENDCHAR
STARTCHAR backslash
ENCODING 92
SWIDTH 566 0
DWIDTH 11 0
BBX 7 17 3 -3
BITMAP
C0
60
60
60
60
30
30
30
38
18
18
18
0C
0C
0C
0C
06
ENDCHAR
STARTCHAR bracketright
ENCODING 93
SWIDTH 386 0
DWIDTH 8 0
BBX 9 17 0 -3
BITMAP
0F80
1F80
0700
0700
0700
0F00
0F00
0E00
0E00
0E00
1E00
1C00
1C00
1C00
3C00
FC00
F800
ENDCHAR
STARTCHAR asciicircum
ENCODING 94
SWIDTH 687 0
DWIDTH 14 0
BBX 10 10 0 3
BITMAP
0100
0300
0700
0500
0980
1880
3080
20C0
4040
C040
ENDCHAR
STARTCHAR underscore
ENCODING 95
SWIDTH 500 0
DWIDTH 10 0
BBX 9 2 0 -3
BITMAP
FF80
FF80
ENDCHAR
STARTCHAR grave
ENCODING 96
SWIDTH 663 0
DWIDTH 13 0
BBX 5 2 7 12
BITMAP
F0
38
ENDCHAR
STARTCHAR a
ENCODING 97
SWIDTH 681 0
DWIDTH 14 0
BBX 13 11 1 0
BITMAP
07F8
0FF8
1C78
30F0
70F0
61F0
E2F0
E6F0
FDE0
F9E0
71E0
ENDCHAR
STARTCHAR b
ENCODING 98
SWIDTH 681 0
DWIDTH 14 0
BBX 13 14 1 0
BITMAP
1F00
1F00
1F00
3E70
3EF8
3EF8
3FB8
7D38
7E30
7C70
7860
79C0
FF80
FF00
ENDCHAR
STARTCHAR c
ENCODING 99
SWIDTH 548 0
DWIDTH 11 0
BBX 9 11 2 0
BITMAP
0780
1F80
3880
7000
7000
E000
E000
E100
E100
7F00
3E00
ENDCHAR
STARTCHAR d
ENCODING 100
SWIDTH 681 0
DWIDTH 14 0
BBX 14 14 1 0
BITMAP
003C
003C
0078
07F8
0FF8
1C78
30F8
70F0
61F0
E2F0
E6F0
FDE0
F9E0
71E0
ENDCHAR
STARTCHAR e
ENCODING 101
SWIDTH 612 0
DWIDTH 12 0
BBX 11 11 1 0
BITMAP
07C0
1FE0
3CE0
78E0
71C0
FF80
FE00
F020
F8E0
7FE0
3F00
ENDCHAR
STARTCHAR f
ENCODING 102
SWIDTH 464 0
DWIDTH 9 0
BBX 12 18 1 -4
BITMAP
03F0
0FF0
1E10
3FC0
7F80
3C00
3C00
3C00
3C00
3C00
7800
7800
7800
7800
7800
F000
F000
F000
ENDCHAR
STARTCHAR g
ENCODING 103
SWIDTH 674 0
DWIDTH 13 0
BBX 13 15 1 -4
BITMAP
03F8
0FF0
1C70
38F0
30F0
71F0
6260
6660
7CE0
7CE0
30E0
01C0
C1C0
FF80
7E00
ENDCHAR
STARTCHAR h
ENCODING 104
SWIDTH 675 0
DWIDTH 13 0
BBX 12 14 2 0
BITMAP
1E00
1C00
3C00
3CE0
3DF0
3BF0
3BE0
7CE0
7CE0
78E0
70E0
70C0
F1C0
F1C0
ENDCHAR
STARTCHAR i
ENCODING 105
SWIDTH 343 0
DWIDTH 7 0
BBX 7 14 1 0
BITMAP
1E
3E
00
3C
3C
3C
78
78
78
78
78
F0
F0
F0
ENDCHAR
STARTCHAR j
ENCODING 106
SWIDTH 407 0
DWIDTH 8 0
BBX 12 18 -1 -4
BITMAP
00F0
01F0
0000
00C0
01C0
01C0
01C0
01C0
0180
0380
0380
0380
0380
0300
0700
8600
FC00
F800
ENDCHAR
STARTCHAR k
ENCODING 107
SWIDTH 666 0
DWIDTH 13 0
BBX 12 14 1 0
BITMAP
1E00
1E00
1C00
3C30
3C60
3CC0
3880
7900
7F80
7B80
7980
71C0
F1C0
F0E0
ENDCHAR
STARTCHAR l
ENCODING 108
SWIDTH 343 0
DWIDTH 7 0
BBX 7 14 1 0
BITMAP
1E
1E
1C
3C
3C
3C
3C
78
78
78
78
70
F0
F0
ENDCHAR
STARTCHAR m
ENCODING 109
SWIDTH 991 0
DWIDTH 20 0
BBX 19 11 1 0
BITMAP
3CE1C0
3DF3E0
3BF7E0
7AFDC0
7CF9C0
7CF1C0
78F1C0
71E180
F1E180
F1E380
F1E380
ENDCHAR
STARTCHAR n
ENCODING 110
SWIDTH 675 0
DWIDTH 13 0
BBX 12 11 2 0
BITMAP
3CE0
3DF0
3BF0
7AE0
7CE0
7CE0
78E0
70E0
F0C0
F1C0
F1C0
ENDCHAR
STARTCHAR o
ENCODING 111
SWIDTH 663 0
DWIDTH 13 0
BBX 10 11 3 0
BITMAP
0F80
1FC0
39C0
71C0
61C0
E1C0
E1C0
E180
E380
7F00
3C00
ENDCHAR
STARTCHAR p
ENCODING 112
SWIDTH 681 0
DWIDTH 14 0
BBX 13 15 1 -4
BITMAP
1E70
1CF8
3DF8
3D38
3A38
3C30
3870
7860
78E0
7FC0
7F00
7000
F000
F000
F000
ENDCHAR
STARTCHAR q
ENCODING 113
SWIDTH 681 0
DWIDTH 14 0
BBX 13 15 1 -4
BITMAP
07F8
0FF8
1C78
30F0
70F0
61F0
E2F0
E6F0
FDE0
F9E0
71E0
01E0
01E0
03C0
03C0
ENDCHAR
STARTCHAR r
ENCODING 114
SWIDTH 542 0
DWIDTH 11 0
BBX 11 11 2 0
BITMAP
3C60
3DC0
3B40
7A00
7C00
7800
7800
7000
F000
F000
F000
ENDCHAR
STARTCHAR s
ENCODING 115
SWIDTH 527 0
DWIDTH 11 0
BBX 10 11 1 0
BITMAP
0FC0
1FC0
3C00
3C00
3E00
1F00
0F80
0780
C780
FF00
FE00
ENDCHAR
STARTCHAR t
ENCODING 116
SWIDTH 437 0
DWIDTH 9 0
BBX 7 13 2 0
BITMAP
3C
38
FE
FE
78
70
70
70
E0
E0
F4
FC
78
ENDCHAR
STARTCHAR u
ENCODING 117
SWIDTH 675 0
DWIDTH 13 0
BBX 12 11 2 0
BITMAP
38F0
38F0
30F0
70E0
71E0
73E0
73E0
75E0
FDC0
FBC0
73C0
ENDCHAR
STARTCHAR v
ENCODING 118
SWIDTH 630 0
DWIDTH 13 0
BBX 12 11 2 0
BITMAP
F070
F060
F0C0
70C0
7980
7B80
7B00
7F00
7E00
3C00
3C00
ENDCHAR
STARTCHAR w
ENCODING 119
SWIDTH 878 0
DWIDTH 18 0
BBX 17 11 3 0
BITMAP
C0C380
C1E300
C1E700
E2E600
E26E00
E46C00
E47C00
E87800
F87800
F07000
F07000
ENDCHAR
STARTCHAR x
ENCODING 120
SWIDTH 563 0
DWIDTH 11 0
BBX 13 11 0 0
BITMAP
3E38
1E60
1EE0
0FC0
0F80
0780
0F80
1FC0
3BC0
33C0
E1E0
ENDCHAR
STARTCHAR y
ENCODING 121
SWIDTH 633 0
DWIDTH 13 0
BBX 14 15 1 -4
BITMAP
3C0C
3C18
3C30
3C20
3C60
1EC0
1E80
1F80
1F00
1E00
0E00
0C00
1800
3800
F000
ENDCHAR
STARTCHAR z
ENCODING 122
SWIDTH 630 0
DWIDTH 13 0
BBX 12 11 1 0
BITMAP
3FF0
3FE0
00C0
0180
0300
0600
0C00
1800
3000
7FE0
FFE0
ENDCHAR
STARTCHAR braceleft
ENCODING 123
SWIDTH 386 0
DWIDTH 8 0
BBX 8 17 2 -3
BITMAP
0F
1F
1E
1E
1E
0C
0C
78
60
F8
38
78
78
F0
F0
F8
70
ENDCHAR
STARTCHAR bar
ENCODING 124
SWIDTH 259 0
DWIDTH 5 0
BBX 6 17 1 -3
BITMAP
04
0C
08
08
08
10
10
10
30
20
20
20
40
40
40
C0
80
ENDCHAR
STARTCHAR braceright
ENCODING 125
SWIDTH 386 0
DWIDTH 8 0
BBX 8 17 1 -3
BITMAP
0E
1F
0F
0F
1E
1E
1C
1F
06
1E
30
30
78
78
78
F8
F0
ENDCHAR
STARTCHAR asciitilde
ENCODING 126
SWIDTH 687 0
DWIDTH 14 0
BBX 12 5 2 3
BITMAP
3830
7C30
4F60
C3E0
81C0
ENDCHAR
STARTCHAR space
ENCODING 160
SWIDTH 343 0
DWIDTH 7 0
BBX 1 1 0 0
BITMAP
00
ENDCHAR
STARTCHAR exclamdown
ENCODING 161
SWIDTH 343 0
DWIDTH 7 0
BBX 7 15 1 -4
BITMAP
1E
3E
00
00
18
38
38
38
38
78
78
78
F0
F0
F0
ENDCHAR
STARTCHAR cent
ENCODING 162
SWIDTH 687 0
DWIDTH 14 0
BBX 10 14 3 0
BITMAP
0380
0300
0FC0
1FC0
3040
7000
E000
E000
E000
E180
FF80
7F80
1800
1800
ENDCHAR
STARTCHAR sterling
ENCODING 163
SWIDTH 687 0
DWIDTH 14 0
BBX 13 14 2 0
BITMAP
01F8
07F8
0788
0F00
0F00
0F00
3FC0
3F80
1E00
1E00
1C00
3800
FFE0
FFC0
ENDCHAR
STARTCHAR currency
ENCODING 164
SWIDTH 687 0
DWIDTH 14 0
BBX 16 14 0 0
BITMAP
0001
1003
09CC
0FF8
0630
0C30
0810
0C30
0C70
0FE0
1FF0
3010
C008
8000
ENDCHAR
STARTCHAR yen
ENCODING 165
SWIDTH 687 0
DWIDTH 14 0
BBX 12 14 3 0
BITMAP
7030
7060
38C0
3980
1F00
1E00
7F80
7F80
1E00
FF80
FF80
3C00
3C00
3C00
ENDCHAR
STARTCHAR brokenbar
ENCODING 166
SWIDTH 259 0
DWIDTH 5 0
BBX 6 17 1 -3
BITMAP
04
0C
08
08
08
08
18
00
00
00
60
40
40
40
40
C0
80
ENDCHAR
STARTCHAR section
ENCODING 167
SWIDTH 687 0
DWIDTH 14 0
BBX 12 18 2 -4
BITMAP
07F0
1FF0
1C30
3C00
3F00
1F80
1FE0
33E0
20E0
7060
7E40
3FC0
1FC0
07C0
03C0
C3C0
FF80
FE00
ENDCHAR
STARTCHAR dieresis
ENCODING 168
SWIDTH 663 0
DWIDTH 13 0
BBX 7 2 6 12
BITMAP
EE
EE
ENDCHAR
STARTCHAR copyright
ENCODING 169
SWIDTH 834 0
DWIDTH 17 0
BBX 13 14 3 0
BITMAP
0F80
1040
2020
47F0
8C28
9008
9008
B008
9008
9008
4FD0
2020
1040
0F80
ENDCHAR
STARTCHAR ordfeminine
ENCODING 170
SWIDTH 539 0
DWIDTH 11 0
BBX 10 7 3 7
BITMAP
1FC0
3FC0
7380
E780
CF80
FB80
7780
ENDCHAR
STARTCHAR guillemotleft
ENCODING 171
SWIDTH 633 0
DWIDTH 13 0
BBX 12 9 2 1
BITMAP
0420
0E70
1CE0
39C0
F780
7380
39C0
39C0
1080
ENDCHAR
STARTCHAR logicalnot
ENCODING 172
SWIDTH 687 0
DWIDTH 14 0
BBX 12 8 2 2
BITMAP
FFF0
FFF0
0070
0060
0060
0060
0060
0060
ENDCHAR
STARTCHAR hyphen
ENCODING 173
SWIDTH 289 0
DWIDTH 6 0
BBX 5 2 2 6
BITMAP
F8
F8
ENDCHAR
STARTCHAR registered
ENCODING 174
SWIDTH 691 0
DWIDTH 14 0
BBX 8 10 5 4
BITMAP
3C
42
9F
9B
BB
BD
A5
A3
42
3C
ENDCHAR
STARTCHAR macron
ENCODING 175
SWIDTH 663 0
DWIDTH 13 0
BBX 7 2 6 12
BITMAP
FE
FE
ENDCHAR
STARTCHAR degree
ENCODING 176
SWIDTH 241 0
DWIDTH 5 0
BBX 1 3 4 11
BITMAP
80
80
80
ENDCHAR
STARTCHAR plusminus
ENCODING 177
SWIDTH 687 0
DWIDTH 14 0
BBX 13 11 1 0
BITMAP
0080
0080
0100
3FF8
7FF8
0100
0200
0600
0000
FFF0
FFE0
ENDCHAR
STARTCHAR twosuperior
ENCODING 178
SWIDTH 539 0
DWIDTH 8 0
BBX 8 9 -10 5
BITMAP
3E
23
03
06
0C
18
20
60
FE
ENDCHAR
STARTCHAR threesuperior
ENCODING 179
SWIDTH 539 0
DWIDTH 8 0
BBX 7 9 -11 5
BITMAP
7C
06
06
0C
78
0C
0C
0C
F8
ENDCHAR
STARTCHAR acute
ENCODING 180
SWIDTH 663 0
DWIDTH 13 0
BBX 6 2 7 12
BITMAP
3C
E0
ENDCHAR
STARTCHAR mu
ENCODING 181
SWIDTH 681 0
DWIDTH 14 0
BBX 13 14 1 -3
BITMAP
1C78
3C78
3C78
3CF0
3CF0
38F0
7BF0
7AF0
7CE0
7DE0
79E0
F000
F000
F000
ENDCHAR
STARTCHAR paragraph
ENCODING 182
SWIDTH 687 0
DWIDTH 14 0
BBX 9 17 4 -3
BITMAP
7F80
FD80
F900
FB00
FB00
FB00
7300
1200
1200
3200
2200
2600
2400
2400
4400
4400
4400
ENDCHAR
STARTCHAR periodcentered
ENCODING 183
SWIDTH 343 0
DWIDTH 14 0
BBX 3 2 7 6
BITMAP
E0
E0
ENDCHAR
STARTCHAR cedilla
ENCODING 184
SWIDTH 663 0
DWIDTH 13 0
BBX 4 5 4 -4
BITMAP
30
60
10
10
E0
ENDCHAR
STARTCHAR onesuperior
ENCODING 185
SWIDTH 539 0
DWIDTH 8 0
BBX 4 9 -13 5
BITMAP
F0
70
70
60
60
60
E0
E0
C0
ENDCHAR
STARTCHAR ordmasculine
ENCODING 186
SWIDTH 539 0
DWIDTH 11 0
BBX 10 7 3 7
BITMAP
0F80
3FC0
71C0
E1C0
E380
FF00
7C00
ENDCHAR
STARTCHAR guillemotright
ENCODING 187
SWIDTH 633 0
DWIDTH 13 0
BBX 12 9 1 1
BITMAP
1080
39C0
39C0
1CE0
1EF0
39C0
7380
E700
4200
ENDCHAR
STARTCHAR onequarter
ENCODING 188
SWIDTH 1089 0
DWIDTH 19 0
BBX 16 14 7 0
BITMAP
F007
700C
701C
6038
6070
60E3
E1C7
E38B
C71E
0E36
1C26
387F
3006
E00C
ENDCHAR
STARTCHAR onehalf
ENCODING 189
SWIDTH 1089 0
DWIDTH 19 0
BBX 17 14 7 0
BITMAP
F00700
700C00
701C00
603800
607000
60FF00
E1D180
E38180
C70300
0E0600
1C0C00
381000
303000
E07F00
ENDCHAR
STARTCHAR threequarters
ENCODING 190
SWIDTH 1149 0
DWIDTH 19 0
BBX 17 14 8 0
BITMAP
7C0380
060600
060E00
0C1C00
783800
0C7180
0CE380
0DC580
FB8F00
071B00
0E1300
1C3F80
180300
700600
ENDCHAR
STARTCHAR questiondown
ENCODING 191
SWIDTH 539 0
DWIDTH 11 0
BBX 10 15 0 -4
BITMAP
03C0
07C0
0000
0000
0000
0780
0F00
1E00
3800
7000
E000
E000
F040
7FC0
3F80
ENDCHAR
STARTCHAR Agrave
ENCODING 192
SWIDTH 771 0
DWIDTH 15 0
BBX 14 17 1 0
BITMAP
00F0
0038
0000
00E0
01F0
01F0
03F0
0270
0670
0C78
0C78
1FF8
1FF8
3038
203C
603C
E03C
ENDCHAR
STARTCHAR Aacute
ENCODING 193
SWIDTH 771 0
DWIDTH 15 0
BBX 14 17 1 0
BITMAP
003C
00E0
0000
00E0
01F0
01F0
03F0
0270
0670
0C78
0C78
1FF8
1FF8
3038
203C
603C
E03C
ENDCHAR
STARTCHAR Acircumflex
ENCODING 194
SWIDTH 771 0
DWIDTH 15 0
BBX 14 17 1 0
BITMAP
00F0
03B8
0000
00E0
01F0
01F0
03F0
0270
0670
0C78
0C78
1FF8
1FF8
3038
203C
603C
E03C
ENDCHAR
STARTCHAR Atilde
ENCODING 195
SWIDTH 771 0
DWIDTH 15 0
BBX 14 17 1 0
BITMAP
01FC
03F8
0000
00E0
01F0
01F0
03F0
0270
0670
0C78
0C78
1FF8
1FF8
3038
203C
603C
E03C
ENDCHAR
STARTCHAR Adieresis
ENCODING 196
SWIDTH 771 0
DWIDTH 15 0
BBX 14 17 1 0
BITMAP
01DC
01DC
0000
00E0
01F0
01F0
03F0
0270
0670
0C78
0C78
1FF8
1FF8
3038
203C
603C
E03C
ENDCHAR
STARTCHAR Aring
ENCODING 197
SWIDTH 771 0
DWIDTH 15 0
BBX 14 17 1 0
BITMAP
0070
0070
0000
00E0
01F0
01F0
03F0
0270
0670
0C78
0C78
1FF8
1FF8
3038
203C
603C
E03C
ENDCHAR
STARTCHAR AE
ENCODING 198
SWIDTH 1004 0
DWIDTH 20 0
BBX 21 14 0 0
BITMAP
001FF8
003FF8
007E00
007C00
00DC00
01BC00
03BFE0
073FC0
063800
0FF800
1FF800
387800
307FE0
E07FE0
ENDCHAR
STARTCHAR Ccedilla
ENCODING 199
SWIDTH 737 0
DWIDTH 15 0
BBX 15 18 2 -4
BITMAP
01FE
07FE
1E06
3C00
7800
7000
E000
E000
E000
E000
F000
7818
7FF8
1FE0
0C00
0200
0200
1C00
ENDCHAR
STARTCHAR Egrave
ENCODING 200
SWIDTH 642 0
DWIDTH 13 0
BBX 13 17 2 0
BITMAP
0780
01C0
0000
1FF8
1FF8
3C00
3C00
3C00
3C00
3FE0
7FC0
7800
7800
7800
7800
FFE0
FFE0
ENDCHAR
STARTCHAR Eacute
ENCODING 201
SWIDTH 642 0
DWIDTH 13 0
BBX 13 17 2 0
BITMAP
00F0
0380
0000
1FF8
1FF8
3C00
3C00
3C00
3C00
3FE0
7FC0
7800
7800
7800
7800
FFE0
FFE0
ENDCHAR
STARTCHAR Ecircumflex
ENCODING 202
SWIDTH 642 0
DWIDTH 13 0
BBX 13 17 2 0
BITMAP
03C0
0EE0
0000
1FF8
1FF8
3C00
3C00
3C00
3C00
3FE0
7FC0
7800
7800
7800
7800
FFE0
FFE0
ENDCHAR
STARTCHAR Edieresis
ENCODING 203
SWIDTH 642 0
DWIDTH 13 0
BBX 13 17 2 0
BITMAP
0770
0770
0000
1FF8
1FF8
3C00
3C00
3C00
3C00
3FE0
7FC0
7800
7800
7800
7800
FFE0
FFE0
ENDCHAR
STARTCHAR Igrave
ENCODING 204
SWIDTH 361 0
DWIDTH 7 0
BBX 8 17 2 0
BITMAP
1E
07
00
1E
1E
3C
3C
3C
3C
3C
78
78
78
78
78
F0
F0
ENDCHAR
STARTCHAR Iacute
ENCODING 205
SWIDTH 361 0
DWIDTH 7 0
BBX 9 17 2 0
BITMAP
0780
1C00
0000
1E00
1E00
3C00
3C00
3C00
3C00
3C00
7800
7800
7800
7800
7800
F000
F000
ENDCHAR
STARTCHAR Icircumflex
ENCODING 206
SWIDTH 361 0
DWIDTH 7 0
BBX 8 17 2 0
BITMAP
1E
77
00
1E
1E
3C
3C
3C
3C
3C
78
78
78
78
78
F0
F0
ENDCHAR
STARTCHAR Idieresis
ENCODING 207
SWIDTH 361 0
DWIDTH 7 0
BBX 9 17 2 0
BITMAP
3B80
3B80
0000
1E00
1E00
3C00
3C00
3C00
3C00
3C00
7800
7800
7800
7800
7800
F000
F000
ENDCHAR
STARTCHAR Eth
ENCODING 208
SWIDTH 822 0
DWIDTH 16 0
BBX 16 14 1 0
BITMAP
1FFC
1FFE
1F0F
1E07
1E07
3E07
FFC7
FF87
3C0E
380E
781C
7878
7FF0
7FC0
ENDCHAR
STARTCHAR Ntilde
ENCODING 209
SWIDTH 789 0
DWIDTH 16 0
BBX 15 17 2 0
BITMAP
03F8
07F0
0000
1C0E
1C0E
3E0C
3E1C
3F1C
3F1C
339C
7398
71F8
71F8
70F8
60F8
E070
E070
ENDCHAR
STARTCHAR Ograve
ENCODING 210
SWIDTH 855 0
DWIDTH 17 0
BBX 14 17 3 0
BITMAP
03C0
00E0
0000
03E0
0FF8
1C38
381C
701C
701C
E01C
E01C
E038
E038
F070
70E0
7FC0
1F00
ENDCHAR
STARTCHAR Oacute
ENCODING 211
SWIDTH 855 0
DWIDTH 17 0
BBX 14 17 3 0
BITMAP
00F0
0380
0000
03E0
0FF8
1C38
381C
701C
701C
E01C
E01C
E038
E038
F070
70E0
7FC0
1F00
ENDCHAR
STARTCHAR Ocircumflex
ENCODING 212
SWIDTH 855 0
DWIDTH 17 0
BBX 14 17 3 0
BITMAP
01E0
0770
0000
03E0
0FF8
1C38
381C
701C
701C
E01C
E01C
E038
E038
F070
70E0
7FC0
1F00
ENDCHAR
STARTCHAR Otilde
ENCODING 213
SWIDTH 855 0
DWIDTH 17 0
BBX 14 17 3 0
BITMAP
03F8
07F0
0000
03E0
0FF8
1C38
381C
701C
701C
E01C
E01C
E038
E038
F070
70E0
7FC0
1F00
ENDCHAR
STARTCHAR Odieresis
ENCODING 214
SWIDTH 855 0
DWIDTH 17 0
BBX 14 17 3 0
BITMAP
0770
0770
0000
03E0
0FF8
1C38
381C
701C
701C
E01C
E01C
E038
E038
F070
70E0
7FC0
1F00
ENDCHAR
STARTCHAR multiply
ENCODING 215
SWIDTH 687 0
DWIDTH 14 0
BBX 13 11 2 0
BITMAP
1008
3018
1860
0CC0
0580
0200
0D00
1980
30C0
C060
8040
ENDCHAR
STARTCHAR Oslash
ENCODING 216
SWIDTH 855 0
DWIDTH 17 0
BBX 17 14 4 0
BITMAP
01F180
07FF00
0E1E00
1C1E00
383E00
386E00
70CE00
718E00
731C00
761C00
7C3800
387000
7FE000
CF8000
ENDCHAR
STARTCHAR Ugrave
ENCODING 217
SWIDTH 759 0
DWIDTH 15 0
BBX 14 17 3 0
BITMAP
03C0
00E0
0000
3C1C
383C
7838
7838
7038
7038
7078
E070
E070
E070
E0F0
F0E0
7FC0
1F80
ENDCHAR
STARTCHAR Uacute
ENCODING 218
SWIDTH 759 0
DWIDTH 15 0
BBX 14 17 3 0
BITMAP
00F0
0380
0000
3C1C
383C
7838
7838
7038
7038
7078
E070
E070
E070
E0F0
F0E0
7FC0
1F80
ENDCHAR
STARTCHAR Ucircumflex
ENCODING 219
SWIDTH 759 0
DWIDTH 15 0
BBX 14 17 3 0
BITMAP
01E0
0770
0000
3C1C
383C
7838
7838
7038
7038
7078
E070
E070
E070
E0F0
F0E0
7FC0
1F80
ENDCHAR
STARTCHAR Udieresis
ENCODING 220
SWIDTH 759 0
DWIDTH 15 0
BBX 14 17 3 0
BITMAP
0770
0770
0000
3C1C
383C
7838
7838
7038
7038
7078
E070
E070
E070
E0F0
F0E0
7FC0
1F80
ENDCHAR
STARTCHAR Yacute
ENCODING 221
SWIDTH 681 0
DWIDTH 14 0
BBX 12 17 2 0
BITMAP
03C0
0E00
0000
E070
E0E0
61C0
7380
7300
3600
3E00
3C00
3C00
3800
7800
7800
7800
7800
ENDCHAR
STARTCHAR Thorn
ENCODING 222
SWIDTH 645 0
DWIDTH 13 0
BBX 12 14 2 0
BITMAP
1C00
1C00
3C00
3FE0
3FF0
3870
3870
7870
78E0
7FC0
7F00
7000
F000
F000
ENDCHAR
STARTCHAR germandbls
ENCODING 223
SWIDTH 708 0
DWIDTH 14 0
BBX 13 18 1 -4
BITMAP
03E0
0FF0
0E70
1E70
1EE0
1CC0
1DC0
3DE0
3CF0
3878
3838
7A38
7BF0
7BE0
7000
7000
F000
F000
ENDCHAR
STARTCHAR agrave
ENCODING 224
SWIDTH 681 0
DWIDTH 14 0
BBX 13 14 1 0
BITMAP
03C0
00E0
0000
07F8
0FF8
1C78
30F0
70F0
61F0
E2F0
E6F0
FDE0
F9E0
71E0
ENDCHAR
STARTCHAR aacute
ENCODING 225
SWIDTH 681 0
DWIDTH 14 0
BBX 13 14 1 0
BITMAP
00F0
0380
0000
07F8
0FF8
1C78
30F0
70F0
61F0
E2F0
E6F0
FDE0
F9E0
71E0
ENDCHAR
STARTCHAR acircumflex
ENCODING 226
SWIDTH 681 0
DWIDTH 14 0
BBX 13 14 1 0
BITMAP
01E0
0770
0000
07F8
0FF8
1C78
30F0
70F0
61F0
E2F0
E6F0
FDE0
F9E0
71E0
ENDCHAR
STARTCHAR atilde
ENCODING 227
SWIDTH 681 0
DWIDTH 14 0
BBX 13 14 1 0
BITMAP
03F8
07F0
0000
07F8
0FF8
1C78
30F0
70F0
61F0
E2F0
E6F0
FDE0
F9E0
71E0
ENDCHAR
STARTCHAR adieresis
ENCODING 228
SWIDTH 681 0
DWIDTH 14 0
BBX 13 14 1 0
BITMAP
0770
0770
0000
07F8
0FF8
1C78
30F0
70F0
61F0
E2F0
E6F0
FDE0
F9E0
71E0
ENDCHAR
STARTCHAR aring
ENCODING 229
SWIDTH 681 0
DWIDTH 14 0
BBX 13 14 1 0
BITMAP
01C0
01C0
0000
07F8
0FF8
1C78
30F0
70F0
61F0
E2F0
E6F0
FDE0
F9E0
71E0
ENDCHAR
STARTCHAR ae
ENCODING 230
SWIDTH 987 0
DWIDTH 20 0
BBX 18 11 2 0
BITMAP
07FF80
1FFFC0
38F9C0
30F1C0
70F380
61FF00
E2FC00
E6E040
FCF1C0
F8FFC0
707E00
ENDCHAR
STARTCHAR ccedilla
ENCODING 231
SWIDTH 548 0
DWIDTH 11 0
BBX 9 15 2 -4
BITMAP
0780
1F80
3880
7000
7000
E000
E000
E100
E100
7F00
3E00
3000
0800
0800
7000
ENDCHAR
STARTCHAR egrave
ENCODING 232
SWIDTH 612 0
DWIDTH 12 0
BBX 11 14 1 0
BITMAP
0780
01C0
0000
07C0
1FE0
3CE0
78E0
71C0
FF80
FE00
F020
F8E0
7FE0
3F00
ENDCHAR
STARTCHAR eacute
ENCODING 233
SWIDTH 612 0
DWIDTH 12 0
BBX 11 14 1 0
BITMAP
01E0
0700
0000
07C0
1FE0
3CE0
78E0
71C0
FF80
FE00
F020
F8E0
7FE0
3F00
ENDCHAR
STARTCHAR ecircumflex
ENCODING 234
SWIDTH 612 0
DWIDTH 12 0
BBX 11 14 1 0
BITMAP
03C0
0EE0
0000
07C0
1FE0
3CE0
78E0
71C0
FF80
FE00
F020
F8E0
7FE0
3F00
ENDCHAR
STARTCHAR edieresis
ENCODING 235
SWIDTH 612 0
DWIDTH 12 0
BBX 11 14 1 0
BITMAP
0EE0
0EE0
0000
07C0
1FE0
3CE0
78E0
71C0
FF80
FE00
F020
F8E0
7FE0
3F00
ENDCHAR
STARTCHAR igrave
ENCODING 236
SWIDTH 343 0
DWIDTH 7 0
BBX 8 14 2 0
BITMAP
1E
07
00
3C
3C
3C
78
78
78
78
78
F0
F0
F0
ENDCHAR
STARTCHAR iacute
ENCODING 237
SWIDTH 343 0
DWIDTH 7 0
BBX 9 14 2 0
BITMAP
0780
1C00
0000
3C00
3C00
3C00
7800
7800
7800
7800
7800
F000
F000
F000
ENDCHAR
STARTCHAR icircumflex
ENCODING 238
SWIDTH 343 0
DWIDTH 7 0
BBX 8 14 2 0
BITMAP
1E
77
00
3C
3C
3C
78
78
78
78
78
F0
F0
F0
ENDCHAR
STARTCHAR idieresis
ENCODING 239
SWIDTH 343 0
DWIDTH 7 0
BBX 9 14 2 0
BITMAP
3B80
3B80
0000
3C00
3C00
3C00
7800
7800
7800
7800
7800
F000
F000
F000
ENDCHAR
STARTCHAR eth
ENCODING 240
SWIDTH 663 0
DWIDTH 13 0
BBX 10 18 3 0
BITMAP
0100
0380
0300
0600
3F00
3F80
1380
31C0
2FC0
1FC0
39C0
71C0
E1C0
E180
E180
F300
7E00
3C00
ENDCHAR
STARTCHAR ntilde
ENCODING 241
SWIDTH 675 0
DWIDTH 13 0
BBX 12 14 2 0
BITMAP
07F0
0FE0
0000
3CE0
3DF0
3BF0
7AE0
7CE0
7CE0
78E0
70E0
F0C0
F1C0
F1C0
ENDCHAR
STARTCHAR ograve
ENCODING 242
SWIDTH 663 0
DWIDTH 13 0
BBX 10 14 3 0
BITMAP
0780
01C0
0000
0F80
1FC0
39C0
71C0
61C0
E1C0
E1C0
E180
E380
7F00
3C00
ENDCHAR
STARTCHAR oacute
ENCODING 243
SWIDTH 663 0
DWIDTH 13 0
BBX 11 14 3 0
BITMAP
01E0
0700
0000
0F80
1FC0
39C0
71C0
61C0
E1C0
E1C0
E180
E380
7F00
3C00
ENDCHAR
STARTCHAR ocircumflex
ENCODING 244
SWIDTH 663 0
DWIDTH 13 0
BBX 10 14 3 0
BITMAP
0780
1DC0
0000
0F80
1FC0
39C0
71C0
61C0
E1C0
E1C0
E180
E380
7F00
3C00
ENDCHAR
STARTCHAR otilde
ENCODING 245
SWIDTH 663 0
DWIDTH 13 0
BBX 11 14 3 0
BITMAP
0FE0
1FC0
0000
0F80
1FC0
39C0
71C0
61C0
E1C0
E1C0
E180
E380
7F00
3C00
ENDCHAR
STARTCHAR odieresis
ENCODING 246
SWIDTH 663 0
DWIDTH 13 0
BBX 11 14 3 0
BITMAP
0EE0
0EE0
0000
0F80
1FC0
39C0
71C0
61C0
E1C0
E1C0
E180
E380
7F00
3C00
ENDCHAR
STARTCHAR divide
ENCODING 247
SWIDTH 687 0
DWIDTH 14 0
BBX 12 11 2 0
BITMAP
0380
0700
0000
0000
FFF0
FFF0
0000
0000
0000
0E00
1C00
ENDCHAR
STARTCHAR oslash
ENCODING 248
SWIDTH 663 0
DWIDTH 13 0
BBX 12 11 4 0
BITMAP
07F0
0FE0
1CE0
39E0
33E0
76E0
7CE0
78C0
71C0
7F80
DE00
ENDCHAR
STARTCHAR ugrave
ENCODING 249
SWIDTH 675 0
DWIDTH 13 0
BBX 12 14 2 0
BITMAP
0780
01C0
0000
38F0
38F0
30F0
70E0
71E0
73E0
73E0
75E0
FDC0
FBC0
73C0
ENDCHAR
STARTCHAR uacute
ENCODING 250
SWIDTH 675 0
DWIDTH 13 0
BBX 12 14 2 0
BITMAP
01E0
0700
0000
38F0
38F0
30F0
70E0
71E0
73E0
73E0
75E0
FDC0
FBC0
73C0
ENDCHAR
STARTCHAR ucircumflex
ENCODING 251
SWIDTH 675 0
DWIDTH 13 0
BBX 12 14 2 0
BITMAP
03C0
0EE0
0000
38F0
38F0
30F0
70E0
71E0
73E0
73E0
75E0
FDC0
FBC0
73C0
ENDCHAR
STARTCHAR udieresis
ENCODING 252
SWIDTH 675 0
DWIDTH 13 0
BBX 12 14 2 0
BITMAP
0EE0
0EE0
0000
38F0
38F0
30F0
70E0
71E0
73E0
73E0
75E0
FDC0
FBC0
73C0
ENDCHAR
STARTCHAR yacute
ENCODING 253
SWIDTH 633 0
DWIDTH 13 0
BBX 14 18 1 -4
BITMAP
00F0
0380
0000
3C0C
3C18
3C30
3C20
3C60
1EC0
1E80
1F80
1F00
1E00
0E00
0C00
1800
3800
F000
ENDCHAR
STARTCHAR thorn
ENCODING 254
SWIDTH 681 0
DWIDTH 14 0
BBX 13 18 1 -4
BITMAP
1F00
1F00
1F00
1E30
1E78
3EF8
3FB8
3D38
3E30
3C70
7C60
7CE0
7FC0
7F00
7000
F000
F000
F000
ENDCHAR
STARTCHAR ydieresis
ENCODING 255
SWIDTH 633 0
DWIDTH 13 0
BBX 14 18 1 -4
BITMAP
0770
0770
0000
3C0C
3C18
3C30
3C20
3C60
1EC0
1E80
1F80
1F00
1E00
0E00
0C00
1800
3800
F000
ENDCHAR
STARTCHAR Amacron
ENCODING 256
SWIDTH 771 0
DWIDTH 15 0
BBX 14 17 1 0
BITMAP
07F0
07F0
0000
00E0
01F0
01F0
03F0
0270
0670
0C78
0C78
1FF8
1FF8
3038
203C
603C
E03C
ENDCHAR
STARTCHAR amacron
ENCODING 257
SWIDTH 681 0
DWIDTH 14 0
BBX 13 14 1 0
BITMAP
0FE0
0FE0
0000
07F8
0FF8
1C78
30F0
70F0
61F0
E2F0
E6F0
FDE0
F9E0
71E0
ENDCHAR
STARTCHAR Abreve
ENCODING 258
SWIDTH 771 0
DWIDTH 15 0
BBX 14 17 1 0
BITMAP
0770
03C0
0000
00E0
01F0
01F0
03F0
0270
0670
0C78
0C78
1FF8
1FF8
3038
203C
603C
E03C
ENDCHAR
STARTCHAR abreve
ENCODING 259
SWIDTH 681 0
DWIDTH 14 0
BBX 13 14 1 0
BITMAP
0770
03C0
0000
07F8
0FF8
1C78
30F0
70F0
61F0
E2F0
E6F0
FDE0
F9E0
71E0
ENDCHAR
STARTCHAR Aogonek
ENCODING 260
SWIDTH 771 0
DWIDTH 15 0
BBX 14 17 1 -3
BITMAP
00E0
01F0
01F0
03F0
0270
0670
0C78
0C78
1FF8
1FF8
3038
203C
603C
E03C
0000
0180
03C0
ENDCHAR
STARTCHAR aogonek
ENCODING 261
SWIDTH 681 0
DWIDTH 14 0
BBX 13 14 1 -3
BITMAP
07F8
0FF8
1C78
30F0
70F0
61F0
E2F0
E6F0
FDE0
F9E0
71E0
0000
0600
0F00
ENDCHAR
STARTCHAR Cacute
ENCODING 262
SWIDTH 737 0
DWIDTH 15 0
BBX 15 17 2 0
BITMAP
0078
01C0
0000
01FE
07FE
1E06
3C00
7800
7000
E000
E000
E000
E000
F000
7818
7FF8
1FE0
ENDCHAR
STARTCHAR cacute
ENCODING 263
SWIDTH 548 0
DWIDTH 11 0
BBX 9 14 2 0
BITMAP
0780
1C00
0000
0780
1F80
3880
7000
7000
E000
E000
E100
E100
7F00
3E00
ENDCHAR
STARTCHAR Ccircumflex
ENCODING 264
SWIDTH 737 0
DWIDTH 15 0
BBX 15 17 2 0
BITMAP
01E0
0770
0000
01FE
07FE
1E06
3C00
7800
7000
E000
E000
E000
E000
F000
7818
7FF8
1FE0
ENDCHAR
STARTCHAR ccircumflex
ENCODING 265
SWIDTH 548 0
DWIDTH 11 0
BBX 9 14 2 0
BITMAP
0F00
3B80
0000
0780
1F80
3880
7000
7000
E000
E000
E100
E100
7F00
3E00
ENDCHAR
STARTCHAR Cdotaccent
ENCODING 266
SWIDTH 737 0
DWIDTH 15 0
BBX 15 17 2 0
BITMAP
01C0
01C0
0000
01FE
07FE
1E06
3C00
7800
7000
E000
E000
E000
E000
F000
7818
7FF8
1FE0
ENDCHAR
STARTCHAR cdotaccent
ENCODING 267
SWIDTH 548 0
DWIDTH 11 0
BBX 9 14 2 0
BITMAP
0E00
0E00
0000
0780
1F80
3880
7000
7000
E000
E000
E100
E100
7F00
3E00
ENDCHAR
STARTCHAR Ccaron
ENCODING 268
SWIDTH 737 0
DWIDTH 15 0
BBX 15 17 2 0
BITMAP
0770
03C0
0000
01FE
07FE
1E06
3C00
7800
7000
E000
E000
E000
E000
F000
7818
7FF8
1FE0
ENDCHAR
STARTCHAR ccaron
ENCODING 269
SWIDTH 548 0
DWIDTH 11 0
BBX 9 14 2 0
BITMAP
3B80
1E00
0000
0780
1F80
3880
7000
7000
E000
E000
E100
E100
7F00
3E00
ENDCHAR
STARTCHAR Dcaron
ENCODING 270
SWIDTH 822 0
DWIDTH 16 0
BBX 16 17 2 0
BITMAP
0770
03C0
0000
1FFC
1FFE
3E1F
3E07
3E07
3C07
3C07
7C0F
780E
781E
783C
7878
FFF0
FFC0
ENDCHAR
STARTCHAR dcaron
ENCODING 271
SWIDTH 912 0
DWIDTH 18 0
BBX 20 14 1 0
BITMAP
003CF0
003CF0
0078F0
07F860
0FF860
1C79C0
30F800
70F000
61F000
E2F000
E6F000
FDE000
F9E000
71E000
ENDCHAR
STARTCHAR Dcroat
ENCODING 272
SWIDTH 822 0
DWIDTH 16 0
BBX 16 14 1 0
BITMAP
1FFC
1FFE
1F0F
1E07
1E07
3E07
FFC7
FF87
3C0E
380E
781C
7878
7FF0
7FC0
ENDCHAR
STARTCHAR dcroat
ENCODING 273
SWIDTH 681 0
DWIDTH 14 0
BBX 14 14 1 0
BITMAP
003C
01FC
01FC
07F8
0FF8
1C78
30F8
70F0
61F0
E2F0
E6F0
FDE0
F9E0
71E0
ENDCHAR
STARTCHAR Emacron
ENCODING 274
SWIDTH 642 0
DWIDTH 13 0
BBX 13 17 2 0
BITMAP
1FC0
1FC0
0000
1FF8
1FF8
3C00
3C00
3C00
3C00
3FE0
7FC0
7800
7800
7800
7800
FFE0
FFE0
ENDCHAR
STARTCHAR emacron
ENCODING 275
SWIDTH 612 0
DWIDTH 12 0
BBX 11 14 1 0
BITMAP
1FC0
1FC0
0000
07C0
1FE0
3CE0
78E0
71C0
FF80
FE00
F020
F8E0
7FE0
3F00
ENDCHAR
STARTCHAR Ebreve
ENCODING 276
SWIDTH 642 0
DWIDTH 13 0
BBX 13 17 2 0
BITMAP
0EE0
0780
0000
1FF8
1FF8
3C00
3C00
3C00
3C00
3FE0
7FC0
7800
7800
7800
7800
FFE0
FFE0
ENDCHAR
STARTCHAR ebreve
ENCODING 277
SWIDTH 612 0
DWIDTH 12 0
BBX 11 14 1 0
BITMAP
1DC0
0F00
0000
07C0
1FE0
3CE0
78E0
71C0
FF80
FE00
F020
F8E0
7FE0
3F00
ENDCHAR
STARTCHAR Edotaccent
ENCODING 278
SWIDTH 642 0
DWIDTH 13 0
BBX 13 17 2 0
BITMAP
0700
0700
0000
1FF8
1FF8
3C00
3C00
3C00
3C00
3FE0
7FC0
7800
7800
7800
7800
FFE0
FFE0
ENDCHAR
STARTCHAR edotaccent
ENCODING 279
SWIDTH 612 0
DWIDTH 12 0
BBX 11 14 1 0
BITMAP
0700
0700
0000
07C0
1FE0
3CE0
78E0
71C0
FF80
FE00
F020
F8E0
7FE0
3F00
ENDCHAR
STARTCHAR Eogonek
ENCODING 280
SWIDTH 642 0
DWIDTH 13 0
BBX 13 17 2 -3
BITMAP
1FF8
1FF8
3C00
3C00
3C00
3C00
3FE0
7FC0
7800
7800
7800
7800
FFE0
FFE0
0000
0C00
1E00
ENDCHAR
STARTCHAR eogonek
ENCODING 281
SWIDTH 612 0
DWIDTH 12 0
BBX 11 14 1 -3
BITMAP
07C0
1FE0
3CE0
78E0
71C0
FF80
FE00
F020
F8E0
7FE0
3F00
0000
0C00
1E00
ENDCHAR
STARTCHAR Ecaron
ENCODING 282
SWIDTH 642 0
DWIDTH 13 0
BBX 13 17 2 0
BITMAP
0EE0
0780
0000
1FF8
1FF8
3C00
3C00
3C00
3C00
3FE0
7FC0
7800
7800
7800
7800
FFE0
FFE0
ENDCHAR
STARTCHAR ecaron
ENCODING 283
SWIDTH 612 0
DWIDTH 12 0
BBX 11 14 1 0
BITMAP
1DC0
0F00
0000
07C0
1FE0
3CE0
78E0
71C0
FF80
FE00
F020
F8E0
7FE0
3F00
ENDCHAR
STARTCHAR Gcircumflex
ENCODING 284
SWIDTH 755 0
DWIDTH 15 0
BBX 15 17 2 0
BITMAP
01E0
0770
0000
01FE
07FE
1E06
3800
7000
7000
E000
E03C
E078
E078
F0F8
78F8
7FF0
1FF0
ENDCHAR
STARTCHAR gcircumflex
ENCODING 285
SWIDTH 674 0
DWIDTH 13 0
BBX 13 18 1 -4
BITMAP
03C0
0EE0
0000
03F8
0FF0
1C70
38F0
30F0
71F0
6260
6660
7CE0
7CE0
30E0
01C0
C1C0
FF80
7E00
ENDCHAR
STARTCHAR Gbreve
ENCODING 286
SWIDTH 755 0
DWIDTH 15 0
BBX 15 17 2 0
BITMAP
0770
03C0
0000
01FE
07FE
1E06
3800
7000
7000
E000
E03C
E078
E078
F0F8
78F8
7FF0
1FF0
ENDCHAR
STARTCHAR gbreve
ENCODING 287
SWIDTH 674 0
DWIDTH 13 0
BBX 13 18 1 -4
BITMAP
0EE0
0780
0000
03F8
0FF0
1C70
38F0
30F0
71F0
6260
6660
7CE0
7CE0
30E0
01C0
C1C0
FF80
7E00
ENDCHAR
STARTCHAR Gdotaccent
ENCODING 288
SWIDTH 755 0
DWIDTH 15 0
BBX 15 17 2 0
BITMAP
01C0
01C0
0000
01FE
07FE
1E06
3800
7000
7000
E000
E03C
E078
E078
F0F8
78F8
7FF0
1FF0
ENDCHAR
STARTCHAR gdotaccent
ENCODING 289
SWIDTH 674 0
DWIDTH 13 0
BBX 13 18 1 -4
BITMAP
0380
0380
0000
03F8
0FF0
1C70
38F0
30F0
71F0
6260
6660
7CE0
7CE0
30E0
01C0
C1C0
FF80
7E00
ENDCHAR
STARTCHAR Gcommaaccent
ENCODING 290
SWIDTH 755 0
DWIDTH 15 0
BBX 15 22 2 -8
BITMAP
01FE
07FE
1E06
3800
7000
7000
E000
E03C
E078
E078
F0F8
78F8
7FF0
1FF0
0000
0780
0780
0780
0700
0300
0700
0E00
ENDCHAR
STARTCHAR gcommaaccent
ENCODING 291
SWIDTH 674 0
DWIDTH 13 0
BBX 13 22 1 -4
BITMAP
01C0
0300
0380
0780
0780
0780
0000
03F8
0FF0
1C70
38F0
30F0
71F0
6260
6660
7CE0
7CE0
30E0
01C0
C1C0
FF80
7E00
ENDCHAR
STARTCHAR Hcircumflex
ENCODING 292
SWIDTH 813 0
DWIDTH 16 0
BBX 16 17 2 0
BITMAP
01E0
0770
0000
1E0F
1E0F
3C0E
3C1E
3C1E
3C1E
3FFE
7FFC
783C
783C
783C
703C
F078
F078
ENDCHAR
STARTCHAR hcircumflex
ENCODING 293
SWIDTH 675 0
DWIDTH 13 0
BBX 12 17 2 0
BITMAP
0F00
3B80
0000
1E00
1C00
3C00
3CE0
3DF0
3BF0
3BE0
7CE0
7CE0
78E0
70E0
70C0
F1C0
F1C0
ENDCHAR
STARTCHAR Hbar
ENCODING 294
SWIDTH 813 0
DWIDTH 16 0
BBX 16 14 2 0
BITMAP
1E0F
1E0F
FFFF
FFFF
3C1E
3C1E
3FFE
7FFC
783C
783C
783C
703C
F078
F078
ENDCHAR
STARTCHAR hbar
ENCODING 295
SWIDTH 675 0
DWIDTH 13 0
BBX 12 14 2 0
BITMAP
1E00
FE00
FE00
3CE0
3DF0
3BF0
3BE0
7CE0
7CE0
78E0
70E0
70C0
F1C0
F1C0
ENDCHAR
STARTCHAR Itilde
ENCODING 296
SWIDTH 361 0
DWIDTH 7 0
BBX 9 17 2 0
BITMAP
3F80
7F00
0000
1E00
1E00
3C00
3C00
3C00
3C00
3C00
7800
7800
7800
7800
7800
F000
F000
ENDCHAR
STARTCHAR itilde
ENCODING 297
SWIDTH 343 0
DWIDTH 7 0
BBX 8 14 2 0
BITMAP
7F
FE
00
3C
3C
3C
78
78
78
78
78
F0
F0
F0
ENDCHAR
STARTCHAR Imacron
ENCODING 298
SWIDTH 361 0
DWIDTH 7 0
BBX 8 17 2 0
BITMAP
7F
7F
00
1E
1E
3C
3C
3C
3C
3C
78
78
78
78
78
F0
F0
ENDCHAR
STARTCHAR imacron
ENCODING 299
SWIDTH 343 0
DWIDTH 7 0
BBX 7 14 2 0
BITMAP
FE
FE
00
3C
3C
3C
78
78
78
78
78
F0
F0
F0
ENDCHAR
STARTCHAR Ibreve
ENCODING 300
SWIDTH 361 0
DWIDTH 7 0
BBX 8 17 2 0
BITMAP
77
3C
00
1E
1E
3C
3C
3C
3C
3C
78
78
78
78
78
F0
F0
ENDCHAR
STARTCHAR ibreve
ENCODING 301
SWIDTH 343 0
DWIDTH 7 0
BBX 8 14 2 0
BITMAP
77
3C
00
3C
3C
3C
78
78
78
78
78
F0
F0
F0
ENDCHAR
STARTCHAR Iogonek
ENCODING 302
SWIDTH 361 0
DWIDTH 7 0
BBX 7 17 2 -3
BITMAP
1E
1E
3C
3C
3C
3C
3C
78
78
78
78
78
F0
F0
00
30
78
ENDCHAR
STARTCHAR iogonek
ENCODING 303
SWIDTH 343 0
DWIDTH 7 0
BBX 7 17 1 -3
BITMAP
1E
3E
00
3C
3C
3C
78
78
78
78
78
F0
F0
F0
00
30
78
ENDCHAR
STARTCHAR Idotaccent
ENCODING 304
SWIDTH 361 0
DWIDTH 7 0
BBX 7 17 2 0
BITMAP
1C
1C
00
1E
1E
3C
3C
3C
3C
3C
78
78
78
78
78
F0
F0
ENDCHAR
STARTCHAR dotlessi
ENCODING 305
SWIDTH 343 0
DWIDTH 7 0
BBX 6 11 2 0
BITMAP
3C
3C
3C
78
78
78
78
78
F0
F0
F0
ENDCHAR
STARTCHAR IJ
ENCODING 306
SWIDTH 845 0
DWIDTH 17 0
BBX 16 17 2 -3
BITMAP
1E0F
1E0F
3C0F
3C0E
3C1E
3C1E
3C1E
781E
781C
783C
783C
783C
F03C
F038
0478
07F0
07E0
ENDCHAR
STARTCHAR ij
ENCODING 307
SWIDTH 733 0
DWIDTH 15 0
BBX 17 18 1 -4
BITMAP
1E0780
3E0F80
000000
3C0600
3C0E00
3C0E00
780E00
780E00
780C00
781C00
781C00
F01C00
F01C00
F01800
003800
043000
07E000
07C000
ENDCHAR
STARTCHAR Jcircumflex
ENCODING 308
SWIDTH 502 0
DWIDTH 10 0
BBX 11 20 0 -3
BITMAP
03C0
0EE0
0000
01E0
01E0
01E0
01C0
03C0
03C0
03C0
03C0
0380
0780
0780
0780
0780
0700
8F00
FE00
FC00
ENDCHAR
STARTCHAR jcircumflex
ENCODING 309
SWIDTH 407 0
DWIDTH 8 0
BBX 12 18 -1 -4
BITMAP
03C0
0EE0
0000
00C0
01C0
01C0
01C0
01C0
0180
0380
0380
0380
0380
0300
0700
8600
FC00
F800
ENDCHAR
STARTCHAR Kcommaaccent
ENCODING 310
SWIDTH 753 0
DWIDTH 15 0
BBX 14 22 2 -8
BITMAP
1E1C
1E38
3C70
3CE0
3DC0
3D80
3B00
7F80
79C0
79C0
78E0
70E0
F070
F078
0000
0780
0780
0780
0700
0300
0700
0E00
ENDCHAR
STARTCHAR kcommaaccent
ENCODING 311
SWIDTH 666 0
DWIDTH 13 0
BBX 12 22 1 -8
BITMAP
1E00
1E00
1C00
3C30
3C60
3CC0
3880
7900
7F80
7B80
7980
71C0
F1C0
F0E0
0000
0F00
0F00
0F00
0E00
0600
0E00
1C00
ENDCHAR
STARTCHAR kgreenlandic
ENCODING 312
SWIDTH 666 0
DWIDTH 13 0
BBX 12 11 1 0
BITMAP
3C30
3C60
3CC0
3880
7900
7F80
7B80
7980
71C0
F1C0
F0E0
ENDCHAR
STARTCHAR Lacute
ENCODING 313
SWIDTH 623 0
DWIDTH 12 0
BBX 11 17 2 0
BITMAP
0780
1C00
0000
1E00
1E00
3C00
3C00
3C00
3C00
3800
7800
7800
7800
7800
7000
FFE0
FFE0
ENDCHAR
STARTCHAR lacute
ENCODING 314
SWIDTH 343 0
DWIDTH 7 0
BBX 8 17 1 0
BITMAP
0F
38
00
1E
1E
1C
3C
3C
3C
3C
78
78
78
78
70
F0
F0
ENDCHAR
STARTCHAR Lcommaaccent
ENCODING 315
SWIDTH 623 0
DWIDTH 12 0
BBX 11 22 2 -8
BITMAP
1E00
1E00
3C00
3C00
3C00
3C00
3800
7800
7800
7800
7800
7000
FFE0
FFE0
0000
1E00
1E00
1E00
1C00
0C00
1C00
3800
ENDCHAR
STARTCHAR lcommaaccent
ENCODING 316
SWIDTH 343 0
DWIDTH 7 0
BBX 7 22 1 -8
BITMAP
1E
1E
1C
3C
3C
3C
3C
78
78
78
78
70
F0
F0
00
78
78
78
70
30
70
E0
ENDCHAR
STARTCHAR Lcaron
ENCODING 317
SWIDTH 857 0
DWIDTH 16 0
BBX 17 14 2 0
BITMAP
1E0780
1E0780
3C0780
3C0300
3C0300
3C0E00
380000
780000
780000
780000
780000
700000
FFE000
FFE000
ENDCHAR
STARTCHAR lcaron
ENCODING 318
SWIDTH 591 0
DWIDTH 12 0
BBX 14 14 1 0
BITMAP
1E3C
1E3C
1C3C
3C18
3C18
3C70
3C00
7800
7800
7800
7800
7000
F000
F000
ENDCHAR
STARTCHAR Ldot
ENCODING 319
SWIDTH 935 0
DWIDTH 25 0
BBX 19 14 2 0
BITMAP
1E0000
1E0000
3C0000
3C0000
3C0000
3C0000
3800E0
7800E0
780000
780000
780000
700000
FFE000
FFE000
ENDCHAR
STARTCHAR ldot
ENCODING 320
SWIDTH 669 0
DWIDTH 21 0
BBX 16 14 1 0
BITMAP
1E00
1E00
1C00
3C00
3C00
3C00
3C07
7807
7800
7800
7800
7000
F000
F000
ENDCHAR
STARTCHAR Lslash
ENCODING 321
SWIDTH 623 0
DWIDTH 12 0
BBX 12 14 1 0
BITMAP
0F00
0F00
0E00
1E80
1F80
1F80
1E00
7C00
FC00
FC00
BC00
3C00
7FF0
7FF0
ENDCHAR
STARTCHAR lslash
ENCODING 322
SWIDTH 343 0
DWIDTH 7 0
BBX 9 14 1 0
BITMAP
0F00
0E00
0E80
1F80
1F80
1F00
3C00
FC00
FC00
BC00
3C00
3800
7800
7800
ENDCHAR
STARTCHAR Nacute
ENCODING 323
SWIDTH 789 0
DWIDTH 16 0
BBX 15 17 2 0
BITMAP
00F0
0380
0000
1C0E
1C0E
3E0C
3E1C
3F1C
3F1C
339C
7398
71F8
71F8
70F8
60F8
E070
E070
ENDCHAR
STARTCHAR nacute
ENCODING 324
SWIDTH 675 0
DWIDTH 13 0
BBX 12 14 2 0
BITMAP
01E0
0700
0000
3CE0
3DF0
3BF0
7AE0
7CE0
7CE0
78E0
70E0
F0C0
F1C0
F1C0
ENDCHAR
STARTCHAR Ncommaaccent
ENCODING 325
SWIDTH 789 0
DWIDTH 16 0
BBX 15 22 2 -8
BITMAP
1C0E
1C0E
3E0C
3E1C
3F1C
3F1C
339C
7398
71F8
71F8
70F8
60F8
E070
E070
0000
0780
0780
0780
0700
0300
0700
0E00
ENDCHAR
STARTCHAR ncommaaccent
ENCODING 326
SWIDTH 675 0
DWIDTH 13 0
BBX 12 19 2 -8
BITMAP
3CE0
3DF0
3BF0
7AE0
7CE0
7CE0
78E0
70E0
F0C0
F1C0
F1C0
0000
1E00
1E00
1E00
1C00
0C00
1C00
3800
ENDCHAR
STARTCHAR Ncaron
ENCODING 327
SWIDTH 789 0
DWIDTH 16 0
BBX 15 17 2 0
BITMAP
0770
03C0
0000
1C0E
1C0E
3E0C
3E1C
3F1C
3F1C
339C
7398
71F8
71F8
70F8
60F8
E070
E070
ENDCHAR
STARTCHAR ncaron
ENCODING 328
SWIDTH 675 0
DWIDTH 13 0
BBX 12 14 2 0
BITMAP
1DC0
0F00
0000
3CE0
3DF0
3BF0
7AE0
7CE0
7CE0
78E0
70E0
F0C0
F1C0
F1C0
ENDCHAR
STARTCHAR napostrophe
ENCODING 329
SWIDTH 927 0
DWIDTH 18 0
BBX 16 14 3 0
BITMAP
7800
7800
7800
33CE
33DF
E3BF
07AE
07CE
07CE
078E
070E
0F0C
0F1C
0F1C
ENDCHAR
STARTCHAR Eng
ENCODING 330
SWIDTH 789 0
DWIDTH 16 0
BBX 15 18 2 -4
BITMAP
1C0E
1C0E
3E0C
3E1C
3F1C
3F1C
339C
7398
71F8
71F8
70F8
60F8
E078
E070
0070
0860
0FC0
0F80
ENDCHAR
STARTCHAR eng
ENCODING 331
SWIDTH 675 0
DWIDTH 13 0
BBX 12 15 2 -4
BITMAP
3CE0
3DF0
3BF0
7AE0
7CE0
7CE0
78E0
70E0
F0E0
F0E0
F0C0
01C0
2180
3F00
3E00
ENDCHAR
STARTCHAR Omacron
ENCODING 332
SWIDTH 855 0
DWIDTH 17 0
BBX 14 17 3 0
BITMAP
0FE0
0FE0
0000
03E0
0FF8
1C38
381C
701C
701C
E01C
E01C
E038
E038
F070
70E0
7FC0
1F00
ENDCHAR
STARTCHAR omacron
ENCODING 333
SWIDTH 663 0
DWIDTH 13 0
BBX 10 14 3 0
BITMAP
3F80
3F80
0000
0F80
1FC0
39C0
71C0
61C0
E1C0
E1C0
E180
E380
7F00
3C00
ENDCHAR
STARTCHAR Obreve
ENCODING 334
SWIDTH 855 0
DWIDTH 17 0
BBX 14 17 3 0
BITMAP
0770
03C0
0000
03E0
0FF8
1C38
381C
701C
701C
E01C
E01C
E038
E038
F070
70E0
7FC0
1F00
ENDCHAR
STARTCHAR obreve
ENCODING 335
SWIDTH 663 0
DWIDTH 13 0
BBX 10 14 3 0
BITMAP
1DC0
0F00
0000
0F80
1FC0
39C0
71C0
61C0
E1C0
E1C0
E180
E380
7F00
3C00
ENDCHAR
STARTCHAR Ohungarumlaut
ENCODING 336
SWIDTH 855 0
DWIDTH 17 0
BBX 14 17 3 0
BITMAP
03F0
0DC0
0000
03E0
0FF8
1C38
381C
701C
701C
E01C
E01C
E038
E038
F070
70E0
7FC0
1F00
ENDCHAR
STARTCHAR ohungarumlaut
ENCODING 337
SWIDTH 663 0
DWIDTH 13 0
BBX 10 14 3 0
BITMAP
0FC0
3700
0000
0F80
1FC0
39C0
71C0
61C0
E1C0
E1C0
E180
E380
7F00
3C00
ENDCHAR
STARTCHAR OE
ENCODING 338
SWIDTH 1103 0
DWIDTH 22 0
BBX 22 14 2 0
BITMAP
03FFFC
0FFFFC
1C7E00
383E00
703E00
703E00
E03FF0
E07FE0
E07C00
E07C00
F07C00
70FC00
7FFFF0
1FFFF0
ENDCHAR
STARTCHAR oe
ENCODING 339
SWIDTH 1004 0
DWIDTH 20 0
BBX 19 11 1 0
BITMAP
07E7C0
1FFFE0
39FCE0
71F8E0
61F1C0
E1FF80
E1FE00
E1F020
E3F8E0
7FFFE0
3E3F00
ENDCHAR
STARTCHAR Racute
ENCODING 340
SWIDTH 708 0
DWIDTH 14 0
BBX 13 17 2 0
BITMAP
01E0
0700
0000
1FF0
1FF8
3C38
3C38
3C38
3870
3FE0
7F80
7980
79C0
71C0
70C0
F0E0
F0F0
ENDCHAR
STARTCHAR racute
ENCODING 341
SWIDTH 542 0
DWIDTH 11 0
BBX 11 14 2 0
BITMAP
03C0
0E00
0000
3C60
3DC0
3B40
7A00
7C00
7800
7800
7000
F000
F000
F000
ENDCHAR
STARTCHAR Rcommaaccent
ENCODING 342
SWIDTH 708 0
DWIDTH 14 0
BBX 13 22 2 -8
BITMAP
1FF0
1FF8
3C38
3C38
3C38
3870
3FE0
7F80
7980
79C0
71C0
70C0
F0E0
F0F0
0000
0F00
0F00
0F00
0E00
0600
0E00
1C00
ENDCHAR
STARTCHAR rcommaaccent
ENCODING 343
SWIDTH 542 0
DWIDTH 11 0
BBX 11 19 2 -8
BITMAP
3C60
3DC0
3B40
7A00
7C00
7800
7800
7000
F000
F000
F000
0000
7800
7800
7800
7000
3000
7000
E000
ENDCHAR
STARTCHAR Rcaron
ENCODING 344
SWIDTH 708 0
DWIDTH 14 0
BBX 13 17 2 0
BITMAP
0EE0
0780
0000
1FF0
1FF8
3C38
3C38
3C38
3870
3FE0
7F80
7980
79C0
71C0
70C0
F0E0
F0F0
ENDCHAR
STARTCHAR rcaron
ENCODING 345
SWIDTH 542 0
DWIDTH 11 0
BBX 11 14 2 0
BITMAP
1DC0
0F00
0000
3C60
3DC0
3B40
7A00
7C00
7800
7800
7000
F000
F000
F000
ENDCHAR
STARTCHAR Sacute
ENCODING 346
SWIDTH 639 0
DWIDTH 13 0
BBX 12 17 2 0
BITMAP
01E0
0700
0000
07F0
1FF0
3830
3800
3C00
3E00
1F80
0FC0
03E0
00E0
00E0
41C0
FF80
FE00
ENDCHAR
STARTCHAR sacute
ENCODING 347
SWIDTH 527 0
DWIDTH 11 0
BBX 10 14 1 0
BITMAP
03C0
0E00
0000
0FC0
1FC0
3C00
3C00
3E00
1F00
0F80
0780
C780
FF00
FE00
ENDCHAR
STARTCHAR Scircumflex
ENCODING 348
SWIDTH 639 0
DWIDTH 13 0
BBX 12 17 2 0
BITMAP
0780
1DC0
0000
07F0
1FF0
3830
3800
3C00
3E00
1F80
0FC0
03E0
00E0
00E0
41C0
FF80
FE00
ENDCHAR
STARTCHAR scircumflex
ENCODING 349
SWIDTH 527 0
DWIDTH 11 0
BBX 10 14 1 0
BITMAP
0F00
3B80
0000
0FC0
1FC0
3C00
3C00
3E00
1F00
0F80
0780
C780
FF00
FE00
ENDCHAR
STARTCHAR Scedilla
ENCODING 350
SWIDTH 639 0
DWIDTH 13 0
BBX 12 18 2 -4
BITMAP
07F0
1FF0
3830
3800
3C00
3E00
1F80
0FC0
03E0
00E0
00E0
41C0
FF80
FE00
0C00
0200
0200
1C00
ENDCHAR
STARTCHAR scedilla
ENCODING 351
SWIDTH 527 0
DWIDTH 11 0
BBX 10 15 1 -4
BITMAP
0FC0
1FC0
3C00
3C00
3E00
1F00
0F80
0780
C780
FF00
FE00
1800
0400
0400
3800
ENDCHAR
STARTCHAR Scaron
ENCODING 352
SWIDTH 639 0
DWIDTH 13 0
BBX 12 17 2 0
BITMAP
0770
03C0
0000
07F0
1FF0
3830
3800
3C00
3E00
1F80
0FC0
03E0
00E0
00E0
41C0
FF80
FE00
ENDCHAR
STARTCHAR scaron
ENCODING 353
SWIDTH 527 0
DWIDTH 11 0
BBX 11 14 1 0
BITMAP
0EE0
0780
0000
0FC0
1FC0
3C00
3C00
3E00
1F00
0F80
0780
C780
FF00
FE00
ENDCHAR
STARTCHAR Tcommaaccent
ENCODING 354
SWIDTH 747 0
DWIDTH 15 0
BBX 15 18 3 -4
BITMAP
FFFE
FFFE
0780
0780
0780
0700
0F00
0F00
0F00
0F00
0F00
1E00
1E00
1F00
0600
0100
0100
0E00
ENDCHAR
STARTCHAR tcommaaccent
ENCODING 355
SWIDTH 437 0
DWIDTH 9 0
BBX 7 17 2 -4
BITMAP
3C
38
FE
FE
78
70
70
70
E0
E0
F4
FC
78
30
08
08
70
ENDCHAR
STARTCHAR Tcaron
ENCODING 356
SWIDTH 747 0
DWIDTH 15 0
BBX 15 17 3 0
BITMAP
0EE0
0780
0000
FFFE
FFFE
0780
0780
0780
0700
0F00
0F00
0F00
0F00
0F00
1E00
1E00
1E00
ENDCHAR
STARTCHAR tcaron
ENCODING 357
SWIDTH 680 0
DWIDTH 14 0
BBX 15 14 2 0
BITMAP
001E
3C1E
381E
FE0C
FE0C
7838
7000
7000
7000
E000
E000
F400
FC00
7800
ENDCHAR
STARTCHAR Tbar
ENCODING 358
SWIDTH 747 0
DWIDTH 15 0
BBX 15 14 3 0
BITMAP
FFFE
FFFE
0780
0780
0780
0700
0FE0
0FE0
0F00
0F00
0F00
1E00
1E00
1E00
ENDCHAR
STARTCHAR tbar
ENCODING 359
SWIDTH 437 0
DWIDTH 9 0
BBX 7 13 2 0
BITMAP
3C
38
FE
FE
78
70
FE
FE
E0
E0
F4
FC
78
ENDCHAR
STARTCHAR Utilde
ENCODING 360
SWIDTH 759 0
DWIDTH 15 0
BBX 14 17 3 0
BITMAP
07F0
0FE0
0000
3C1C
383C
7838
7838
7038
7038
7078
E070
E070
E070
E0F0
F0E0
7FC0
1F80
ENDCHAR
STARTCHAR utilde
ENCODING 361
SWIDTH 675 0
DWIDTH 13 0
BBX 12 14 2 0
BITMAP
0FE0
1FC0
0000
38F0
38F0
30F0
70E0
71E0
73E0
73E0
75E0
FDC0
FBC0
73C0
ENDCHAR
STARTCHAR Umacron
ENCODING 362
SWIDTH 759 0
DWIDTH 15 0
BBX 14 17 3 0
BITMAP
0FE0
0FE0
0000
3C1C
383C
7838
7838
7038
7038
7078
E070
E070
E070
E0F0
F0E0
7FC0
1F80
ENDCHAR
STARTCHAR umacron
ENCODING 363
SWIDTH 675 0
DWIDTH 13 0
BBX 12 14 2 0
BITMAP
1FC0
1FC0
0000
38F0
38F0
30F0
70E0
71E0
73E0
73E0
75E0
FDC0
FBC0
73C0
ENDCHAR
STARTCHAR Ubreve
ENCODING 364
SWIDTH 759 0
DWIDTH 15 0
BBX 14 17 3 0
BITMAP
0EE0
0780
0000
3C1C
383C
7838
7838
7038
7038
7078
E070
E070
E070
E0F0
F0E0
7FC0
1F80
ENDCHAR
STARTCHAR ubreve
ENCODING 365
SWIDTH 675 0
DWIDTH 13 0
BBX 12 14 2 0
BITMAP
0EE0
0780
0000
38F0
38F0
30F0
70E0
71E0
73E0
73E0
75E0
FDC0
FBC0
73C0
ENDCHAR
STARTCHAR Uring
ENCODING 366
SWIDTH 759 0
DWIDTH 15 0
BBX 14 17 3 0
BITMAP
0380
0380
0000
3C1C
383C
7838
7838
7038
7038
7078
E070
E070
E070
E0F0
F0E0
7FC0
1F80
ENDCHAR
STARTCHAR uring
ENCODING 367
SWIDTH 675 0
DWIDTH 13 0
BBX 12 14 2 0
BITMAP
0700
0700
0000
38F0
38F0
30F0
70E0
71E0
73E0
73E0
75E0
FDC0
FBC0
73C0
ENDCHAR
STARTCHAR Uhungarumlaut
ENCODING 368
SWIDTH 759 0
DWIDTH 15 0
BBX 14 17 3 0
BITMAP
03F0
0DC0
0000
3C1C
383C
7838
7838
7038
7038
7078
E070
E070
E070
E0F0
F0E0
7FC0
1F80
ENDCHAR
STARTCHAR uhungarumlaut
ENCODING 369
SWIDTH 675 0
DWIDTH 13 0
BBX 12 14 2 0
BITMAP
03F0
0DC0
0000
38F0
38F0
30F0
70E0
71E0
73E0
73E0
75E0
FDC0
FBC0
73C0
ENDCHAR
STARTCHAR Uogonek
ENCODING 370
SWIDTH 759 0
DWIDTH 15 0
BBX 14 17 3 -3
BITMAP
3C1C
383C
7838
7838
7038
7038
7078
E070
E070
E070
E0F0
F0E0
7FC0
1F80
0000
0600
0F00
ENDCHAR
STARTCHAR uogonek
ENCODING 371
SWIDTH 675 0
DWIDTH 13 0
BBX 12 14 2 -3
BITMAP
38F0
38F0
30F0
70E0
71E0
73E0
73E0
75E0
FDC0
FBC0
73C0
0000
0C00
1E00
ENDCHAR
STARTCHAR Wcircumflex
ENCODING 372
SWIDTH 991 0
DWIDTH 20 0
BBX 17 17 4 0
BITMAP
03C000
0EE000
000000
E18180
E18100
E38300
E38200
E38600
E58400
E58C00
ED8800
E99800
E9B000
F1B000
71E000
71E000
61C000
ENDCHAR
STARTCHAR wcircumflex
ENCODING 373
SWIDTH 878 0
DWIDTH 18 0
BBX 17 14 3 0
BITMAP
01E000
077000
000000
C0C380
C1E300
C1E700
E2E600
E26E00
E46C00
E47C00
E87800
F87800
F07000
F07000
ENDCHAR
STARTCHAR Ycircumflex
ENCODING 374
SWIDTH 681 0
DWIDTH 14 0
BBX 12 17 2 0
BITMAP
0F00
3B80
0000
E070
E0E0
61C0
7380
7300
3600
3E00
3C00
3C00
3800
7800
7800
7800
7800
ENDCHAR
STARTCHAR ycircumflex
ENCODING 375
SWIDTH 633 0
DWIDTH 13 0
BBX 14 18 1 -4
BITMAP
0780
1DC0
0000
3C0C
3C18
3C30
3C20
3C60
1EC0
1E80
1F80
1F00
1E00
0E00
0C00
1800
3800
F000
ENDCHAR
STARTCHAR Ydieresis
ENCODING 376
SWIDTH 681 0
DWIDTH 14 0
BBX 12 17 2 0
BITMAP
1DC0
1DC0
0000
E070
E0E0
61C0
7380
7300
3600
3E00
3C00
3C00
3800
7800
7800
7800
7800
ENDCHAR
STARTCHAR Zacute
ENCODING 377
SWIDTH 687 0
DWIDTH 14 0
BBX 14 17 1 0
BITMAP
00F0
0380
0000
1FFC
1FFC
0078
00F0
01E0
01C0
0380
0700
0E00
1E00
3C00
7800
7FF0
FFF0
ENDCHAR
STARTCHAR zacute
ENCODING 378
SWIDTH 630 0
DWIDTH 13 0
BBX 12 14 1 0
BITMAP
01E0
0700
0000
3FF0
3FE0
00C0
0180
0300
0600
0C00
1800
3000
7FE0
FFE0
ENDCHAR
STARTCHAR Zdotaccent
ENCODING 379
SWIDTH 687 0
DWIDTH 14 0
BBX 14 17 1 0
BITMAP
01C0
01C0
0000
1FFC
1FFC
0078
00F0
01E0
01C0
0380
0700
0E00
1E00
3C00
7800
7FF0
FFF0
ENDCHAR
STARTCHAR zdotaccent
ENCODING 380
SWIDTH 630 0
DWIDTH 13 0
BBX 12 14 1 0
BITMAP
0700
0700
0000
3FF0
3FE0
00C0
0180
0300
0600
0C00
1800
3000
7FE0
FFE0
ENDCHAR
STARTCHAR Zcaron
ENCODING 381
SWIDTH 687 0
DWIDTH 14 0
BBX 14 17 1 0
BITMAP
03B8
01E0
0000
1FFC
1FFC
0078
00F0
01E0
01C0
0380
0700
0E00
1E00
3C00
7800
7FF0
FFF0
ENDCHAR
STARTCHAR zcaron
ENCODING 382
SWIDTH 630 0
DWIDTH 13 0
BBX 12 14 1 0
BITMAP
0770
03C0
0000
3FF0
3FE0
00C0
0180
0300
0600
0C00
1800
3000
7FE0
FFE0
ENDCHAR
STARTCHAR uni0186
ENCODING 390
SWIDTH 737 0
DWIDTH 15 0
BBX 15 14 2 0
BITMAP
0FF0
3FFC
303C
001E
000E
000E
000E
000E
001C
003C
0078
C0F0
FFC0
FF00
ENDCHAR
STARTCHAR uni0189
ENCODING 393
SWIDTH 822 0
DWIDTH 16 0
BBX 16 14 1 0
BITMAP
1FFC
1FFE
1F0F
1E07
1E07
3E07
FFC7
FF87
3C0E
380E
781C
7878
7FF0
7FC0
ENDCHAR
STARTCHAR uni018E
ENCODING 398
SWIDTH 642 0
DWIDTH 13 0
BBX 13 14 2 0
BITMAP
3FF8
3FF8
00F0
00F0
00F0
00F0
1FF0
3FE0
01E0
01E0
01E0
01E0
FFC0
FFC0
ENDCHAR
STARTCHAR florin
ENCODING 402
SWIDTH 687 0
DWIDTH 14 0
BBX 11 17 4 -3
BITMAP
03E0
0FE0
0E20
1C00
1C00
3C00
7F00
FE00
3800
3800
7800
7800
7800
7000
7000
F000
F000
ENDCHAR
STARTCHAR uni0197
ENCODING 407
SWIDTH 361 0
DWIDTH 7 0
BBX 7 14 2 0
BITMAP
1E
1E
3C
3C
3C
3C
FE
FE
78
78
78
78
F0
F0
ENDCHAR
STARTCHAR uni019A
ENCODING 410
SWIDTH 343 0
DWIDTH 7 0
BBX 7 14 1 0
BITMAP
1E
1E
1C
3C
3C
3C
FE
FE
78
78
78
70
F0
F0
ENDCHAR
STARTCHAR uni019D
ENCODING 413
SWIDTH 789 0
DWIDTH 16 0
BBX 20 18 -3 -4
BITMAP
00E070
00E070
01F060
01F0E0
01F8E0
01F8E0
019CE0
039CC0
038FC0
038FC0
0387C0
0387C0
038380
030380
070000
860000
FC0000
F80000
ENDCHAR
STARTCHAR uni019F
ENCODING 415
SWIDTH 855 0
DWIDTH 17 0
BBX 14 14 3 0
BITMAP
03E0
0FF8
1C38
381C
701C
701C
FFFC
FFFC
E038
E038
F070
70E0
7FC0
1F00
ENDCHAR
STARTCHAR Ohorn
ENCODING 416
SWIDTH 855 0
DWIDTH 17 0
BBX 18 14 3 0
BITMAP
03E3C0
0FFBC0
1C3BC0
381D80
701D80
701F00
E01C00
E01C00
E03800
E03800
F07000
70E000
7FC000
1F0000
ENDCHAR
STARTCHAR ohorn
ENCODING 417
SWIDTH 663 0
DWIDTH 13 0
BBX 14 11 3 0
BITMAP
0FBC
1FFC
39FC
71D8
61D8
E1F0
E1C0
E180
E380
7F00
3C00
ENDCHAR
STARTCHAR Uhorn
ENCODING 431
SWIDTH 759 0
DWIDTH 15 0
BBX 18 14 3 0
BITMAP
3C1FC0
383FC0
783BC0
783980
703980
703F00
707800
E07000
E07000
E07000
E0F000
F0E000
7FC000
1F8000
ENDCHAR
STARTCHAR uhorn
ENCODING 432
SWIDTH 675 0
DWIDTH 13 0
BBX 16 11 2 0
BITMAP
38FF
38FF
30FF
70E6
71E6
73FC
73E0
75E0
FDC0
FBC0
73C0
ENDCHAR
STARTCHAR uni01B5
ENCODING 437
SWIDTH 687 0
DWIDTH 14 0
BBX 14 14 1 0
BITMAP
1FFC
1FFC
0078
00F0
01E0
01C0
0FE0
0FE0
0E00
1E00
3C00
7800
7FF0
FFF0
ENDCHAR
STARTCHAR uni01B6
ENCODING 438
SWIDTH 630 0
DWIDTH 13 0
BBX 12 11 1 0
BITMAP
3FF0
3FE0
00C0
0180
1FC0
1FC0
0C00
1800
3000
7FE0
FFE0
ENDCHAR
STARTCHAR uni01BB
ENCODING 443
SWIDTH 687 0
DWIDTH 14 0
BBX 13 14 2 0
BITMAP
0FE0
1FF0
1078
0038
0038
0070
FFF8
FFF8
0F00
1E00
3800
7800
FFE0
FFE0
ENDCHAR
STARTCHAR uni01BC
ENCODING 444
SWIDTH 687 0
DWIDTH 14 0
BBX 13 14 2 0
BITMAP
1FF8
1FF8
1800
3800
3000
3F00
3FC0
03E0
00E0
00E0
00E0
C1E0
FFC0
FF00
ENDCHAR
STARTCHAR uni01C0
ENCODING 448
SWIDTH 259 0
DWIDTH 5 0
BBX 6 17 1 -3
BITMAP
04
0C
08
08
08
10
10
10
30
20
20
20
40
40
40
C0
80
ENDCHAR
STARTCHAR uni01C2
ENCODING 450
SWIDTH 687 0
DWIDTH 14 0
BBX 13 17 2 -2
BITMAP
0040
00C0
0080
0080
0080
7FF8
7FF8
0100
0300
0200
0200
FFF0
FFF0
0400
0400
0C00
0800
ENDCHAR
STARTCHAR uni01C3
ENCODING 451
SWIDTH 343 0
DWIDTH 7 0
BBX 7 14 1 0
BITMAP
1E
1E
3C
3C
3C
3C
38
38
38
30
00
00
F8
F0
ENDCHAR
STARTCHAR uni01CD
ENCODING 461
SWIDTH 771 0
DWIDTH 15 0
BBX 14 17 1 0
BITMAP
0770
03C0
0000
00E0
01F0
01F0
03F0
0270
0670
0C78
0C78
1FF8
1FF8
3038
203C
603C
E03C
ENDCHAR
STARTCHAR uni01CE
ENCODING 462
SWIDTH 681 0
DWIDTH 14 0
BBX 13 14 1 0
BITMAP
0770
03C0
0000
07F8
0FF8
1C78
30F0
70F0
61F0
E2F0
E6F0
FDE0
F9E0
71E0
ENDCHAR
STARTCHAR uni01CF
ENCODING 463
SWIDTH 361 0
DWIDTH 7 0
BBX 8 17 2 0
BITMAP
77
3C
00
1E
1E
3C
3C
3C
3C
3C
78
78
78
78
78
F0
F0
ENDCHAR
STARTCHAR uni01D0
ENCODING 464
SWIDTH 343 0
DWIDTH 7 0
BBX 8 14 2 0
BITMAP
77
3C
00
3C
3C
3C
78
78
78
78
78
F0
F0
F0
ENDCHAR
STARTCHAR uni01D1
ENCODING 465
SWIDTH 855 0
DWIDTH 17 0
BBX 14 17 3 0
BITMAP
0770
03C0
0000
03E0
0FF8
1C38
381C
701C
701C
E01C
E01C
E038
E038
F070
70E0
7FC0
1F00
ENDCHAR
STARTCHAR uni01D2
ENCODING 466
SWIDTH 663 0
DWIDTH 13 0
BBX 10 14 3 0
BITMAP
1DC0
0F00
0000
0F80
1FC0
39C0
71C0
61C0
E1C0
E1C0
E180
E380
7F00
3C00
ENDCHAR
STARTCHAR uni01D3
ENCODING 467
SWIDTH 759 0
DWIDTH 15 0
BBX 14 17 3 0
BITMAP
0EE0
0780
0000
3C1C
383C
7838
7838
7038
7038
7078
E070
E070
E070
E0F0
F0E0
7FC0
1F80
ENDCHAR
STARTCHAR uni01D4
ENCODING 468
SWIDTH 675 0
DWIDTH 13 0
BBX 12 14 2 0
BITMAP
0EE0
0780
0000
38F0
38F0
30F0
70E0
71E0
73E0
73E0
75E0
FDC0
FBC0
73C0
ENDCHAR
STARTCHAR uni01D5
ENCODING 469
SWIDTH 759 0
DWIDTH 15 0
BBX 14 20 3 0
BITMAP
0FE0
0FE0
0000
0770
0770
0000
3C1C
383C
7838
7838
7038
7038
7078
E070
E070
E070
E0F0
F0E0
7FC0
1F80
ENDCHAR
STARTCHAR uni01D6
ENCODING 470
SWIDTH 675 0
DWIDTH 13 0
BBX 12 17 2 0
BITMAP
1FC0
1FC0
0000
0EE0
0EE0
0000
38F0
38F0
30F0
70E0
71E0
73E0
73E0
75E0
FDC0
FBC0
73C0
ENDCHAR
STARTCHAR uni01D7
ENCODING 471
SWIDTH 759 0
DWIDTH 15 0
BBX 14 20 3 0
BITMAP
00F0
0380
0000
0770
0770
0000
3C1C
383C
7838
7838
7038
7038
7078
E070
E070
E070
E0F0
F0E0
7FC0
1F80
ENDCHAR
STARTCHAR uni01D8
ENCODING 472
SWIDTH 675 0
DWIDTH 13 0
BBX 12 17 2 0
BITMAP
01E0
0700
0000
0EE0
0EE0
0000
38F0
38F0
30F0
70E0
71E0
73E0
73E0
75E0
FDC0
FBC0
73C0
ENDCHAR
STARTCHAR uni01D9
ENCODING 473
SWIDTH 759 0
DWIDTH 15 0
BBX 14 20 3 0
BITMAP
0770
03C0
0000
0770
0770
0000
3C1C
383C
7838
7838
7038
7038
7078
E070
E070
E070
E0F0
F0E0
7FC0
1F80
ENDCHAR
STARTCHAR uni01DA
ENCODING 474
SWIDTH 675 0
DWIDTH 13 0
BBX 12 17 2 0
BITMAP
0EE0
0780
0000
0EE0
0EE0
0000
38F0
38F0
30F0
70E0
71E0
73E0
73E0
75E0
FDC0
FBC0
73C0
ENDCHAR
STARTCHAR uni01DB
ENCODING 475
SWIDTH 759 0
DWIDTH 15 0
BBX 14 20 3 0
BITMAP
0780
01C0
0000
0770
0770
0000
3C1C
383C
7838
7838
7038
7038
7078
E070
E070
E070
E0F0
F0E0
7FC0
1F80
ENDCHAR
STARTCHAR uni01DC
ENCODING 476
SWIDTH 675 0
DWIDTH 13 0
BBX 12 17 2 0
BITMAP
0F00
0380
0000
0EE0
0EE0
0000
38F0
38F0
30F0
70E0
71E0
73E0
73E0
75E0
FDC0
FBC0
73C0
ENDCHAR
STARTCHAR uni01DD
ENCODING 477
SWIDTH 612 0
DWIDTH 12 0
BBX 11 11 1 0
BITMAP
1F80
FFC0
E3E0
81E0
0FE0
3FE0
71C0
E3C0
E780
FF00
7C00
ENDCHAR
STARTCHAR uni01DE
ENCODING 478
SWIDTH 771 0
DWIDTH 15 0
BBX 14 20 1 0
BITMAP
03F8
03F8
0000
01DC
01DC
0000
00E0
01F0
01F0
03F0
0270
0670
0C78
0C78
1FF8
1FF8
3038
203C
603C
E03C
ENDCHAR
STARTCHAR uni01DF
ENCODING 479
SWIDTH 681 0
DWIDTH 14 0
BBX 13 17 1 0
BITMAP
0FE0
0FE0
0000
0770
0770
0000
07F8
0FF8
1C78
30F0
70F0
61F0
E2F0
E6F0
FDE0
F9E0
71E0
ENDCHAR
STARTCHAR uni01E0
ENCODING 480
SWIDTH 771 0
DWIDTH 15 0
BBX 14 20 1 0
BITMAP
07F0
07F0
0000
01C0
01C0
0000
00E0
01F0
01F0
03F0
0270
0670
0C78
0C78
1FF8
1FF8
3038
203C
603C
E03C
ENDCHAR
STARTCHAR uni01E1
ENCODING 481
SWIDTH 681 0
DWIDTH 14 0
BBX 13 17 1 0
BITMAP
0FE0
0FE0
0000
0380
0380
0000
07F8
0FF8
1C78
30F0
70F0
61F0
E2F0
E6F0
FDE0
F9E0
71E0
ENDCHAR
STARTCHAR uni01E2
ENCODING 482
SWIDTH 1004 0
DWIDTH 20 0
BBX 21 17 0 0
BITMAP
003F80
003F80
000000
001FF8
003FF8
007E00
007C00
00DC00
01BC00
03BFE0
073FC0
063800
0FF800
1FF800
387800
307FE0
E07FE0
ENDCHAR
STARTCHAR uni01E3
ENCODING 483
SWIDTH 987 0
DWIDTH 20 0
BBX 18 14 2 0
BITMAP
01FC00
01FC00
000000
07FF80
1FFFC0
38F9C0
30F1C0
70F380
61FF00
E2FC00
E6E040
FCF1C0
F8FFC0
707E00
ENDCHAR
STARTCHAR uni01E4
ENCODING 484
SWIDTH 755 0
DWIDTH 15 0
BBX 17 14 2 0
BITMAP
01FE00
07FE00
1E0600
380000
700000
700000
E00000
E03C00
E07800
E07F80
F0FF80
78F800
7FF000
1FF000
ENDCHAR
STARTCHAR uni01E5
ENCODING 485
SWIDTH 674 0
DWIDTH 13 0
BBX 13 15 1 -4
BITMAP
03F8
0FF0
1C70
38F0
30F0
71F0
6260
6660
7CE0
7CE0
FFF8
FFF8
C1C0
FF80
7E00
ENDCHAR
STARTCHAR Gcaron
ENCODING 486
SWIDTH 755 0
DWIDTH 15 0
BBX 15 17 2 0
BITMAP
0770
03C0
0000
01FE
07FE
1E06
3800
7000
7000
E000
E03C
E078
E078
F0F8
78F8
7FF0
1FF0
ENDCHAR
STARTCHAR gcaron
ENCODING 487
SWIDTH 674 0
DWIDTH 13 0
BBX 13 18 1 -4
BITMAP
0EE0
0780
0000
03F8
0FF0
1C70
38F0
30F0
71F0
6260
6660
7CE0
7CE0
30E0
01C0
C1C0
FF80
7E00
ENDCHAR
STARTCHAR uni01E8
ENCODING 488
SWIDTH 753 0
DWIDTH 15 0
BBX 14 17 2 0
BITMAP
0EE0
0780
0000
1E1C
1E38
3C70
3CE0
3DC0
3D80
3B00
7F80
79C0
79C0
78E0
70E0
F070
F078
ENDCHAR
STARTCHAR uni01E9
ENCODING 489
SWIDTH 666 0
DWIDTH 13 0
BBX 12 17 1 0
BITMAP
3B80
1E00
0000
1E00
1E00
1C00
3C30
3C60
3CC0
3880
7900
7F80
7B80
7980
71C0
F1C0
F0E0
ENDCHAR
STARTCHAR uni01EA
ENCODING 490
SWIDTH 855 0
DWIDTH 17 0
BBX 14 17 3 -3
BITMAP
03E0
0FF8
1C38
381C
701C
701C
E01C
E01C
E038
E038
F070
70E0
7FC0
1F00
0000
0600
0F00
ENDCHAR
STARTCHAR uni01EB
ENCODING 491
SWIDTH 663 0
DWIDTH 13 0
BBX 10 14 3 -3
BITMAP
0F80
1FC0
39C0
71C0
61C0
E1C0
E1C0
E180
E380
7F00
3C00
0000
0C00
1E00
ENDCHAR
STARTCHAR uni01EC
ENCODING 492
SWIDTH 855 0
DWIDTH 17 0
BBX 14 20 3 -3
BITMAP
0FE0
0FE0
0000
03E0
0FF8
1C38
381C
701C
701C
E01C
E01C
E038
E038
F070
70E0
7FC0
1F00
0000
0600
0F00
ENDCHAR
STARTCHAR uni01ED
ENCODING 493
SWIDTH 663 0
DWIDTH 13 0
BBX 10 17 3 -3
BITMAP
3F80
3F80
0000
0F80
1FC0
39C0
71C0
61C0
E1C0
E1C0
E180
E380
7F00
3C00
0000
0C00
1E00
ENDCHAR
STARTCHAR uni01F0
ENCODING 496
SWIDTH 407 0
DWIDTH 8 0
BBX 12 18 -1 -4
BITMAP
0770
03C0
0000
00C0
01C0
01C0
01C0
01C0
0180
0380
0380
0380
0380
0300
0700
8600
FC00
F800
ENDCHAR
STARTCHAR uni01F4
ENCODING 500
SWIDTH 755 0
DWIDTH 15 0
BBX 15 17 2 0
BITMAP
0078
01C0
0000
01FE
07FE
1E06
3800
7000
7000
E000
E03C
E078
E078
F0F8
78F8
7FF0
1FF0
ENDCHAR
STARTCHAR uni01F5
ENCODING 501
SWIDTH 674 0
DWIDTH 13 0
BBX 13 18 1 -4
BITMAP
00F0
0380
0000
03F8
0FF0
1C70
38F0
30F0
71F0
6260
6660
7CE0
7CE0
30E0
01C0
C1C0
FF80
7E00
ENDCHAR
STARTCHAR uni01F8
ENCODING 504
SWIDTH 789 0
DWIDTH 16 0
BBX 15 17 2 0
BITMAP
0780
01C0
0000
1C0E
1C0E
3E0C
3E1C
3F1C
3F1C
339C
7398
71F8
71F8
70F8
60F8
E070
E070
ENDCHAR
STARTCHAR uni01F9
ENCODING 505
SWIDTH 675 0
DWIDTH 13 0
BBX 12 14 2 0
BITMAP
1E00
0700
0000
3CE0
3DF0
3BF0
7AE0
7CE0
7CE0
78E0
70E0
F0C0
F1C0
F1C0
ENDCHAR
STARTCHAR Aringacute
ENCODING 506
SWIDTH 771 0
DWIDTH 15 0
BBX 14 20 1 0
BITMAP
0078
01C0
0000
0070
0070
0000
00E0
01F0
01F0
03F0
0270
0670
0C78
0C78
1FF8
1FF8
3038
203C
603C
E03C
ENDCHAR
STARTCHAR aringacute
ENCODING 507
SWIDTH 681 0
DWIDTH 14 0
BBX 13 17 1 0
BITMAP
00F0
0380
0000
01C0
01C0
0000
07F8
0FF8
1C78
30F0
70F0
61F0
E2F0
E6F0
FDE0
F9E0
71E0
ENDCHAR
STARTCHAR AEacute
ENCODING 508
SWIDTH 1004 0
DWIDTH 20 0
BBX 21 17 0 0
BITMAP
000780
001C00
000000
001FF8
003FF8
007E00
007C00
00DC00
01BC00
03BFE0
073FC0
063800
0FF800
1FF800
387800
307FE0
E07FE0
ENDCHAR
STARTCHAR aeacute
ENCODING 509
SWIDTH 987 0
DWIDTH 20 0
BBX 18 14 2 0
BITMAP
003C00
00E000
000000
07FF80
1FFFC0
38F9C0
30F1C0
70F380
61FF00
E2FC00
E6E040
FCF1C0
F8FFC0
707E00
ENDCHAR
STARTCHAR Oslashacute
ENCODING 510
SWIDTH 855 0
DWIDTH 17 0
BBX 17 17 4 0
BITMAP
003C00
00E000
000000
01F180
07FF00
0E1E00
1C1E00
383E00
386E00
70CE00
718E00
731C00
761C00
7C3800
387000
7FE000
CF8000
ENDCHAR
STARTCHAR oslashacute
ENCODING 511
SWIDTH 663 0
DWIDTH 13 0
BBX 12 14 4 0
BITMAP
01E0
0700
0000
07F0
0FE0
1CE0
39E0
33E0
76E0
7CE0
78C0
71C0
7F80
DE00
ENDCHAR
STARTCHAR Scommaaccent
ENCODING 536
SWIDTH 639 0
DWIDTH 13 0
BBX 12 22 2 -8
BITMAP
07F0
1FF0
3830
3800
3C00
3E00
1F80
0FC0
03E0
00E0
00E0
41C0
FF80
FE00
0000
0F00
0F00
0F00
0E00
0600
0E00
1C00
ENDCHAR
STARTCHAR scommaaccent
ENCODING 537
SWIDTH 527 0
DWIDTH 11 0
BBX 10 19 1 -8
BITMAP
0FC0
1FC0
3C00
3C00
3E00
1F00
0F80
0780
C780
FF00
FE00
0000
1E00
1E00
1E00
1C00
0C00
1C00
3800
ENDCHAR
STARTCHAR Tcommaaccent
ENCODING 538
SWIDTH 747 0
DWIDTH 15 0
BBX 15 22 3 -8
BITMAP
FFFE
FFFE
0780
0780
0780
0700
0F00
0F00
0F00
0F00
0F00
1E00
1E00
1E00
0000
0F00
0F00
0F00
0E00
0600
0E00
1C00
ENDCHAR
STARTCHAR tcommaaccent
ENCODING 539
SWIDTH 437 0
DWIDTH 9 0
BBX 7 21 2 -8
BITMAP
3C
38
FE
FE
78
70
70
70
E0
E0
F4
FC
78
00
78
78
78
70
30
70
E0
ENDCHAR
STARTCHAR uni021E
ENCODING 542
SWIDTH 813 0
DWIDTH 16 0
BBX 16 17 2 0
BITMAP
0770
03C0
0000
1E0F
1E0F
3C0E
3C1E
3C1E
3C1E
3FFE
7FFC
783C
783C
783C
703C
F078
F078
ENDCHAR
STARTCHAR uni021F
ENCODING 543
SWIDTH 675 0
DWIDTH 13 0
BBX 12 17 2 0
BITMAP
3B80
1E00
0000
1E00
1C00
3C00
3CE0
3DF0
3BF0
3BE0
7CE0
7CE0
78E0
70E0
70C0
F1C0
F1C0
ENDCHAR
STARTCHAR uni0226
ENCODING 550
SWIDTH 771 0
DWIDTH 15 0
BBX 14 17 1 0
BITMAP
01C0
01C0
0000
00E0
01F0
01F0
03F0
0270
0670
0C78
0C78
1FF8
1FF8
3038
203C
603C
E03C
ENDCHAR
STARTCHAR uni0227
ENCODING 551
SWIDTH 681 0
DWIDTH 14 0
BBX 13 14 1 0
BITMAP
0380
0380
0000
07F8
0FF8
1C78
30F0
70F0
61F0
E2F0
E6F0
FDE0
F9E0
71E0
ENDCHAR
STARTCHAR uni0228
ENCODING 552
SWIDTH 642 0
DWIDTH 13 0
BBX 13 18 2 -4
BITMAP
1FF8
1FF8
3C00
3C00
3C00
3C00
3FE0
7FC0
7800
7800
7800
7800
FFE0
FFE0
0C00
0200
0200
1C00
ENDCHAR
STARTCHAR uni0229
ENCODING 553
SWIDTH 612 0
DWIDTH 12 0
BBX 11 15 1 -4
BITMAP
07C0
1FE0
3CE0
78E0
71C0
FF80
FE00
F020
F8E0
7FE0
3F00
0C00
0200
0200
1C00
ENDCHAR
STARTCHAR uni022A
ENCODING 554
SWIDTH 855 0
DWIDTH 17 0
BBX 14 20 3 0
BITMAP
07F0
07F0
0000
0770
0770
0000
03E0
0FF8
1C38
381C
701C
701C
E01C
E01C
E038
E038
F070
70E0
7FC0
1F00
ENDCHAR
STARTCHAR uni022B
ENCODING 555
SWIDTH 663 0
DWIDTH 13 0
BBX 11 17 3 0
BITMAP
1FC0
1FC0
0000
0EE0
0EE0
0000
0F80
1FC0
39C0
71C0
61C0
E1C0
E1C0
E180
E380
7F00
3C00
ENDCHAR
STARTCHAR uni022C
ENCODING 556
SWIDTH 855 0
DWIDTH 17 0
BBX 14 20 3 0
BITMAP
07F0
07F0
0000
03F8
07F0
0000
03E0
0FF8
1C38
381C
701C
701C
E01C
E01C
E038
E038
F070
70E0
7FC0
1F00
ENDCHAR
STARTCHAR uni022D
ENCODING 557
SWIDTH 663 0
DWIDTH 13 0
BBX 11 17 3 0
BITMAP
1FC0
1FC0
0000
0FE0
1FC0
0000
0F80
1FC0
39C0
71C0
61C0
E1C0
E1C0
E180
E380
7F00
3C00
ENDCHAR
STARTCHAR uni022E
ENCODING 558
SWIDTH 855 0
DWIDTH 17 0
BBX 14 17 3 0
BITMAP
0380
0380
0000
03E0
0FF8
1C38
381C
701C
701C
E01C
E01C
E038
E038
F070
70E0
7FC0
1F00
ENDCHAR
STARTCHAR uni022F
ENCODING 559
SWIDTH 663 0
DWIDTH 13 0
BBX 10 14 3 0
BITMAP
0E00
0E00
0000
0F80
1FC0
39C0
71C0
61C0
E1C0
E1C0
E180
E380
7F00
3C00
ENDCHAR
STARTCHAR uni0230
ENCODING 560
SWIDTH 855 0
DWIDTH 17 0
BBX 14 20 3 0
BITMAP
0FE0
0FE0
0000
0380
0380
0000
03E0
0FF8
1C38
381C
701C
701C
E01C
E01C
E038
E038
F070
70E0
7FC0
1F00
ENDCHAR
STARTCHAR uni0231
ENCODING 561
SWIDTH 663 0
DWIDTH 13 0
BBX 10 17 3 0
BITMAP
3F80
3F80
0000
0E00
0E00
0000
0F80
1FC0
39C0
71C0
61C0
E1C0
E1C0
E180
E380
7F00
3C00
ENDCHAR
STARTCHAR uni0232
ENCODING 562
SWIDTH 681 0
DWIDTH 14 0
BBX 12 17 2 0
BITMAP
3F80
3F80
0000
E070
E0E0
61C0
7380
7300
3600
3E00
3C00
3C00
3800
7800
7800
7800
7800
ENDCHAR
STARTCHAR uni0233
ENCODING 563
SWIDTH 633 0
DWIDTH 13 0
BBX 14 18 1 -4
BITMAP
1FC0
1FC0
0000
3C0C
3C18
3C30
3C20
3C60
1EC0
1E80
1F80
1F00
1E00
0E00
0C00
1800
3800
F000
ENDCHAR
STARTCHAR uni0250
ENCODING 592
SWIDTH 681 0
DWIDTH 14 0
BBX 13 11 1 0
BITMAP
3C70
3CF8
3DF8
7B38
7A38
7C30
7870
7860
F1C0
FF80
FF00
ENDCHAR
STARTCHAR uni0259
ENCODING 601
SWIDTH 612 0
DWIDTH 12 0
BBX 11 11 1 0
BITMAP
1F80
FFC0
E3E0
81E0
0FE0
3FE0
71C0
E3C0
E780
FF00
7C00
ENDCHAR
STARTCHAR uni025F
ENCODING 607
SWIDTH 464 0
DWIDTH 9 0
BBX 12 18 1 -7
BITMAP
00F0
00F0
00F0
01E0
01E0
01E0
01E0
01E0
03C0
03C0
03C0
03C0
03C0
1FE0
3FC0
8780
FF00
FC00
ENDCHAR
STARTCHAR uni0265
ENCODING 613
SWIDTH 675 0
DWIDTH 13 0
BBX 12 14 2 -3
BITMAP
38F0
38F0
30E0
70E0
71E0
73E0
73E0
7DC0
FDC0
FBC0
73C0
03C0
0380
0780
ENDCHAR
STARTCHAR uni0275
ENCODING 629
SWIDTH 663 0
DWIDTH 13 0
BBX 10 11 3 0
BITMAP
0F80
1FC0
39C0
71C0
FFC0
FFC0
E1C0
E180
E380
7F00
3C00
ENDCHAR
STARTCHAR uni0279
ENCODING 633
SWIDTH 542 0
DWIDTH 11 0
BBX 11 11 2 0
BITMAP
01E0
01E0
01E0
01C0
03C0
03C0
07C0
0BC0
5B80
7780
C780
ENDCHAR
STARTCHAR uni0287
ENCODING 647
SWIDTH 437 0
DWIDTH 9 0
BBX 7 13 2 0
BITMAP
3C
7E
5E
0E
0E
1C
1C
1C
3C
FE
FE
38
78
ENDCHAR
STARTCHAR uni0289
ENCODING 649
SWIDTH 675 0
DWIDTH 13 0
BBX 12 11 2 0
BITMAP
38F0
38F0
30F0
70E0
FFF0
FFF0
73E0
75E0
FDC0
FBC0
73C0
ENDCHAR
STARTCHAR uni028C
ENCODING 652
SWIDTH 630 0
DWIDTH 13 0
BBX 12 11 2 0
BITMAP
03C0
03C0
07E0
0FE0
0DE0
1DE0
19E0
30E0
30F0
60F0
E0F0
ENDCHAR
STARTCHAR uni028D
ENCODING 653
SWIDTH 878 0
DWIDTH 18 0
BBX 17 11 3 0
BITMAP
070780
070780
0F0F80
0F0B80
1F1380
1B1380
3B2380
33A380
73C180
63C180
E18180
ENDCHAR
STARTCHAR uni028E
ENCODING 654
SWIDTH 633 0
DWIDTH 13 0
BBX 14 15 1 0
BITMAP
003C
0070
0060
00C0
01C0
01E0
03E0
07E0
05E0
0DE0
18F0
10F0
30F0
60F0
C0F0
ENDCHAR
STARTCHAR uni029E
ENCODING 670
SWIDTH 666 0
DWIDTH 13 0
BBX 12 14 1 -3
BITMAP
70F0
38F0
38E0
19E0
1DE0
1FE0
09E0
11C0
33C0
63C0
C3C0
0380
0780
0780
ENDCHAR
STARTCHAR uni02BB
ENCODING 699
SWIDTH 265 0
DWIDTH 5 0
BBX 5 6 3 8
BITMAP
38
60
70
F0
F0
F0
ENDCHAR
STARTCHAR afii57929
ENCODING 700
SWIDTH 265 0
DWIDTH 5 0
BBX 5 6 3 8
BITMAP
78
78
78
30
30
E0
ENDCHAR
STARTCHAR afii64937
ENCODING 701
SWIDTH 265 0
DWIDTH 5 0
BBX 5 6 3 8
BITMAP
F0
F0
F0
60
60
38
ENDCHAR
STARTCHAR circumflex
ENCODING 710
SWIDTH 663 0
DWIDTH 13 0
BBX 7 2 6 12
BITMAP
3C
EE
ENDCHAR
STARTCHAR caron
ENCODING 711
SWIDTH 663 0
DWIDTH 13 0
BBX 7 2 6 12
BITMAP
EE
78
ENDCHAR
STARTCHAR uni02C8
ENCODING 712
SWIDTH 265 0
DWIDTH 5 0
BBX 4 6 3 8
BITMAP
F0
F0
E0
60
60
40
ENDCHAR
STARTCHAR macron
ENCODING 713
SWIDTH 663 0
DWIDTH 13 0
BBX 7 2 6 12
BITMAP
FE
FE
ENDCHAR
STARTCHAR uni02CA
ENCODING 714
SWIDTH 663 0
DWIDTH 13 0
BBX 6 2 7 12
BITMAP
3C
E0
ENDCHAR
STARTCHAR uni02CB
ENCODING 715
SWIDTH 663 0
DWIDTH 13 0
BBX 5 2 7 12
BITMAP
F0
38
ENDCHAR
STARTCHAR uni02CD
ENCODING 717
SWIDTH 663 0
DWIDTH 13 0
BBX 7 2 6 -3
BITMAP
FE
FE
ENDCHAR
STARTCHAR uni02CE
ENCODING 718
SWIDTH 663 0
DWIDTH 13 0
BBX 5 2 7 -3
BITMAP
F0
38
ENDCHAR
STARTCHAR uni02CF
ENCODING 719
SWIDTH 663 0
DWIDTH 13 0
BBX 6 2 7 -3
BITMAP
3C
E0
ENDCHAR
STARTCHAR breve
ENCODING 728
SWIDTH 663 0
DWIDTH 13 0
BBX 7 2 6 12
BITMAP
EE
78
ENDCHAR
STARTCHAR dotaccent
ENCODING 729
SWIDTH 663 0
DWIDTH 13 0
BBX 3 2 8 12
BITMAP
E0
E0
ENDCHAR
STARTCHAR ring
ENCODING 730
SWIDTH 663 0
DWIDTH 13 0
BBX 3 2 8 12
BITMAP
E0
E0
ENDCHAR
STARTCHAR ogonek
ENCODING 731
SWIDTH 663 0
DWIDTH 13 0
BBX 4 2 4 -3
BITMAP
60
F0
ENDCHAR
STARTCHAR tilde
ENCODING 732
SWIDTH 663 0
DWIDTH 13 0
BBX 8 2 6 12
BITMAP
7F
FE
ENDCHAR
STARTCHAR hungarumlaut
ENCODING 733
SWIDTH 663 0
DWIDTH 13 0
BBX 8 2 7 12
BITMAP
3F
DC
ENDCHAR
STARTCHAR uni02EE
ENCODING 750
SWIDTH 530 0
DWIDTH 11 0
BBX 10 6 3 8
BITMAP
7BC0
7BC0
73C0
7380
3180
E700
ENDCHAR
STARTCHAR uni037E
ENCODING 894
SWIDTH 343 0
DWIDTH 7 0
BBX 7 14 1 -3
BITMAP
1E
1E
3C
00
00
00
00
7C
78
78
78
38
30
E0
ENDCHAR
STARTCHAR tonos
ENCODING 900
SWIDTH 663 0
DWIDTH 13 0
BBX 6 2 7 12
BITMAP
3C
E0
ENDCHAR
STARTCHAR dieresistonos
ENCODING 901
SWIDTH 663 0
DWIDTH 13 0
BBX 8 5 6 12
BITMAP
0F
38
00
EE
EE
ENDCHAR
STARTCHAR anoteleia
ENCODING 903
SWIDTH 343 0
DWIDTH 14 0
BBX 3 2 7 6
BITMAP
E0
E0
ENDCHAR
STARTCHAR mu
ENCODING 956
SWIDTH 681 0
DWIDTH 14 0
BBX 13 14 1 -3
BITMAP
1C78
3C78
3C78
3CF0
3CF0
38F0
7BF0
7AF0
7CE0
7DE0
79E0
F000
F000
F000
ENDCHAR
STARTCHAR uni1E00
ENCODING 7680
SWIDTH 771 0
DWIDTH 15 0
BBX 14 17 1 -3
BITMAP
00E0
01F0
01F0
03F0
0270
0670
0C78
0C78
1FF8
1FF8
3038
203C
603C
E03C
0000
01C0
01C0
ENDCHAR
STARTCHAR uni1E01
ENCODING 7681
SWIDTH 681 0
DWIDTH 14 0
BBX 13 14 1 -3
BITMAP
07F8
0FF8
1C78
30F0
70F0
61F0
E2F0
E6F0
FDE0
F9E0
71E0
0000
0E00
0E00
ENDCHAR
STARTCHAR uni1E02
ENCODING 7682
SWIDTH 660 0
DWIDTH 13 0
BBX 12 17 2 0
BITMAP
0700
0700
0000
1FE0
3FF0
3C70
3870
3860
38C0
7F80
7FC0
79E0
70E0
70E0
F0E0
FFC0
FF80
ENDCHAR
STARTCHAR uni1E03
ENCODING 7683
SWIDTH 681 0
DWIDTH 14 0
BBX 13 17 1 0
BITMAP
0700
0700
0000
1F00
1F00
1F00
3E70
3EF8
3EF8
3FB8
7D38
7E30
7C70
7860
79C0
FF80
FF00
ENDCHAR
STARTCHAR uni1E04
ENCODING 7684
SWIDTH 660 0
DWIDTH 13 0
BBX 12 17 2 -3
BITMAP
1FE0
3FF0
3C70
3870
3860
38C0
7F80
7FC0
79E0
70E0
70E0
F0E0
FFC0
FF80
0000
0E00
0E00
ENDCHAR
STARTCHAR uni1E05
ENCODING 7685
SWIDTH 681 0
DWIDTH 14 0
BBX 13 17 1 -3
BITMAP
1F00
1F00
1F00
3E70
3EF8
3EF8
3FB8
7D38
7E30
7C70
7860
79C0
FF80
FF00
0000
0E00
0E00
ENDCHAR
STARTCHAR uni1E06
ENCODING 7686
SWIDTH 660 0
DWIDTH 13 0
BBX 12 17 2 -3
BITMAP
1FE0
3FF0
3C70
3870
3860
38C0
7F80
7FC0
79E0
70E0
70E0
F0E0
FFC0
FF80
0000
3F80
3F80
ENDCHAR
STARTCHAR uni1E07
ENCODING 7687
SWIDTH 681 0
DWIDTH 14 0
BBX 13 17 1 -3
BITMAP
1F00
1F00
1F00
3E70
3EF8
3EF8
3FB8
7D38
7E30
7C70
7860
79C0
FF80
FF00
0000
3F80
3F80
ENDCHAR
STARTCHAR uni1E08
ENCODING 7688
SWIDTH 737 0
DWIDTH 15 0
BBX 15 21 2 -4
BITMAP
00F0
0380
0000
01FE
07FE
1E06
3C00
7800
7000
E000
E000
E000
E000
F000
7818
7FF8
1FE0
0C00
0200
0200
1C00
ENDCHAR
STARTCHAR uni1E09
ENCODING 7689
SWIDTH 548 0
DWIDTH 11 0
BBX 9 18 2 -4
BITMAP
0780
1C00
0000
0780
1F80
3880
7000
7000
E000
E000
E100
E100
7F00
3E00
3000
0800
0800
7000
ENDCHAR
STARTCHAR uni1E0A
ENCODING 7690
SWIDTH 822 0
DWIDTH 16 0
BBX 16 17 2 0
BITMAP
01C0
01C0
0000
1FFC
1FFE
3E1F
3E07
3E07
3C07
3C07
7C0F
780E
781E
783C
7878
FFF0
FFC0
ENDCHAR
STARTCHAR uni1E0B
ENCODING 7691
SWIDTH 681 0
DWIDTH 14 0
BBX 14 17 1 0
BITMAP
00E0
00E0
0000
003C
003C
0078
07F8
0FF8
1C78
30F8
70F0
61F0
E2F0
E6F0
FDE0
F9E0
71E0
ENDCHAR
STARTCHAR uni1E0C
ENCODING 7692
SWIDTH 822 0
DWIDTH 16 0
BBX 16 17 2 -3
BITMAP
1FFC
1FFE
3E1F
3E07
3E07
3C07
3C07
7C0F
780E
781E
783C
7878
FFF0
FFC0
0000
0700
0700
ENDCHAR
STARTCHAR uni1E0D
ENCODING 7693
SWIDTH 681 0
DWIDTH 14 0
BBX 14 17 1 -3
BITMAP
003C
003C
0078
07F8
0FF8
1C78
30F8
70F0
61F0
E2F0
E6F0
FDE0
F9E0
71E0
0000
0700
0700
ENDCHAR
STARTCHAR uni1E0E
ENCODING 7694
SWIDTH 822 0
DWIDTH 16 0
BBX 16 17 2 -3
BITMAP
1FFC
1FFE
3E1F
3E07
3E07
3C07
3C07
7C0F
780E
781E
783C
7878
FFF0
FFC0
0000
1FC0
1FC0
ENDCHAR
STARTCHAR uni1E0F
ENCODING 7695
SWIDTH 681 0
DWIDTH 14 0
BBX 14 17 1 -3
BITMAP
003C
003C
0078
07F8
0FF8
1C78
30F8
70F0
61F0
E2F0
E6F0
FDE0
F9E0
71E0
0000
1FC0
1FC0
ENDCHAR
STARTCHAR uni1E10
ENCODING 7696
SWIDTH 822 0
DWIDTH 16 0
BBX 16 18 2 -4
BITMAP
1FFC
1FFE
3E1F
3E07
3E07
3C07
3C07
7C0F
780E
781E
783C
7878
FFF0
FFC0
0300
0080
0080
0700
ENDCHAR
STARTCHAR uni1E11
ENCODING 7697
SWIDTH 681 0
DWIDTH 14 0
BBX 14 18 1 -4
BITMAP
003C
003C
0078
07F8
0FF8
1C78
30F8
70F0
61F0
E2F0
E6F0
FDE0
F9E0
73E0
0600
0100
0100
0E00
ENDCHAR
STARTCHAR uni1E12
ENCODING 7698
SWIDTH 822 0
DWIDTH 16 0
BBX 16 17 2 -3
BITMAP
1FFC
1FFE
3E1F
3E07
3E07
3C07
3C07
7C0F
780E
781E
783C
7878
FFF0
FFC0
0000
0780
1DC0
ENDCHAR
STARTCHAR uni1E13
ENCODING 7699
SWIDTH 681 0
DWIDTH 14 0
BBX 14 17 1 -3
BITMAP
003C
003C
0078
07F8
0FF8
1C78
30F8
70F0
61F0
E2F0
E6F0
FDE0
F9E0
71E0
0000
0F00
3B80
ENDCHAR
STARTCHAR uni1E14
ENCODING 7700
SWIDTH 642 0
DWIDTH 13 0
BBX 13 20 2 0
BITMAP
0F00
0380
0000
1FC0
1FC0
0000
1FF8
1FF8
3C00
3C00
3C00
3C00
3FE0
7FC0
7800
7800
7800
7800
FFE0
FFE0
ENDCHAR
STARTCHAR uni1E15
ENCODING 7701
SWIDTH 612 0
DWIDTH 12 0
BBX 11 17 1 0
BITMAP
1E00
0700
0000
1FC0
1FC0
0000
07C0
1FE0
3CE0
78E0
71C0
FF80
FE00
F020
F8E0
7FE0
3F00
ENDCHAR
STARTCHAR uni1E16
ENCODING 7702
SWIDTH 642 0
DWIDTH 13 0
BBX 13 20 2 0
BITMAP
01E0
0700
0000
1FC0
1FC0
0000
1FF8
1FF8
3C00
3C00
3C00
3C00
3FE0
7FC0
7800
7800
7800
7800
FFE0
FFE0
ENDCHAR
STARTCHAR uni1E17
ENCODING 7703
SWIDTH 612 0
DWIDTH 12 0
BBX 11 17 1 0
BITMAP
03C0
0E00
0000
1FC0
1FC0
0000
07C0
1FE0
3CE0
78E0
71C0
FF80
FE00
F020
F8E0
7FE0
3F00
ENDCHAR
STARTCHAR uni1E18
ENCODING 7704
SWIDTH 642 0
DWIDTH 13 0
BBX 13 17 2 -3
BITMAP
1FF8
1FF8
3C00
3C00
3C00
3C00
3FE0
7FC0
7800
7800
7800
7800
FFE0
FFE0
0000
0F00
3B80
ENDCHAR
STARTCHAR uni1E19
ENCODING 7705
SWIDTH 612 0
DWIDTH 12 0
BBX 11 14 1 -3
BITMAP
07C0
1FE0
3CE0
78E0
71C0
FF80
FE00
F020
F8E0
7FE0
3F00
0000
0F00
3B80
ENDCHAR
STARTCHAR uni1E1A
ENCODING 7706
SWIDTH 642 0
DWIDTH 13 0
BBX 13 17 2 -3
BITMAP
1FF8
1FF8
3C00
3C00
3C00
3C00
3FE0
7FC0
7800
7800
7800
7800
FFE0
FFE0
0000
3F80
7F00
ENDCHAR
STARTCHAR uni1E1B
ENCODING 7707
SWIDTH 612 0
DWIDTH 12 0
BBX 11 14 1 -3
BITMAP
07C0
1FE0
3CE0
78E0
71C0
FF80
FE00
F020
F8E0
7FE0
3F00
0000
3F80
7F00
ENDCHAR
STARTCHAR uni1E1C
ENCODING 7708
SWIDTH 642 0
DWIDTH 13 0
BBX 13 21 2 -4
BITMAP
1DC0
0F00
0000
1FF8
1FF8
3C00
3C00
3C00
3C00
3FE0
7FC0
7800
7800
7800
7800
FFE0
FFE0
0C00
0200
0200
1C00
ENDCHAR
STARTCHAR uni1E1D
ENCODING 7709
SWIDTH 612 0
DWIDTH 12 0
BBX 11 18 1 -4
BITMAP
1DC0
0F00
0000
07C0
1FE0
3CE0
78E0
71C0
FF80
FE00
F020
F8E0
7FE0
3F00
0C00
0200
0200
1C00
ENDCHAR
STARTCHAR uni1E1E
ENCODING 7710
SWIDTH 614 0
DWIDTH 12 0
BBX 13 17 2 0
BITMAP
0700
0700
0000
1FF8
1FF8
3C00
3C00
3C00
3C00
3FC0
7FC0
7800
7800
7800
7000
F000
F000
ENDCHAR
STARTCHAR uni1E1F
ENCODING 7711
SWIDTH 464 0
DWIDTH 9 0
BBX 12 21 1 -4
BITMAP
0700
0700
0000
03F0
0FF0
1E10
3FC0
7F80
3C00
3C00
3C00
3C00
3C00
7800
7800
7800
7800
7800
F000
F000
F000
ENDCHAR
STARTCHAR uni1E20
ENCODING 7712
SWIDTH 755 0
DWIDTH 15 0
BBX 15 17 2 0
BITMAP
07F0
07F0
0000
01FE
07FE
1E06
3800
7000
7000
E000
E03C
E078
E078
F0F8
78F8
7FF0
1FF0
ENDCHAR
STARTCHAR uni1E21
ENCODING 7713
SWIDTH 674 0
DWIDTH 13 0
BBX 13 18 1 -4
BITMAP
0FE0
0FE0
0000
03F8
0FF0
1C70
38F0
30F0
71F0
6260
6660
7CE0
7CE0
30E0
01C0
C1C0
FF80
7E00
ENDCHAR
STARTCHAR uni1E22
ENCODING 7714
SWIDTH 813 0
DWIDTH 16 0
BBX 16 17 2 0
BITMAP
01C0
01C0
0000
1E0F
1E0F
3C0E
3C1E
3C1E
3C1E
3FFE
7FFC
783C
783C
783C
703C
F078
F078
ENDCHAR
STARTCHAR uni1E23
ENCODING 7715
SWIDTH 675 0
DWIDTH 13 0
BBX 12 17 2 0
BITMAP
0E00
0E00
0000
1E00
1C00
3C00
3CE0
3DF0
3BF0
3BE0
7CE0
7CE0
78E0
70E0
70C0
F1C0
F1C0
ENDCHAR
STARTCHAR uni1E24
ENCODING 7716
SWIDTH 813 0
DWIDTH 16 0
BBX 16 17 2 -3
BITMAP
1E0F
1E0F
3C0E
3C1E
3C1E
3C1E
3FFE
7FFC
783C
783C
783C
703C
F078
F078
0000
0380
0380
ENDCHAR
STARTCHAR uni1E25
ENCODING 7717
SWIDTH 675 0
DWIDTH 13 0
BBX 12 17 2 -3
BITMAP
1E00
1C00
3C00
3CE0
3DF0
3BF0
3BE0
7CE0
7CE0
78E0
70E0
70C0
F1C0
F1C0
0000
0E00
0E00
ENDCHAR
STARTCHAR uni1E26
ENCODING 7718
SWIDTH 813 0
DWIDTH 16 0
BBX 16 17 2 0
BITMAP
0770
0770
0000
1E0F
1E0F
3C0E
3C1E
3C1E
3C1E
3FFE
7FFC
783C
783C
783C
703C
F078
F078
ENDCHAR
STARTCHAR uni1E27
ENCODING 7719
SWIDTH 675 0
DWIDTH 13 0
BBX 12 17 2 0
BITMAP
3B80
3B80
0000
1E00
1C00
3C00
3CE0
3DF0
3BF0
3BE0
7CE0
7CE0
78E0
70E0
70C0
F1C0
F1C0
ENDCHAR
STARTCHAR uni1E28
ENCODING 7720
SWIDTH 813 0
DWIDTH 16 0
BBX 16 18 2 -4
BITMAP
1E0F
1E0F
3C0E
3C1E
3C1E
3C1E
3FFE
7FFC
783C
783C
783C
703C
F078
F1F8
0300
0080
0080
0700
ENDCHAR
STARTCHAR uni1E29
ENCODING 7721
SWIDTH 675 0
DWIDTH 13 0
BBX 12 18 2 -4
BITMAP
1E00
1C00
3C00
3CE0
3DF0
3BF0
3BE0
7CE0
7CE0
78E0
70E0
70C0
F1C0
F7C0
0C00
0200
0200
1C00
ENDCHAR
STARTCHAR uni1E2A
ENCODING 7722
SWIDTH 813 0
DWIDTH 16 0
BBX 16 17 2 -3
BITMAP
1E0F
1E0F
3C0E
3C1E
3C1E
3C1E
3FFE
7FFC
783C
783C
783C
703C
F078
F078
0000
0EE0
0780
ENDCHAR
STARTCHAR uni1E2B
ENCODING 7723
SWIDTH 675 0
DWIDTH 13 0
BBX 12 17 2 -3
BITMAP
1E00
1C00
3C00
3CE0
3DF0
3BF0
3BE0
7CE0
7CE0
78E0
70E0
70C0
F1C0
F1C0
0000
3B80
1E00
ENDCHAR
STARTCHAR uni1E2C
ENCODING 7724
SWIDTH 361 0
DWIDTH 7 0
BBX 8 17 1 -3
BITMAP
0F
0F
1E
1E
1E
1E
1E
3C
3C
3C
3C
3C
78
78
00
7F
FE
ENDCHAR
STARTCHAR uni1E2D
ENCODING 7725
SWIDTH 343 0
DWIDTH 7 0
BBX 9 17 -1 -3
BITMAP
0780
0F80
0000
0F00
0F00
0F00
1E00
1E00
1E00
1E00
1E00
3C00
3C00
3C00
0000
7F00
FE00
ENDCHAR
STARTCHAR uni1E2E
ENCODING 7726
SWIDTH 361 0
DWIDTH 7 0
BBX 9 20 2 0
BITMAP
0780
1C00
0000
3B80
3B80
0000
1E00
1E00
3C00
3C00
3C00
3C00
3C00
7800
7800
7800
7800
7800
F000
F000
ENDCHAR
STARTCHAR uni1E2F
ENCODING 7727
SWIDTH 343 0
DWIDTH 7 0
BBX 9 17 2 0
BITMAP
0780
1C00
0000
3B80
3B80
0000
3C00
3C00
3C00
7800
7800
7800
7800
7800
F000
F000
F000
ENDCHAR
STARTCHAR uni1E30
ENCODING 7728
SWIDTH 753 0
DWIDTH 15 0
BBX 14 17 2 0
BITMAP
01E0
0700
0000
1E1C
1E38
3C70
3CE0
3DC0
3D80
3B00
7F80
79C0
79C0
78E0
70E0
F070
F078
ENDCHAR
STARTCHAR uni1E31
ENCODING 7729
SWIDTH 666 0
DWIDTH 13 0
BBX 12 17 1 0
BITMAP
03C0
0E00
0000
1E00
1E00
1C00
3C30
3C60
3CC0
3880
7900
7F80
7B80
7980
71C0
F1C0
F0E0
ENDCHAR
STARTCHAR uni1E32
ENCODING 7730
SWIDTH 753 0
DWIDTH 15 0
BBX 14 17 2 -3
BITMAP
1E1C
1E38
3C70
3CE0
3DC0
3D80
3B00
7F80
79C0
79C0
78E0
70E0
F070
F078
0000
0700
0700
ENDCHAR
STARTCHAR uni1E33
ENCODING 7731
SWIDTH 666 0
DWIDTH 13 0
BBX 12 17 1 -3
BITMAP
1E00
1E00
1C00
3C30
3C60
3CC0
3880
7900
7F80
7B80
7980
71C0
F1C0
F0E0
0000
0E00
0E00
ENDCHAR
STARTCHAR uni1E34
ENCODING 7732
SWIDTH 753 0
DWIDTH 15 0
BBX 14 17 2 -3
BITMAP
1E1C
1E38
3C70
3CE0
3DC0
3D80
3B00
7F80
79C0
79C0
78E0
70E0
F070
F078
0000
1FC0
1FC0
ENDCHAR
STARTCHAR uni1E35
ENCODING 7733
SWIDTH 666 0
DWIDTH 13 0
BBX 12 17 1 -3
BITMAP
1E00
1E00
1C00
3C30
3C60
3CC0
3880
7900
7F80
7B80
7980
71C0
F1C0
F0E0
0000
3F80
3F80
ENDCHAR
STARTCHAR uni1E36
ENCODING 7734
SWIDTH 623 0
DWIDTH 12 0
BBX 11 17 2 -3
BITMAP
1E00
1E00
3C00
3C00
3C00
3C00
3800
7800
7800
7800
7800
7000
FFE0
FFE0
0000
0E00
0E00
ENDCHAR
STARTCHAR uni1E37
ENCODING 7735
SWIDTH 343 0
DWIDTH 7 0
BBX 7 17 1 -3
BITMAP
1E
1E
1C
3C
3C
3C
3C
78
78
78
78
70
F0
F0
00
70
70
ENDCHAR
STARTCHAR uni1E38
ENCODING 7736
SWIDTH 623 0
DWIDTH 12 0
BBX 11 20 2 -3
BITMAP
7F00
7F00
0000
1E00
1E00
3C00
3C00
3C00
3C00
3800
7800
7800
7800
7800
7000
FFE0
FFE0
0000
0E00
0E00
ENDCHAR
STARTCHAR uni1E39
ENCODING 7737
SWIDTH 343 0
DWIDTH 7 0
BBX 8 20 1 -3
BITMAP
7F
7F
00
1E
1E
1C
3C
3C
3C
3C
78
78
78
78
70
F0
F0
00
70
70
ENDCHAR
STARTCHAR uni1E3A
ENCODING 7738
SWIDTH 623 0
DWIDTH 12 0
BBX 11 17 2 -3
BITMAP
1E00
1E00
3C00
3C00
3C00
3C00
3800
7800
7800
7800
7800
7000
FFE0
FFE0
0000
3F80
3F80
ENDCHAR
STARTCHAR uni1E3B
ENCODING 7739
SWIDTH 343 0
DWIDTH 7 0
BBX 8 17 0 -3
BITMAP
0F
0F
0E
1E
1E
1E
1E
3C
3C
3C
3C
38
78
78
00
FE
FE
ENDCHAR
STARTCHAR uni1E3C
ENCODING 7740
SWIDTH 623 0
DWIDTH 12 0
BBX 11 17 2 -3
BITMAP
1E00
1E00
3C00
3C00
3C00
3C00
3800
7800
7800
7800
7800
7000
FFE0
FFE0
0000
1E00
7700
ENDCHAR
STARTCHAR uni1E3D
ENCODING 7741
SWIDTH 343 0
DWIDTH 7 0
BBX 8 17 0 -3
BITMAP
0F
0F
0E
1E
1E
1E
1E
3C
3C
3C
3C
38
78
78
00
3C
EE
ENDCHAR
STARTCHAR uni1E3E
ENCODING 7742
SWIDTH 940 0
DWIDTH 19 0
BBX 18 17 2 0
BITMAP
007800
01C000
000000
1F03C0
1F07C0
3F0780
3F0F80
3F0B80
3F1780
371780
77A700
77E700
73C700
73CF00
638F00
E30E00
E00E00
ENDCHAR
STARTCHAR uni1E3F
ENCODING 7743
SWIDTH 991 0
DWIDTH 20 0
BBX 19 14 1 0
BITMAP
003C00
00E000
000000
3CE1C0
3DF3E0
3BF7E0
7AFDC0
7CF9C0
7CF1C0
78F1C0
71E180
F1E180
F1E380
F1E380
ENDCHAR
STARTCHAR uni1E40
ENCODING 7744
SWIDTH 940 0
DWIDTH 19 0
BBX 18 17 2 0
BITMAP
00E000
00E000
000000
1F03C0
1F07C0
3F0780
3F0F80
3F0B80
3F1780
371780
77A700
77E700
73C700
73CF00
638F00
E30E00
E00E00
ENDCHAR
STARTCHAR uni1E41
ENCODING 7745
SWIDTH 991 0
DWIDTH 20 0
BBX 19 14 1 0
BITMAP
007000
007000
000000
3CE1C0
3DF3E0
3BF7E0
7AFDC0
7CF9C0
7CF1C0
78F1C0
71E180
F1E180
F1E380
F1E380
ENDCHAR
STARTCHAR uni1E42
ENCODING 7746
SWIDTH 940 0
DWIDTH 19 0
BBX 18 17 2 -3
BITMAP
1F03C0
1F07C0
3F0780
3F0F80
3F0B80
3F1780
371780
77A700
77E700
73C700
73CF00
638F00
E30E00
E00E00
000000
01C000
01C000
ENDCHAR
STARTCHAR uni1E43
ENCODING 7747
SWIDTH 991 0
DWIDTH 20 0
BBX 19 14 1 -3
BITMAP
3CE1C0
3DF3E0
3BF7E0
7AFDC0
7CF9C0
7CF1C0
78F1C0
71E180
F1E180
F1E380
F1E380
000000
01C000
01C000
ENDCHAR
STARTCHAR uni1E44
ENCODING 7748
SWIDTH 789 0
DWIDTH 16 0
BBX 15 17 2 0
BITMAP
0380
0380
0000
1C0E
1C0E
3E0C
3E1C
3F1C
3F1C
339C
7398
71F8
71F8
70F8
60F8
E070
E070
ENDCHAR
STARTCHAR uni1E45
ENCODING 7749
SWIDTH 675 0
DWIDTH 13 0
BBX 12 14 2 0
BITMAP
0700
0700
0000
3CE0
3DF0
3BF0
7AE0
7CE0
7CE0
78E0
70E0
F0C0
F1C0
F1C0
ENDCHAR
STARTCHAR uni1E46
ENCODING 7750
SWIDTH 789 0
DWIDTH 16 0
BBX 15 17 2 -3
BITMAP
1C0E
1C0E
3E0C
3E1C
3F1C
3F1C
339C
7398
71F8
71F8
70F8
60F8
E070
E070
0000
0380
0380
ENDCHAR
STARTCHAR uni1E47
ENCODING 7751
SWIDTH 675 0
DWIDTH 13 0
BBX 12 14 2 -3
BITMAP
3CE0
3DF0
3BF0
7AE0
7CE0
7CE0
78E0
70E0
F0C0
F1C0
F1C0
0000
0E00
0E00
ENDCHAR
STARTCHAR uni1E48
ENCODING 7752
SWIDTH 789 0
DWIDTH 16 0
BBX 15 17 2 -3
BITMAP
1C0E
1C0E
3E0C
3E1C
3F1C
3F1C
339C
7398
71F8
71F8
70F8
60F8
E070
E070
0000
0FE0
0FE0
ENDCHAR
STARTCHAR uni1E49
ENCODING 7753
SWIDTH 675 0
DWIDTH 13 0
BBX 12 14 2 -3
BITMAP
3CE0
3DF0
3BF0
7AE0
7CE0
7CE0
78E0
70E0
F0C0
F1C0
F1C0
0000
3F80
3F80
ENDCHAR
STARTCHAR uni1E4A
ENCODING 7754
SWIDTH 789 0
DWIDTH 16 0
BBX 15 17 2 -3
BITMAP
1C0E
1C0E
3E0C
3E1C
3F1C
3F1C
339C
7398
71F8
71F8
70F8
60F8
E070
E070
0000
0780
1DC0
ENDCHAR
STARTCHAR uni1E4B
ENCODING 7755
SWIDTH 675 0
DWIDTH 13 0
BBX 12 14 2 -3
BITMAP
3CE0
3DF0
3BF0
7AE0
7CE0
7CE0
78E0
70E0
F0C0
F1C0
F1C0
0000
1E00
7700
ENDCHAR
STARTCHAR uni1E4C
ENCODING 7756
SWIDTH 855 0
DWIDTH 17 0
BBX 14 20 3 0
BITMAP
00F0
0380
0000
03F8
07F0
0000
03E0
0FF8
1C38
381C
701C
701C
E01C
E01C
E038
E038
F070
70E0
7FC0
1F00
ENDCHAR
STARTCHAR uni1E4D
ENCODING 7757
SWIDTH 663 0
DWIDTH 13 0
BBX 11 17 3 0
BITMAP
03C0
0E00
0000
0FE0
1FC0
0000
0F80
1FC0
39C0
71C0
61C0
E1C0
E1C0
E180
E380
7F00
3C00
ENDCHAR
STARTCHAR uni1E4E
ENCODING 7758
SWIDTH 855 0
DWIDTH 17 0
BBX 14 20 3 0
BITMAP
0770
0770
0000
03F8
07F0
0000
03E0
0FF8
1C38
381C
701C
701C
E01C
E01C
E038
E038
F070
70E0
7FC0
1F00
ENDCHAR
STARTCHAR uni1E4F
ENCODING 7759
SWIDTH 663 0
DWIDTH 13 0
BBX 11 17 3 0
BITMAP
1DC0
1DC0
0000
0FE0
1FC0
0000
0F80
1FC0
39C0
71C0
61C0
E1C0
E1C0
E180
E380
7F00
3C00
ENDCHAR
STARTCHAR uni1E50
ENCODING 7760
SWIDTH 855 0
DWIDTH 17 0
BBX 14 20 3 0
BITMAP
0780
01C0
0000
0FE0
0FE0
0000
03E0
0FF8
1C38
381C
701C
701C
E01C
E01C
E038
E038
F070
70E0
7FC0
1F00
ENDCHAR
STARTCHAR uni1E51
ENCODING 7761
SWIDTH 663 0
DWIDTH 13 0
BBX 10 17 3 0
BITMAP
3C00
0E00
0000
3F80
3F80
0000
0F80
1FC0
39C0
71C0
61C0
E1C0
E1C0
E180
E380
7F00
3C00
ENDCHAR
STARTCHAR uni1E52
ENCODING 7762
SWIDTH 855 0
DWIDTH 17 0
BBX 14 20 3 0
BITMAP
00F0
0380
0000
0FE0
0FE0
0000
03E0
0FF8
1C38
381C
701C
701C
E01C
E01C
E038
E038
F070
70E0
7FC0
1F00
ENDCHAR
STARTCHAR uni1E53
ENCODING 7763
SWIDTH 663 0
DWIDTH 13 0
BBX 10 17 3 0
BITMAP
03C0
0E00
0000
3F80
3F80
0000
0F80
1FC0
39C0
71C0
61C0
E1C0
E1C0
E180
E380
7F00
3C00
ENDCHAR
STARTCHAR uni1E54
ENCODING 7764
SWIDTH 645 0
DWIDTH 13 0
BBX 13 17 2 0
BITMAP
01E0
0700
0000
1FF0
1FF8
3C38
3C38
3C38
3870
3FE0
7F80
7800
7800
7000
7000
F000
F000
ENDCHAR
STARTCHAR uni1E55
ENCODING 7765
SWIDTH 681 0
DWIDTH 14 0
BBX 13 18 1 -4
BITMAP
01E0
0700
0000
1E70
1CF8
3DF8
3D38
3A38
3C30
3870
7860
78E0
7FC0
7F00
7000
F000
F000
F000
ENDCHAR
STARTCHAR uni1E56
ENCODING 7766
SWIDTH 645 0
DWIDTH 13 0
BBX 13 17 2 0
BITMAP
0380
0380
0000
1FF0
1FF8
3C38
3C38
3C38
3870
3FE0
7F80
7800
7800
7000
7000
F000
F000
ENDCHAR
STARTCHAR uni1E57
ENCODING 7767
SWIDTH 681 0
DWIDTH 14 0
BBX 13 18 1 -4
BITMAP
0380
0380
0000
1E70
1CF8
3DF8
3D38
3A38
3C30
3870
7860
78E0
7FC0
7F00
7000
F000
F000
F000
ENDCHAR
STARTCHAR uni1E58
ENCODING 7768
SWIDTH 708 0
DWIDTH 14 0
BBX 13 17 2 0
BITMAP
0380
0380
0000
1FF0
1FF8
3C38
3C38
3C38
3870
3FE0
7F80
7980
79C0
71C0
70C0
F0E0
F0F0
ENDCHAR
STARTCHAR uni1E59
ENCODING 7769
SWIDTH 542 0
DWIDTH 11 0
BBX 11 14 2 0
BITMAP
0E00
0E00
0000
3C60
3DC0
3B40
7A00
7C00
7800
7800
7000
F000
F000
F000
ENDCHAR
STARTCHAR uni1E5A
ENCODING 7770
SWIDTH 708 0
DWIDTH 14 0
BBX 13 17 2 -3
BITMAP
1FF0
1FF8
3C38
3C38
3C38
3870
3FE0
7F80
7980
79C0
71C0
70C0
F0E0
F0F0
0000
0E00
0E00
ENDCHAR
STARTCHAR uni1E5B
ENCODING 7771
SWIDTH 542 0
DWIDTH 11 0
BBX 11 14 2 -3
BITMAP
3C60
3DC0
3B40
7A00
7C00
7800
7800
7000
F000
F000
F000
0000
3800
3800
ENDCHAR
STARTCHAR uni1E5C
ENCODING 7772
SWIDTH 708 0
DWIDTH 14 0
BBX 13 20 2 -3
BITMAP
0FE0
0FE0
0000
1FF0
1FF8
3C38
3C38
3C38
3870
3FE0
7F80
7980
79C0
71C0
70C0
F0E0
F0F0
0000
0E00
0E00
ENDCHAR
STARTCHAR uni1E5D
ENCODING 7773
SWIDTH 542 0
DWIDTH 11 0
BBX 11 17 2 -3
BITMAP
3F80
3F80
0000
3C60
3DC0
3B40
7A00
7C00
7800
7800
7000
F000
F000
F000
0000
3800
3800
ENDCHAR
STARTCHAR uni1E5E
ENCODING 7774
SWIDTH 708 0
DWIDTH 14 0
BBX 13 17 2 -3
BITMAP
1FF0
1FF8
3C38
3C38
3C38
3870
3FE0
7F80
7980
79C0
71C0
70C0
F0E0
F0F0
0000
3F80
3F80
ENDCHAR
STARTCHAR uni1E5F
ENCODING 7775
SWIDTH 542 0
DWIDTH 11 0
BBX 11 14 2 -3
BITMAP
3C60
3DC0
3B40
7A00
7C00
7800
7800
7000
F000
F000
F000
0000
FE00
FE00
ENDCHAR
STARTCHAR uni1E60
ENCODING 7776
SWIDTH 639 0
DWIDTH 13 0
BBX 12 17 2 0
BITMAP
0700
0700
0000
07F0
1FF0
3830
3800
3C00
3E00
1F80
0FC0
03E0
00E0
00E0
41C0
FF80
FE00
ENDCHAR
STARTCHAR uni1E61
ENCODING 7777
SWIDTH 527 0
DWIDTH 11 0
BBX 10 14 1 0
BITMAP
0E00
0E00
0000
0FC0
1FC0
3C00
3C00
3E00
1F00
0F80
0780
C780
FF00
FE00
ENDCHAR
STARTCHAR uni1E62
ENCODING 7778
SWIDTH 639 0
DWIDTH 13 0
BBX 12 17 2 -3
BITMAP
07F0
1FF0
3830
3800
3C00
3E00
1F80
0FC0
03E0
00E0
00E0
41C0
FF80
FE00
0000
0E00
0E00
ENDCHAR
STARTCHAR uni1E63
ENCODING 7779
SWIDTH 527 0
DWIDTH 11 0
BBX 10 14 1 -3
BITMAP
0FC0
1FC0
3C00
3C00
3E00
1F00
0F80
0780
C780
FF00
FE00
0000
1C00
1C00
ENDCHAR
STARTCHAR uni1E64
ENCODING 7780
SWIDTH 639 0
DWIDTH 13 0
BBX 12 20 2 0
BITMAP
0380
0380
0000
01E0
0700
0000
07F0
1FF0
3830
3800
3C00
3E00
1F80
0FC0
03E0
00E0
00E0
41C0
FF80
FE00
ENDCHAR
STARTCHAR uni1E65
ENCODING 7781
SWIDTH 527 0
DWIDTH 11 0
BBX 10 17 1 0
BITMAP
0700
0700
0000
03C0
0E00
0000
0FC0
1FC0
3C00
3C00
3E00
1F00
0F80
0780
C780
FF00
FE00
ENDCHAR
STARTCHAR uni1E66
ENCODING 7782
SWIDTH 639 0
DWIDTH 13 0
BBX 12 20 2 0
BITMAP
0380
0380
0000
0770
03C0
0000
07F0
1FF0
3830
3800
3C00
3E00
1F80
0FC0
03E0
00E0
00E0
41C0
FF80
FE00
ENDCHAR
STARTCHAR uni1E67
ENCODING 7783
SWIDTH 527 0
DWIDTH 11 0
BBX 11 17 1 0
BITMAP
0700
0700
0000
0EE0
0780
0000
0FC0
1FC0
3C00
3C00
3E00
1F00
0F80
0780
C780
FF00
FE00
ENDCHAR
STARTCHAR uni1E68
ENCODING 7784
SWIDTH 639 0
DWIDTH 13 0
BBX 12 20 2 -3
BITMAP
0700
0700
0000
07F0
1FF0
3830
3800
3C00
3E00
1F80
0FC0
03E0
00E0
00E0
41C0
FF80
FE00
0000
0E00
0E00
ENDCHAR
STARTCHAR uni1E69
ENCODING 7785
SWIDTH 527 0
DWIDTH 11 0
BBX 10 17 1 -3
BITMAP
0E00
0E00
0000
0FC0
1FC0
3C00
3C00
3E00
1F00
0F80
0780
C780
FF00
FE00
0000
1C00
1C00
ENDCHAR
STARTCHAR uni1E6A
ENCODING 7786
SWIDTH 747 0
DWIDTH 15 0
BBX 15 17 3 0
BITMAP
0380
0380
0000
FFFE
FFFE
0780
0780
0780
0700
0F00
0F00
0F00
0F00
0F00
1E00
1E00
1E00
ENDCHAR
STARTCHAR uni1E6B
ENCODING 7787
SWIDTH 437 0
DWIDTH 9 0
BBX 7 16 2 0
BITMAP
38
38
00
3C
38
FE
FE
78
70
70
70
E0
E0
F4
FC
78
ENDCHAR
STARTCHAR uni1E6C
ENCODING 7788
SWIDTH 747 0
DWIDTH 15 0
BBX 15 17 3 -3
BITMAP
FFFE
FFFE
0780
0780
0780
0700
0F00
0F00
0F00
0F00
0F00
1E00
1E00
1E00
0000
0700
0700
ENDCHAR
STARTCHAR uni1E6D
ENCODING 7789
SWIDTH 437 0
DWIDTH 9 0
BBX 7 16 2 -3
BITMAP
3C
38
FE
FE
78
70
70
70
E0
E0
F4
FC
78
00
70
70
ENDCHAR
STARTCHAR uni1E6E
ENCODING 7790
SWIDTH 747 0
DWIDTH 15 0
BBX 15 17 3 -3
BITMAP
FFFE
FFFE
0780
0780
0780
0700
0F00
0F00
0F00
0F00
0F00
1E00
1E00
1E00
0000
1FC0
1FC0
ENDCHAR
STARTCHAR uni1E6F
ENCODING 7791
SWIDTH 437 0
DWIDTH 9 0
BBX 8 16 1 -3
BITMAP
1E
1C
7F
7F
3C
38
38
38
70
70
7A
7E
3C
00
FE
FE
ENDCHAR
STARTCHAR uni1E70
ENCODING 7792
SWIDTH 747 0
DWIDTH 15 0
BBX 15 17 3 -3
BITMAP
FFFE
FFFE
0780
0780
0780
0700
0F00
0F00
0F00
0F00
0F00
1E00
1E00
1E00
0000
0F00
3B80
ENDCHAR
STARTCHAR uni1E71
ENCODING 7793
SWIDTH 437 0
DWIDTH 9 0
BBX 8 16 1 -3
BITMAP
1E
1C
7F
7F
3C
38
38
38
70
70
7A
7E
3C
00
3C
EE
ENDCHAR
STARTCHAR uni1E72
ENCODING 7794
SWIDTH 759 0
DWIDTH 15 0
BBX 14 17 3 -3
BITMAP
3C1C
383C
7838
7838
7038
7038
7078
E070
E070
E070
E0F0
F0E0
7FC0
1F80
0000
1DC0
1DC0
ENDCHAR
STARTCHAR uni1E73
ENCODING 7795
SWIDTH 675 0
DWIDTH 13 0
BBX 12 14 2 -3
BITMAP
38F0
38F0
30F0
70E0
71E0
73E0
73E0
75E0
FDC0
FBC0
73C0
0000
3B80
3B80
ENDCHAR
STARTCHAR uni1E74
ENCODING 7796
SWIDTH 759 0
DWIDTH 15 0
BBX 14 17 3 -3
BITMAP
3C1C
383C
7838
7838
7038
7038
7078
E070
E070
E070
E0F0
F0E0
7FC0
1F80
0000
1FC0
3F80
ENDCHAR
STARTCHAR uni1E75
ENCODING 7797
SWIDTH 675 0
DWIDTH 13 0
BBX 12 14 2 -3
BITMAP
38F0
38F0
30F0
70E0
71E0
73E0
73E0
75E0
FDC0
FBC0
73C0
0000
3F80
7F00
ENDCHAR
STARTCHAR uni1E76
ENCODING 7798
SWIDTH 759 0
DWIDTH 15 0
BBX 14 17 3 -3
BITMAP
3C1C
383C
7838
7838
7038
7038
7078
E070
E070
E070
E0F0
F0E0
7FC0
1F80
0000
0F00
3B80
ENDCHAR
STARTCHAR uni1E77
ENCODING 7799
SWIDTH 675 0
DWIDTH 13 0
BBX 12 14 2 -3
BITMAP
38F0
38F0
30F0
70E0
71E0
73E0
73E0
75E0
FDC0
FBC0
73C0
0000
0F00
3B80
ENDCHAR
STARTCHAR uni1E78
ENCODING 7800
SWIDTH 759 0
DWIDTH 15 0
BBX 14 20 3 0
BITMAP
00F0
0380
0000
07F0
0FE0
0000
3C1C
383C
7838
7838
7038
7038
7078
E070
E070
E070
E0F0
F0E0
7FC0
1F80
ENDCHAR
STARTCHAR uni1E79
ENCODING 7801
SWIDTH 675 0
DWIDTH 13 0
BBX 12 17 2 0
BITMAP
01E0
0700
0000
0FE0
1FC0
0000
38F0
38F0
30F0
70E0
71E0
73E0
73E0
75E0
FDC0
FBC0
73C0
ENDCHAR
STARTCHAR uni1E7A
ENCODING 7802
SWIDTH 759 0
DWIDTH 15 0
BBX 14 20 3 0
BITMAP
0EE0
0EE0
0000
0FE0
0FE0
0000
3C1C
383C
7838
7838
7038
7038
7078
E070
E070
E070
E0F0
F0E0
7FC0
1F80
ENDCHAR
STARTCHAR uni1E7B
ENCODING 7803
SWIDTH 675 0
DWIDTH 13 0
BBX 12 17 2 0
BITMAP
1DC0
1DC0
0000
1FC0
1FC0
0000
38F0
38F0
30F0
70E0
71E0
73E0
73E0
75E0
FDC0
FBC0
73C0
ENDCHAR
STARTCHAR uni1E7C
ENCODING 7804
SWIDTH 765 0
DWIDTH 15 0
BBX 14 17 3 0
BITMAP
1FC0
3F80
0000
F01C
F018
F030
7030
7860
78E0
78C0
79C0
7980
3B00
3F00
3E00
3E00
3C00
ENDCHAR
STARTCHAR uni1E7D
ENCODING 7805
SWIDTH 630 0
DWIDTH 13 0
BBX 12 14 2 0
BITMAP
1FC0
3F80
0000
F070
F060
F0C0
70C0
7980
7B80
7B00
7F00
7E00
3C00
3C00
ENDCHAR
STARTCHAR uni1E7E
ENCODING 7806
SWIDTH 765 0
DWIDTH 15 0
BBX 14 17 3 -3
BITMAP
F01C
F018
F030
7030
7860
78E0
78C0
79C0
7980
3B00
3F00
3E00
3E00
3C00
0000
0E00
0E00
ENDCHAR
STARTCHAR uni1E7F
ENCODING 7807
SWIDTH 630 0
DWIDTH 13 0
BBX 12 14 2 -3
BITMAP
F070
F060
F0C0
70C0
7980
7B80
7B00
7F00
7E00
3C00
3C00
0000
1C00
1C00
ENDCHAR
STARTCHAR Wgrave
ENCODING 7808
SWIDTH 991 0
DWIDTH 20 0
BBX 17 17 4 0
BITMAP
0F0000
038000
000000
E18180
E18100
E38300
E38200
E38600
E58400
E58C00
ED8800
E99800
E9B000
F1B000
71E000
71E000
61C000
ENDCHAR
STARTCHAR wgrave
ENCODING 7809
SWIDTH 878 0
DWIDTH 18 0
BBX 17 14 3 0
BITMAP
03C000
00E000
000000
C0C380
C1E300
C1E700
E2E600
E26E00
E46C00
E47C00
E87800
F87800
F07000
F07000
ENDCHAR
STARTCHAR Wacute
ENCODING 7810
SWIDTH 991 0
DWIDTH 20 0
BBX 17 17 4 0
BITMAP
01E000
070000
000000
E18180
E18100
E38300
E38200
E38600
E58400
E58C00
ED8800
E99800
E9B000
F1B000
71E000
71E000
61C000
ENDCHAR
STARTCHAR wacute
ENCODING 7811
SWIDTH 878 0
DWIDTH 18 0
BBX 17 14 3 0
BITMAP
007800
01C000
000000
C0C380
C1E300
C1E700
E2E600
E26E00
E46C00
E47C00
E87800
F87800
F07000
F07000
ENDCHAR
STARTCHAR Wdieresis
ENCODING 7812
SWIDTH 991 0
DWIDTH 20 0
BBX 17 17 4 0
BITMAP
0EE000
0EE000
000000
E18180
E18100
E38300
E38200
E38600
E58400
E58C00
ED8800
E99800
E9B000
F1B000
71E000
71E000
61C000
ENDCHAR
STARTCHAR wdieresis
ENCODING 7813
SWIDTH 878 0
DWIDTH 18 0
BBX 17 14 3 0
BITMAP
077000
077000
000000
C0C380
C1E300
C1E700
E2E600
E26E00
E46C00
E47C00
E87800
F87800
F07000
F07000
ENDCHAR
STARTCHAR uni1E86
ENCODING 7814
SWIDTH 991 0
DWIDTH 20 0
BBX 17 17 4 0
BITMAP
038000
038000
000000
E18180
E18100
E38300
E38200
E38600
E58400
E58C00
ED8800
E99800
E9B000
F1B000
71E000
71E000
61C000
ENDCHAR
STARTCHAR uni1E87
ENCODING 7815
SWIDTH 878 0
DWIDTH 18 0
BBX 17 14 3 0
BITMAP
01C000
01C000
000000
C0C380
C1E300
C1E700
E2E600
E26E00
E46C00
E47C00
E87800
F87800
F07000
F07000
ENDCHAR
STARTCHAR uni1E88
ENCODING 7816
SWIDTH 991 0
DWIDTH 20 0
BBX 17 17 4 -3
BITMAP
E18180
E18100
E38300
E38200
E38600
E58400
E58C00
ED8800
E99800
E9B000
F1B000
71E000
71E000
61C000
000000
070000
070000
ENDCHAR
STARTCHAR uni1E89
ENCODING 7817
SWIDTH 878 0
DWIDTH 18 0
BBX 17 14 3 -3
BITMAP
C0C380
C1E300
C1E700
E2E600
E26E00
E46C00
E47C00
E87800
F87800
F07000
F07000
000000
070000
070000
ENDCHAR
STARTCHAR uni1E8A
ENCODING 7818
SWIDTH 696 0
DWIDTH 14 0
BBX 15 17 -1 0
BITMAP
0380
0380
0000
1C0E
1E18
0E38
0E70
07E0
07C0
0780
0780
0F80
09C0
19C0
30E0
60E0
C0F0
ENDCHAR
STARTCHAR uni1E8B
ENCODING 7819
SWIDTH 563 0
DWIDTH 11 0
BBX 13 14 0 0
BITMAP
0700
0700
0000
3E38
1E60
1EE0
0FC0
0F80
0780
0F80
1FC0
3BC0
33C0
E1E0
ENDCHAR
STARTCHAR uni1E8C
ENCODING 7820
SWIDTH 696 0
DWIDTH 14 0
BBX 15 17 -1 0
BITMAP
0EE0
0EE0
0000
1C0E
1E18
0E38
0E70
07E0
07C0
0780
0780
0F80
09C0
19C0
30E0
60E0
C0F0
ENDCHAR
STARTCHAR uni1E8D
ENCODING 7821
SWIDTH 563 0
DWIDTH 11 0
BBX 13 14 0 0
BITMAP
1DC0
1DC0
0000
3E38
1E60
1EE0
0FC0
0F80
0780
0F80
1FC0
3BC0
33C0
E1E0
ENDCHAR
STARTCHAR uni1E8E
ENCODING 7822
SWIDTH 681 0
DWIDTH 14 0
BBX 12 17 2 0
BITMAP
0E00
0E00
0000
E070
E0E0
61C0
7380
7300
3600
3E00
3C00
3C00
3800
7800
7800
7800
7800
ENDCHAR
STARTCHAR uni1E8F
ENCODING 7823
SWIDTH 633 0
DWIDTH 13 0
BBX 14 18 1 -4
BITMAP
0700
0700
0000
3C0C
3C18
3C30
3C20
3C60
1EC0
1E80
1F80
1F00
1E00
0E00
0C00
1800
3800
F000
ENDCHAR
STARTCHAR uni1E90
ENCODING 7824
SWIDTH 687 0
DWIDTH 14 0
BBX 14 17 1 0
BITMAP
01E0
0770
0000
1FFC
1FFC
0078
00F0
01E0
01C0
0380
0700
0E00
1E00
3C00
7800
7FF0
FFF0
ENDCHAR
STARTCHAR uni1E91
ENCODING 7825
SWIDTH 630 0
DWIDTH 13 0
BBX 12 14 1 0
BITMAP
0780
1DC0
0000
3FF0
3FE0
00C0
0180
0300
0600
0C00
1800
3000
7FE0
FFE0
ENDCHAR
STARTCHAR uni1E92
ENCODING 7826
SWIDTH 687 0
DWIDTH 14 0
BBX 14 17 1 -3
BITMAP
1FFC
1FFC
0078
00F0
01E0
01C0
0380
0700
0E00
1E00
3C00
7800
7FF0
FFF0
0000
0700
0700
ENDCHAR
STARTCHAR uni1E93
ENCODING 7827
SWIDTH 630 0
DWIDTH 13 0
BBX 12 14 1 -3
BITMAP
3FF0
3FE0
00C0
0180
0300
0600
0C00
1800
3000
7FE0
FFE0
0000
0E00
0E00
ENDCHAR
STARTCHAR uni1E94
ENCODING 7828
SWIDTH 687 0
DWIDTH 14 0
BBX 14 17 1 -3
BITMAP
1FFC
1FFC
0078
00F0
01E0
01C0
0380
0700
0E00
1E00
3C00
7800
7FF0
FFF0
0000
1FC0
1FC0
ENDCHAR
STARTCHAR uni1E95
ENCODING 7829
SWIDTH 630 0
DWIDTH 13 0
BBX 12 14 1 -3
BITMAP
3FF0
3FE0
00C0
0180
0300
0600
0C00
1800
3000
7FE0
FFE0
0000
3F80
3F80
ENDCHAR
STARTCHAR uni1E96
ENCODING 7830
SWIDTH 675 0
DWIDTH 13 0
BBX 12 17 2 -3
BITMAP
1E00
1C00
3C00
3CE0
3DF0
3BF0
3BE0
7CE0
7CE0
78E0
70E0
70C0
F1C0
F1C0
0000
3F80
3F80
ENDCHAR
STARTCHAR uni1E97
ENCODING 7831
SWIDTH 437 0
DWIDTH 9 0
BBX 7 16 2 0
BITMAP
EE
EE
00
3C
38
FE
FE
78
70
70
70
E0
E0
F4
FC
78
ENDCHAR
STARTCHAR uni1E98
ENCODING 7832
SWIDTH 878 0
DWIDTH 18 0
BBX 17 14 3 0
BITMAP
01C000
01C000
000000
C0C380
C1E300
C1E700
E2E600
E26E00
E46C00
E47C00
E87800
F87800
F07000
F07000
ENDCHAR
STARTCHAR uni1E99
ENCODING 7833
SWIDTH 633 0
DWIDTH 13 0
BBX 14 18 1 -4
BITMAP
0700
0700
0000
3C0C
3C18
3C30
3C20
3C60
1EC0
1E80
1F80
1F00
1E00
0E00
0C00
1800
3800
F000
ENDCHAR
STARTCHAR uni1EA0
ENCODING 7840
SWIDTH 771 0
DWIDTH 15 0
BBX 14 17 1 -3
BITMAP
00E0
01F0
01F0
03F0
0270
0670
0C78
0C78
1FF8
1FF8
3038
203C
603C
E03C
0000
01C0
01C0
ENDCHAR
STARTCHAR uni1EA1
ENCODING 7841
SWIDTH 681 0
DWIDTH 14 0
BBX 13 14 1 -3
BITMAP
07F8
0FF8
1C78
30F0
70F0
61F0
E2F0
E6F0
FDE0
F9E0
71E0
0000
0E00
0E00
ENDCHAR
STARTCHAR uni1EA4
ENCODING 7844
SWIDTH 771 0
DWIDTH 15 0
BBX 14 20 1 0
BITMAP
0078
01C0
0000
00F0
03B8
0000
00E0
01F0
01F0
03F0
0270
0670
0C78
0C78
1FF8
1FF8
3038
203C
603C
E03C
ENDCHAR
STARTCHAR uni1EA5
ENCODING 7845
SWIDTH 681 0
DWIDTH 14 0
BBX 13 17 1 0
BITMAP
00F0
0380
0000
01E0
0770
0000
07F8
0FF8
1C78
30F0
70F0
61F0
E2F0
E6F0
FDE0
F9E0
71E0
ENDCHAR
STARTCHAR uni1EA6
ENCODING 7846
SWIDTH 771 0
DWIDTH 15 0
BBX 14 20 1 0
BITMAP
03C0
00E0
0000
00F0
03B8
0000
00E0
01F0
01F0
03F0
0270
0670
0C78
0C78
1FF8
1FF8
3038
203C
603C
E03C
ENDCHAR
STARTCHAR uni1EA7
ENCODING 7847
SWIDTH 681 0
DWIDTH 14 0
BBX 13 17 1 0
BITMAP
0780
01C0
0000
01E0
0770
0000
07F8
0FF8
1C78
30F0
70F0
61F0
E2F0
E6F0
FDE0
F9E0
71E0
ENDCHAR
STARTCHAR uni1EAA
ENCODING 7850
SWIDTH 771 0
DWIDTH 15 0
BBX 14 20 1 0
BITMAP
03F8
07F0
0000
00F0
03B8
0000
00E0
01F0
01F0
03F0
0270
0670
0C78
0C78
1FF8
1FF8
3038
203C
603C
E03C
ENDCHAR
STARTCHAR uni1EAB
ENCODING 7851
SWIDTH 681 0
DWIDTH 14 0
BBX 13 17 1 0
BITMAP
07F0
0FE0
0000
01E0
0770
0000
07F8
0FF8
1C78
30F0
70F0
61F0
E2F0
E6F0
FDE0
F9E0
71E0
ENDCHAR
STARTCHAR uni1EAC
ENCODING 7852
SWIDTH 771 0
DWIDTH 15 0
BBX 14 20 1 -3
BITMAP
01E0
0770
0000
00E0
01F0
01F0
03F0
0270
0670
0C78
0C78
1FF8
1FF8
3038
203C
603C
E03C
0000
01C0
01C0
ENDCHAR
STARTCHAR uni1EAD
ENCODING 7853
SWIDTH 681 0
DWIDTH 14 0
BBX 13 17 1 -3
BITMAP
03C0
0EE0
0000
07F8
0FF8
1C78
30F0
70F0
61F0
E2F0
E6F0
FDE0
F9E0
71E0
0000
0E00
0E00
ENDCHAR
STARTCHAR uni1EAE
ENCODING 7854
SWIDTH 771 0
DWIDTH 15 0
BBX 14 20 1 0
BITMAP
00F0
0380
0000
0770
03C0
0000
00E0
01F0
01F0
03F0
0270
0670
0C78
0C78
1FF8
1FF8
3038
203C
603C
E03C
ENDCHAR
STARTCHAR uni1EAF
ENCODING 7855
SWIDTH 681 0
DWIDTH 14 0
BBX 13 17 1 0
BITMAP
00F0
0380
0000
0770
03C0
0000
07F8
0FF8
1C78
30F0
70F0
61F0
E2F0
E6F0
FDE0
F9E0
71E0
ENDCHAR
STARTCHAR uni1EB0
ENCODING 7856
SWIDTH 771 0
DWIDTH 15 0
BBX 14 20 1 0
BITMAP
0780
01C0
0000
0770
03C0
0000
00E0
01F0
01F0
03F0
0270
0670
0C78
0C78
1FF8
1FF8
3038
203C
603C
E03C
ENDCHAR
STARTCHAR uni1EB1
ENCODING 7857
SWIDTH 681 0
DWIDTH 14 0
BBX 13 17 1 0
BITMAP
0780
01C0
0000
0770
03C0
0000
07F8
0FF8
1C78
30F0
70F0
61F0
E2F0
E6F0
FDE0
F9E0
71E0
ENDCHAR
STARTCHAR uni1EB4
ENCODING 7860
SWIDTH 771 0
DWIDTH 15 0
BBX 14 20 1 0
BITMAP
03F8
07F0
0000
0770
03C0
0000
00E0
01F0
01F0
03F0
0270
0670
0C78
0C78
1FF8
1FF8
3038
203C
603C
E03C
ENDCHAR
STARTCHAR uni1EB5
ENCODING 7861
SWIDTH 681 0
DWIDTH 14 0
BBX 13 17 1 0
BITMAP
07F0
0FE0
0000
0770
03C0
0000
07F8
0FF8
1C78
30F0
70F0
61F0
E2F0
E6F0
FDE0
F9E0
71E0
ENDCHAR
STARTCHAR uni1EB6
ENCODING 7862
SWIDTH 771 0
DWIDTH 15 0
BBX 14 20 1 -3
BITMAP
0770
03C0
0000
00E0
01F0
01F0
03F0
0270
0670
0C78
0C78
1FF8
1FF8
3038
203C
603C
E03C
0000
01C0
01C0
ENDCHAR
STARTCHAR uni1EB7
ENCODING 7863
SWIDTH 681 0
DWIDTH 14 0
BBX 13 17 1 -3
BITMAP
0770
03C0
0000
07F8
0FF8
1C78
30F0
70F0
61F0
E2F0
E6F0
FDE0
F9E0
71E0
0000
0E00
0E00
ENDCHAR
STARTCHAR uni1EB8
ENCODING 7864
SWIDTH 642 0
DWIDTH 13 0
BBX 13 17 2 -3
BITMAP
1FF8
1FF8
3C00
3C00
3C00
3C00
3FE0
7FC0
7800
7800
7800
7800
FFE0
FFE0
0000
0E00
0E00
ENDCHAR
STARTCHAR uni1EB9
ENCODING 7865
SWIDTH 612 0
DWIDTH 12 0
BBX 11 14 1 -3
BITMAP
07C0
1FE0
3CE0
78E0
71C0
FF80
FE00
F020
F8E0
7FE0
3F00
0000
0E00
0E00
ENDCHAR
STARTCHAR uni1EBC
ENCODING 7868
SWIDTH 642 0
DWIDTH 13 0
BBX 13 17 2 0
BITMAP
0FE0
1FC0
0000
1FF8
1FF8
3C00
3C00
3C00
3C00
3FE0
7FC0
7800
7800
7800
7800
FFE0
FFE0
ENDCHAR
STARTCHAR uni1EBD
ENCODING 7869
SWIDTH 612 0
DWIDTH 12 0
BBX 11 14 1 0
BITMAP
0FE0
1FC0
0000
07C0
1FE0
3CE0
78E0
71C0
FF80
FE00
F020
F8E0
7FE0
3F00
ENDCHAR
STARTCHAR uni1EBE
ENCODING 7870
SWIDTH 642 0
DWIDTH 13 0
BBX 13 20 2 0
BITMAP
01E0
0700
0000
03C0
0EE0
0000
1FF8
1FF8
3C00
3C00
3C00
3C00
3FE0
7FC0
7800
7800
7800
7800
FFE0
FFE0
ENDCHAR
STARTCHAR uni1EBF
ENCODING 7871
SWIDTH 612 0
DWIDTH 12 0
BBX 11 17 1 0
BITMAP
01E0
0700
0000
03C0
0EE0
0000
07C0
1FE0
3CE0
78E0
71C0
FF80
FE00
F020
F8E0
7FE0
3F00
ENDCHAR
STARTCHAR uni1EC0
ENCODING 7872
SWIDTH 642 0
DWIDTH 13 0
BBX 13 20 2 0
BITMAP
0F00
0380
0000
03C0
0EE0
0000
1FF8
1FF8
3C00
3C00
3C00
3C00
3FE0
7FC0
7800
7800
7800
7800
FFE0
FFE0
ENDCHAR
STARTCHAR uni1EC1
ENCODING 7873
SWIDTH 612 0
DWIDTH 12 0
BBX 11 17 1 0
BITMAP
0F00
0380
0000
03C0
0EE0
0000
07C0
1FE0
3CE0
78E0
71C0
FF80
FE00
F020
F8E0
7FE0
3F00
ENDCHAR
STARTCHAR uni1EC4
ENCODING 7876
SWIDTH 642 0
DWIDTH 13 0
BBX 13 20 2 0
BITMAP
07F0
0FE0
0000
03C0
0EE0
0000
1FF8
1FF8
3C00
3C00
3C00
3C00
3FE0
7FC0
7800
7800
7800
7800
FFE0
FFE0
ENDCHAR
STARTCHAR uni1EC5
ENCODING 7877
SWIDTH 612 0
DWIDTH 12 0
BBX 11 17 1 0
BITMAP
0FE0
1FC0
0000
03C0
0EE0
0000
07C0
1FE0
3CE0
78E0
71C0
FF80
FE00
F020
F8E0
7FE0
3F00
ENDCHAR
STARTCHAR uni1EC6
ENCODING 7878
SWIDTH 642 0
DWIDTH 13 0
BBX 13 20 2 -3
BITMAP
0780
1DC0
0000
1FF8
1FF8
3C00
3C00
3C00
3C00
3FE0
7FC0
7800
7800
7800
7800
FFE0
FFE0
0000
0E00
0E00
ENDCHAR
STARTCHAR uni1EC7
ENCODING 7879
SWIDTH 612 0
DWIDTH 12 0
BBX 11 17 1 -3
BITMAP
0780
1DC0
0000
07C0
1FE0
3CE0
78E0
71C0
FF80
FE00
F020
F8E0
7FE0
3F00
0000
0E00
0E00
ENDCHAR
STARTCHAR uni1ECA
ENCODING 7882
SWIDTH 361 0
DWIDTH 7 0
BBX 7 17 2 -3
BITMAP
1E
1E
3C
3C
3C
3C
3C
78
78
78
78
78
F0
F0
00
70
70
ENDCHAR
STARTCHAR uni1ECB
ENCODING 7883
SWIDTH 343 0
DWIDTH 7 0
BBX 7 17 1 -3
BITMAP
1E
3E
00
3C
3C
3C
78
78
78
78
78
F0
F0
F0
00
70
70
ENDCHAR
STARTCHAR uni1ECC
ENCODING 7884
SWIDTH 855 0
DWIDTH 17 0
BBX 14 17 3 -3
BITMAP
03E0
0FF8
1C38
381C
701C
701C
E01C
E01C
E038
E038
F070
70E0
7FC0
1F00
0000
0700
0700
ENDCHAR
STARTCHAR uni1ECD
ENCODING 7885
SWIDTH 663 0
DWIDTH 13 0
BBX 10 14 3 -3
BITMAP
0F80
1FC0
39C0
71C0
61C0
E1C0
E1C0
E180
E380
7F00
3C00
0000
1C00
1C00
ENDCHAR
STARTCHAR uni1ED0
ENCODING 7888
SWIDTH 855 0
DWIDTH 17 0
BBX 14 20 3 0
BITMAP
00F0
0380
0000
01E0
0770
0000
03E0
0FF8
1C38
381C
701C
701C
E01C
E01C
E038
E038
F070
70E0
7FC0
1F00
ENDCHAR
STARTCHAR uni1ED1
ENCODING 7889
SWIDTH 663 0
DWIDTH 13 0
BBX 10 17 3 0
BITMAP
03C0
0E00
0000
0780
1DC0
0000
0F80
1FC0
39C0
71C0
61C0
E1C0
E1C0
E180
E380
7F00
3C00
ENDCHAR
STARTCHAR uni1ED2
ENCODING 7890
SWIDTH 855 0
DWIDTH 17 0
BBX 14 20 3 0
BITMAP
0780
01C0
0000
01E0
0770
0000
03E0
0FF8
1C38
381C
701C
701C
E01C
E01C
E038
E038
F070
70E0
7FC0
1F00
ENDCHAR
STARTCHAR uni1ED3
ENCODING 7891
SWIDTH 663 0
DWIDTH 13 0
BBX 10 17 3 0
BITMAP
1E00
0700
0000
0780
1DC0
0000
0F80
1FC0
39C0
71C0
61C0
E1C0
E1C0
E180
E380
7F00
3C00
ENDCHAR
STARTCHAR uni1ED6
ENCODING 7894
SWIDTH 855 0
DWIDTH 17 0
BBX 14 20 3 0
BITMAP
07F0
0FE0
0000
01E0
0770
0000
03E0
0FF8
1C38
381C
701C
701C
E01C
E01C
E038
E038
F070
70E0
7FC0
1F00
ENDCHAR
STARTCHAR uni1ED7
ENCODING 7895
SWIDTH 663 0
DWIDTH 13 0
BBX 10 17 3 0
BITMAP
1FC0
3F80
0000
0780
1DC0
0000
0F80
1FC0
39C0
71C0
61C0
E1C0
E1C0
E180
E380
7F00
3C00
ENDCHAR
STARTCHAR uni1ED8
ENCODING 7896
SWIDTH 855 0
DWIDTH 17 0
BBX 14 20 3 -3
BITMAP
03C0
0EE0
0000
03E0
0FF8
1C38
381C
701C
701C
E01C
E01C
E038
E038
F070
70E0
7FC0
1F00
0000
0700
0700
ENDCHAR
STARTCHAR uni1ED9
ENCODING 7897
SWIDTH 663 0
DWIDTH 13 0
BBX 10 17 3 -3
BITMAP
0F00
3B80
0000
0F80
1FC0
39C0
71C0
61C0
E1C0
E1C0
E180
E380
7F00
3C00
0000
1C00
1C00
ENDCHAR
STARTCHAR uni1EDA
ENCODING 7898
SWIDTH 855 0
DWIDTH 17 0
BBX 18 17 3 0
BITMAP
003C00
00E000
000000
03E3C0
0FFBC0
1C3BC0
381D80
701D80
701F00
E01C00
E01C00
E03800
E03800
F07000
70E000
7FC000
1F0000
ENDCHAR
STARTCHAR uni1EDB
ENCODING 7899
SWIDTH 663 0
DWIDTH 13 0
BBX 14 14 3 0
BITMAP
00F0
0380
0000
0FBC
1FFC
39FC
71D8
61D8
E1F0
E1C0
E180
E380
7F00
3C00
ENDCHAR
STARTCHAR uni1EDC
ENCODING 7900
SWIDTH 855 0
DWIDTH 17 0
BBX 18 17 3 0
BITMAP
01E000
007000
000000
03E3C0
0FFBC0
1C3BC0
381D80
701D80
701F00
E01C00
E01C00
E03800
E03800
F07000
70E000
7FC000
1F0000
ENDCHAR
STARTCHAR uni1EDD
ENCODING 7901
SWIDTH 663 0
DWIDTH 13 0
BBX 14 14 3 0
BITMAP
0780
01C0
0000
0FBC
1FFC
39FC
71D8
61D8
E1F0
E1C0
E180
E380
7F00
3C00
ENDCHAR
STARTCHAR uni1EE0
ENCODING 7904
SWIDTH 855 0
DWIDTH 17 0
BBX 18 17 3 0
BITMAP
00FE00
01FC00
000000
03E3C0
0FFBC0
1C3BC0
381D80
701D80
701F00
E01C00
E01C00
E03800
E03800
F07000
70E000
7FC000
1F0000
ENDCHAR
STARTCHAR uni1EE1
ENCODING 7905
SWIDTH 663 0
DWIDTH 13 0
BBX 14 14 3 0
BITMAP
07F0
0FE0
0000
0FBC
1FFC
39FC
71D8
61D8
E1F0
E1C0
E180
E380
7F00
3C00
ENDCHAR
STARTCHAR uni1EE2
ENCODING 7906
SWIDTH 855 0
DWIDTH 17 0
BBX 18 17 3 -3
BITMAP
03E3C0
0FFBC0
1C3BC0
381D80
701D80
701F00
E01C00
E01C00
E03800
E03800
F07000
70E000
7FC000
1F0000
000000
070000
070000
ENDCHAR
STARTCHAR uni1EE3
ENCODING 7907
SWIDTH 663 0
DWIDTH 13 0
BBX 14 14 3 -3
BITMAP
0FBC
1FFC
39FC
71D8
61D8
E1F0
E1C0
E180
E380
7F00
3C00
0000
0E00
0E00
ENDCHAR
STARTCHAR uni1EE4
ENCODING 7908
SWIDTH 759 0
DWIDTH 15 0
BBX 14 17 3 -3
BITMAP
3C1C
383C
7838
7838
7038
7038
7078
E070
E070
E070
E0F0
F0E0
7FC0
1F80
0000
0700
0700
ENDCHAR
STARTCHAR uni1EE5
ENCODING 7909
SWIDTH 675 0
DWIDTH 13 0
BBX 12 14 2 -3
BITMAP
38F0
38F0
30F0
70E0
71E0
73E0
73E0
75E0
FDC0
FBC0
73C0
0000
0E00
0E00
ENDCHAR
STARTCHAR uni1EE8
ENCODING 7912
SWIDTH 759 0
DWIDTH 15 0
BBX 18 17 3 0
BITMAP
003C00
00E000
000000
3C1FC0
383FC0
783BC0
783980
703980
703F00
707800
E07000
E07000
E07000
E0F000
F0E000
7FC000
1F8000
ENDCHAR
STARTCHAR uni1EE9
ENCODING 7913
SWIDTH 675 0
DWIDTH 13 0
BBX 16 14 2 0
BITMAP
0078
01C0
0000
38FF
38FF
30FF
70E6
71E6
73FC
73E0
75E0
FDC0
FBC0
73C0
ENDCHAR
STARTCHAR uni1EEA
ENCODING 7914
SWIDTH 759 0
DWIDTH 15 0
BBX 18 17 3 0
BITMAP
01E000
007000
000000
3C1FC0
383FC0
783BC0
783980
703980
703F00
707800
E07000
E07000
E07000
E0F000
F0E000
7FC000
1F8000
ENDCHAR
STARTCHAR uni1EEB
ENCODING 7915
SWIDTH 675 0
DWIDTH 13 0
BBX 16 14 2 0
BITMAP
03C0
00E0
0000
38FF
38FF
30FF
70E6
71E6
73FC
73E0
75E0
FDC0
FBC0
73C0
ENDCHAR
STARTCHAR uni1EEE
ENCODING 7918
SWIDTH 759 0
DWIDTH 15 0
BBX 18 17 3 0
BITMAP
01FC00
03F800
000000
3C1FC0
383FC0
783BC0
783980
703980
703F00
707800
E07000
E07000
E07000
E0F000
F0E000
7FC000
1F8000
ENDCHAR
STARTCHAR uni1EEF
ENCODING 7919
SWIDTH 675 0
DWIDTH 13 0
BBX 16 14 2 0
BITMAP
01FC
03F8
0000
38FF
38FF
30FF
70E6
71E6
73FC
73E0
75E0
FDC0
FBC0
73C0
ENDCHAR
STARTCHAR uni1EF0
ENCODING 7920
SWIDTH 759 0
DWIDTH 15 0
BBX 18 17 3 -3
BITMAP
3C1FC0
383FC0
783BC0
783980
703980
703F00
707800
E07000
E07000
E07000
E0F000
F0E000
7FC000
1F8000
000000
070000
070000
ENDCHAR
STARTCHAR uni1EF1
ENCODING 7921
SWIDTH 675 0
DWIDTH 13 0
BBX 16 14 2 -3
BITMAP
38FF
38FF
30FF
70E6
71E6
73FC
73E0
75E0
FDC0
FBC0
73C0
0000
0700
0700
ENDCHAR
STARTCHAR Ygrave
ENCODING 7922
SWIDTH 681 0
DWIDTH 14 0
BBX 12 17 2 0
BITMAP
1E00
0700
0000
E070
E0E0
61C0
7380
7300
3600
3E00
3C00
3C00
3800
7800
7800
7800
7800
ENDCHAR
STARTCHAR ygrave
ENCODING 7923
SWIDTH 633 0
DWIDTH 13 0
BBX 14 18 1 -4
BITMAP
1E00
0700
0000
3C0C
3C18
3C30
3C20
3C60
1EC0
1E80
1F80
1F00
1E00
0E00
0C00
1800
3800
F000
ENDCHAR
STARTCHAR uni1EF4
ENCODING 7924
SWIDTH 681 0
DWIDTH 14 0
BBX 12 17 2 -3
BITMAP
E070
E0E0
61C0
7380
7300
3600
3E00
3C00
3C00
3800
7800
7800
7800
7800
0000
1C00
1C00
ENDCHAR
STARTCHAR uni1EF5
ENCODING 7925
SWIDTH 633 0
DWIDTH 13 0
BBX 14 18 1 -7
BITMAP
3C0C
3C18
3C30
3C20
3C60
1EC0
1E80
1F80
1F00
1E00
0E00
0C00
1800
3800
F000
0000
1C00
1C00
ENDCHAR
STARTCHAR uni1EF8
ENCODING 7928
SWIDTH 681 0
DWIDTH 14 0
BBX 12 17 2 0
BITMAP
1FC0
3F80
0000
E070
E0E0
61C0
7380
7300
3600
3E00
3C00
3C00
3800
7800
7800
7800
7800
ENDCHAR
STARTCHAR uni1EF9
ENCODING 7929
SWIDTH 633 0
DWIDTH 13 0
BBX 14 18 1 -4
BITMAP
0FE0
1FC0
0000
3C0C
3C18
3C30
3C20
3C60
1EC0
1E80
1F80
1F00
1E00
0E00
0C00
1800
3800
F000
ENDCHAR
STARTCHAR uni2000
ENCODING 8192
SWIDTH 500 0
DWIDTH 10 0
BBX 1 1 0 0
BITMAP
00
ENDCHAR
STARTCHAR uni2001
ENCODING 8193
SWIDTH 1000 0
DWIDTH 19 0
BBX 1 1 0 0
BITMAP
00
ENDCHAR
STARTCHAR uni2002
ENCODING 8194
SWIDTH 500 0
DWIDTH 10 0
BBX 1 1 0 0
BITMAP
00
ENDCHAR
STARTCHAR uni2003
ENCODING 8195
SWIDTH 1000 0
DWIDTH 19 0
BBX 1 1 0 0
BITMAP
00
ENDCHAR
STARTCHAR uni2004
ENCODING 8196
SWIDTH 333 0
DWIDTH 6 0
BBX 1 1 0 0
BITMAP
00
ENDCHAR
STARTCHAR uni2005
ENCODING 8197
SWIDTH 250 0
DWIDTH 5 0
BBX 1 1 0 0
BITMAP
00
ENDCHAR
STARTCHAR uni2006
ENCODING 8198
SWIDTH 167 0
DWIDTH 3 0
BBX 1 1 0 0
BITMAP
00
ENDCHAR
STARTCHAR uni2007
ENCODING 8199
SWIDTH 687 0
DWIDTH 14 0
BBX 1 1 0 0
BITMAP
00
ENDCHAR
STARTCHAR uni2008
ENCODING 8200
SWIDTH 343 0
DWIDTH 7 0
BBX 1 1 0 0
BITMAP
00
ENDCHAR
STARTCHAR uni2009
ENCODING 8201
SWIDTH 200 0
DWIDTH 4 0
BBX 1 1 0 0
BITMAP
00
ENDCHAR
STARTCHAR uni200A
ENCODING 8202
SWIDTH 100 0
DWIDTH 2 0
BBX 1 1 0 0
BITMAP
00
ENDCHAR
STARTCHAR uni200B
ENCODING 8203
SWIDTH 0 0
DWIDTH 0 0
BBX 1 1 0 0
BITMAP
00
ENDCHAR
STARTCHAR uni2010
ENCODING 8208
SWIDTH 289 0
DWIDTH 6 0
BBX 5 2 2 6
BITMAP
F8
F8
ENDCHAR
STARTCHAR uni2011
ENCODING 8209
SWIDTH 289 0
DWIDTH 6 0
BBX 5 2 2 6
BITMAP
F8
F8
ENDCHAR
STARTCHAR figuredash
ENCODING 8210
SWIDTH 500 0
DWIDTH 10 0
BBX 9 2 2 6
BITMAP
FF80
FF80
ENDCHAR
STARTCHAR endash
ENCODING 8211
SWIDTH 500 0
DWIDTH 10 0
BBX 9 2 2 6
BITMAP
FF80
FF80
ENDCHAR
STARTCHAR emdash
ENCODING 8212
SWIDTH 1000 0
DWIDTH 20 0
BBX 19 1 2 6
BITMAP
FFFFE0
ENDCHAR
STARTCHAR afii00208
ENCODING 8213
SWIDTH 1000 0
DWIDTH 20 0
BBX 19 1 2 6
BITMAP
FFFFE0
ENDCHAR
STARTCHAR quoteleft
ENCODING 8216
SWIDTH 265 0
DWIDTH 5 0
BBX 5 6 3 8
BITMAP
38
60
70
F0
F0
F0
ENDCHAR
STARTCHAR quoteright
ENCODING 8217
SWIDTH 265 0
DWIDTH 5 0
BBX 5 6 3 8
BITMAP
78
78
78
30
30
E0
ENDCHAR
STARTCHAR quotesinglbase
ENCODING 8218
SWIDTH 265 0
DWIDTH 5 0
BBX 5 7 0 -3
BITMAP
78
78
78
70
30
70
E0
ENDCHAR
STARTCHAR quotereversed
ENCODING 8219
SWIDTH 265 0
DWIDTH 5 0
BBX 5 6 3 8
BITMAP
F0
F0
F0
60
60
38
ENDCHAR
STARTCHAR quotedblleft
ENCODING 8220
SWIDTH 530 0
DWIDTH 11 0
BBX 10 6 3 8
BITMAP
39C0
6300
7380
F380
F780
F780
ENDCHAR
STARTCHAR quotedblright
ENCODING 8221
SWIDTH 530 0
DWIDTH 11 0
BBX 10 6 3 8
BITMAP
7BC0
7BC0
73C0
7380
3180
E700
ENDCHAR
STARTCHAR quotedblbase
ENCODING 8222
SWIDTH 530 0
DWIDTH 11 0
BBX 11 7 0 -3
BITMAP
79E0
79E0
7BE0
7BC0
30C0
31C0
E300
ENDCHAR
STARTCHAR uni201F
ENCODING 8223
SWIDTH 530 0
DWIDTH 11 0
BBX 10 6 3 8
BITMAP
F780
F780
F380
7380
6300
39C0
ENDCHAR
STARTCHAR dagger
ENCODING 8224
SWIDTH 687 0
DWIDTH 14 0
BBX 11 17 3 -3
BITMAP
0780
0F00
0F00
0F00
0F00
FFE0
FFE0
1E00
1E00
1E00
1C00
3C00
3C00
3C00
3C00
3800
7800
ENDCHAR
STARTCHAR daggerdbl
ENCODING 8225
SWIDTH 687 0
DWIDTH 14 0
BBX 12 17 2 -3
BITMAP
03C0
0380
0780
0780
0780
3FF0
7FF0
0700
0F00
0E00
FFE0
FFC0
1E00
1E00
1E00
1C00
3C00
ENDCHAR
STARTCHAR bullet
ENCODING 8226
SWIDTH 687 0
DWIDTH 14 0
BBX 9 7 4 3
BITMAP
7F80
7F80
7F00
7F00
7F00
FF00
FF00
ENDCHAR
STARTCHAR ellipsis
ENCODING 8230
SWIDTH 1000 0
DWIDTH 20 0
BBX 16 2 2 0
BITMAP
E183
C107
ENDCHAR
STARTCHAR perthousand
ENCODING 8240
SWIDTH 1332 0
DWIDTH 27 0
BBX 25 14 2 0
BITMAP
3C030000
7C040000
E6080000
C6100000
C6200000
CC400000
FC800000
79000000
021E0F00
043F1F80
0C61B980
18633180
307F3F00
603C1E00
ENDCHAR
STARTCHAR guilsinglleft
ENCODING 8249
SWIDTH 386 0
DWIDTH 8 0
BBX 7 9 2 1
BITMAP
04
0E
1C
38
F0
70
38
38
10
ENDCHAR
STARTCHAR guilsinglright
ENCODING 8250
SWIDTH 386 0
DWIDTH 8 0
BBX 7 9 1 1
BITMAP
10
38
38
1C
1E
38
70
E0
40
ENDCHAR
STARTCHAR fraction
ENCODING 8260
SWIDTH 130 0
DWIDTH 3 0
BBX 16 14 -4 0
BITMAP
0007
000C
001C
0038
0070
00E0
01C0
0380
0700
0E00
1C00
3800
3000
E000
ENDCHAR
STARTCHAR oneinferior
ENCODING 8321
SWIDTH 539 0
DWIDTH 8 0
BBX 4 9 -13 -5
BITMAP
F0
70
70
60
60
60
E0
E0
C0
ENDCHAR
STARTCHAR twoinferior
ENCODING 8322
SWIDTH 539 0
DWIDTH 8 0
BBX 8 9 -10 -5
BITMAP
3E
23
03
06
0C
18
20
60
FE
ENDCHAR
STARTCHAR threeinferior
ENCODING 8323
SWIDTH 539 0
DWIDTH 8 0
BBX 7 9 -11 -5
BITMAP
7C
06
06
0C
78
0C
0C
0C
F8
ENDCHAR
STARTCHAR uni20A5
ENCODING 8357
SWIDTH 991 0
DWIDTH 20 0
BBX 19 17 1 -3
BITMAP
000380
000700
000E00
3CEDC0
3DFFE0
3BFFE0
7AFDC0
7CF9C0
7CF1C0
78F1C0
71E180
F3E180
F7E380
F7E380
0E0000
1C0000
380000
ENDCHAR
STARTCHAR uni20A6
ENCODING 8358
SWIDTH 789 0
DWIDTH 16 0
BBX 15 14 2 0
BITMAP
1C0E
1C0E
3E0C
3FFC
3FFC
3F1C
339C
7398
71F8
7FF8
7FF8
60F8
E070
E070
ENDCHAR
STARTCHAR uni20A9
ENCODING 8361
SWIDTH 991 0
DWIDTH 20 0
BBX 17 14 4 0
BITMAP
E18180
E18100
E38300
FFFE00
FFFE00
E58400
E58C00
ED8800
E99800
FFFC00
FFFC00
71E000
71E000
61C000
ENDCHAR
STARTCHAR Euro
ENCODING 8364
SWIDTH 737 0
DWIDTH 15 0
BBX 18 14 -1 0
BITMAP
003FC0
00FFC0
03C0C0
7FF800
7FF800
0E0000
1C0000
1C0000
1C0000
FFF000
FFF000
0F0300
0FFF00
03FC00
ENDCHAR
STARTCHAR uni20AD
ENCODING 8365
SWIDTH 753 0
DWIDTH 15 0
BBX 14 14 2 0
BITMAP
1E1C
1E38
3C70
3CE0
3DC0
3D80
FFFC
FFFC
79C0
79C0
78E0
70E0
F070
F078
ENDCHAR
STARTCHAR uni2103
ENCODING 8451
SWIDTH 966 0
DWIDTH 20 0
BBX 18 14 4 0
BITMAP
803FC0
80FFC0
83C0C0
078000
0F0000
0E0000
1C0000
1C0000
1C0000
1C0000
1E0000
0F0300
0FFF00
03FC00
ENDCHAR
STARTCHAR uni2109
ENCODING 8457
SWIDTH 843 0
DWIDTH 17 0
BBX 16 14 4 0
BITMAP
83FF
83FF
8780
0780
0780
0780
07F8
0FF8
0F00
0F00
0F00
0E00
1E00
1E00
ENDCHAR
STARTCHAR trademark
ENCODING 8482
SWIDTH 901 0
DWIDTH 18 0
BBX 18 7 2 7
BITMAP
FF73C0
FF77C0
3CFF80
38FF80
38DB80
78DF80
79C780
ENDCHAR
STARTCHAR uni212A
ENCODING 8490
SWIDTH 753 0
DWIDTH 15 0
BBX 14 14 2 0
BITMAP
1E1C
1E38
3C70
3CE0
3DC0
3D80
3B00
7F80
79C0
79C0
78E0
70E0
F070
F078
ENDCHAR
STARTCHAR uni212B
ENCODING 8491
SWIDTH 771 0
DWIDTH 15 0
BBX 14 17 1 0
BITMAP
0070
0070
0000
00E0
01F0
01F0
03F0
0270
0670
0C78
0C78
1FF8
1FF8
3038
203C
603C
E03C
ENDCHAR
STARTCHAR uni2132
ENCODING 8498
SWIDTH 614 0
DWIDTH 12 0
BBX 13 14 2 0
BITMAP
0078
0078
0070
00F0
00F0
00F0
1FF0
1FE0
01E0
01E0
01E0
01E0
FFC0
FFC0
ENDCHAR
STARTCHAR minus
ENCODING 8722
SWIDTH 687 0
DWIDTH 14 0
BBX 12 2 2 5
BITMAP
FFF0
FFF0
ENDCHAR
STARTCHAR fraction
ENCODING 8725
SWIDTH 130 0
DWIDTH 3 0
BBX 16 14 -4 0
BITMAP
0007
000C
001C
0038
0070
00E0
01C0
0380
0700
0E00
1C00
3800
3000
E000
ENDCHAR
STARTCHAR periodcentered
ENCODING 8729
SWIDTH 343 0
DWIDTH 14 0
BBX 3 2 7 6
BITMAP
E0
E0
ENDCHAR
STARTCHAR uni2236
ENCODING 8758
SWIDTH 343 0
DWIDTH 7 0
BBX 6 11 2 0
BITMAP
3C
3C
78
00
00
00
00
00
78
F0
F0
ENDCHAR
STARTCHAR uni2259
ENCODING 8793
SWIDTH 687 0
DWIDTH 14 0
BBX 13 11 2 2
BITMAP
0780
1DC0
0000
7FF8
7FF8
0000
0000
0000
0000
FFF0
FFF0
ENDCHAR
STARTCHAR uni225A
ENCODING 8794
SWIDTH 687 0
DWIDTH 14 0
BBX 13 11 2 2
BITMAP
1DC0
0F00
0000
7FF8
7FF8
0000
0000
0000
0000
FFF0
FFF0
ENDCHAR
STARTCHAR notequal
ENCODING 8800
SWIDTH 687 0
DWIDTH 14 0
BBX 15 17 1 -2
BITMAP
000E
001C
0038
0030
0070
3FFC
3FFC
0180
0380
0300
0600
7FF8
7FF8
1800
3800
7000
E000
ENDCHAR
STARTCHAR equivalence
ENCODING 8801
SWIDTH 687 0
DWIDTH 14 0
BBX 13 8 0 1
BITMAP
FFF8
FFF8
0000
FFF8
FFF8
0000
FFF8
FFF8
ENDCHAR
STARTCHAR uni2262
ENCODING 8802
SWIDTH 687 0
DWIDTH 14 0
BBX 15 17 -1 -3
BITMAP
000E
001C
0038
0030
0070
7FFC
7FFC
0180
7FFC
7FFC
0600
7FFC
7FFC
1800
3800
7000
E000
ENDCHAR
STARTCHAR lessequal
ENCODING 8804
SWIDTH 687 0
DWIDTH 14 0
BBX 12 13 1 -3
BITMAP
0030
01C0
0700
1C00
E000
3000
0C00
0300
00C0
0040
0000
FFF0
FFF0
ENDCHAR
STARTCHAR greaterequal
ENCODING 8805
SWIDTH 687 0
DWIDTH 14 0
BBX 12 13 1 -2
BITMAP
2000
3000
0C00
0300
00C0
0070
0380
0E00
3800
C000
0000
FFF0
FFF0
ENDCHAR
STARTCHAR uni226E
ENCODING 8814
SWIDTH 687 0
DWIDTH 14 0
BBX 15 17 0 -3
BITMAP
000E
001C
0038
0030
0078
00E0
03C0
0F80
7380
1B00
0600
0F80
1C60
1820
3800
7000
E000
ENDCHAR
STARTCHAR uni226F
ENCODING 8815
SWIDTH 687 0
DWIDTH 14 0
BBX 15 17 0 -2
BITMAP
000E
001C
0038
0030
1070
18E0
06C0
0180
03E0
0338
07C0
0F00
1C00
7800
3800
7000
E000
ENDCHAR
STARTCHAR uni2270
ENCODING 8816
SWIDTH 687 0
DWIDTH 14 0
BBX 15 17 0 -5
BITMAP
000E
001C
0038
00F0
03F0
0EE0
70C0
1980
0780
0380
0660
0E20
1C00
7FF8
7FF8
7000
E000
ENDCHAR
STARTCHAR uni2271
ENCODING 8817
SWIDTH 687 0
DWIDTH 14 0
BBX 15 17 0 -4
BITMAP
000E
001C
1038
1830
0670
01E0
00E0
01B8
03C0
0700
1E00
6E00
1C00
7FF8
7FF8
7000
E000
ENDCHAR
STARTCHAR fi
ENCODING -1
SWIDTH 695 0
DWIDTH 14 0
BBX 14 18 1 -4
BITMAP
03F0
0FF0
1E10
3FFC
7FFC
3C78
3C78
3C78
3C78
3C78
78F0
78F0
78F0
78F0
7800
F000
F000
F000
ENDCHAR
STARTCHAR fl
ENCODING -1
SWIDTH 695 0
DWIDTH 14 0
BBX 14 18 1 -4
BITMAP
03FC
0FFC
1E38
7F38
7F78
3C78
3C78
3C70
38F0
38F0
78F0
78F0
78E0
79E0
7000
F000
F000
F000
ENDCHAR
ENDFONT
